<?xml version="1.0" encoding="utf-8"?>
<!-- Generator: Adobe Illustrator 25.0.1, SVG Export Plug-In . SVG Version: 6.00 Build 0)  -->
<svg version="1.1" id="Ebene_1" xmlns="http://www.w3.org/2000/svg" xmlns:xlink="http://www.w3.org/1999/xlink" x="0px" y="0px"
	 viewBox="0 0 1200 600" style="enable-background:new 0 0 1200 600;" xml:space="preserve">
<style type="text/css">
	.st0{fill:#ED1C24;}
	.st1{fill:#005DA4;}
	.st2{fill:#FFFFFF;}
	.st3{fill:#FFDD00;}
</style>
<rect class="st0" width="1200" height="600"/>
<rect class="st1" width="1200" height="400"/>
<rect class="st2" width="1200" height="200"/>
<g transform="translate(2.2238 1) scale(.12937)">
	<path class="st1" d="M2853,1618.9l48.7-718.7c-379.7-180-820.2-180-1200,0l48.7,718.7c21.9,323,241.4,598.6,551.3,692.2
		C2611.6,2217.6,2831.2,1941.9,2853,1618.9"/>
	<path class="st2" d="M1851.8,1716.3c52.2,234.8,222.6,425.6,450,503.8c227.4-78.3,397.8-269.1,450-503.8l-225-300l-90,120l-135-270
		l-135,270l-90-120L1851.8,1716.3"/>
	<g id="wave" transform="scale(5) translate(0 5.1962)">
		<path class="st1" d="M374.4,353.1c8.3,14.3,26.6,19.3,41,11c0,0,0,0,0,0c9.3-5.4,20.7-5.4,30,0c9.3,5.4,20.7,5.4,30,0
			c9.3-5.4,20.7-5.4,30,0c14.3,8.3,32.7,3.4,41-11c0,0,0,0,0,0v8.7c-8.3,14.3-26.6,19.3-41,11c0,0,0,0,0,0c-9.3-5.4-20.7-5.4-30,0
			c-9.3,5.4-20.7,5.4-30,0c-9.3-5.4-20.7-5.4-30,0c-14.3,8.3-32.7,3.4-41-11c0,0,0,0,0,0V353.1z"/>
	</g>
	<g transform="translate(0 17.321)">
		<g id="wave_1_" transform="scale(5) translate(0 5.1962)">
			<path class="st1" d="M374.4,370.4c8.3,14.3,26.6,19.3,41,11c0,0,0,0,0,0c9.3-5.4,20.7-5.4,30,0c9.3,5.4,20.7,5.4,30,0
				c9.3-5.4,20.7-5.4,30,0c14.3,8.3,32.7,3.4,41-11c0,0,0,0,0,0v8.7c-8.3,14.3-26.6,19.3-41,11c0,0,0,0,0,0c-9.3-5.4-20.7-5.4-30,0
				c-9.3,5.4-20.7,5.4-30,0c-9.3-5.4-20.7-5.4-30,0c-14.3,8.3-32.7,3.4-41-11c0,0,0,0,0,0V370.4z"/>
		</g>
	</g>
	<g id="s" transform="translate(0,-120) scale(2.25)">
		<path class="st3" d="M1023,524.5l5,16.3l16.7-3.8l-11.7,12.5l11.7,12.5l-16.7-3.8l-5,16.3l-5-16.3l-16.7,3.8l11.7-12.5l-11.7-12.5
			l16.7,3.8L1023,524.5z"/>
	</g>
	<g transform="translate(-33.75,-45)">
		<g id="s_1_" transform="translate(0,-120) scale(2.25)">
			<path class="st3" d="M948,424.5l5,16.3l16.7-3.8L958,449.5l11.7,12.5l-16.7-3.8l-5,16.3l-5-16.3l-16.7,3.8l11.7-12.5L926.4,437
				l16.7,3.8L948,424.5z"/>
		</g>
	</g>
	<g transform="translate(33.75,-45)">
		<g id="s_2_" transform="translate(0,-120) scale(2.25)">
			<path class="st3" d="M1098,424.5l5,16.3l16.7-3.8l-11.7,12.5l11.7,12.5l-16.7-3.8l-5,16.3l-5-16.3l-16.7,3.8l11.7-12.5
				l-11.7-12.5l16.7,3.8L1098,424.5z"/>
		</g>
	</g>
	<path class="st0" d="M1743.9,881.1l49.8,734.9c20.4,300.2,221.7,557.6,508.1,649.7c286.4-92.1,487.7-349.6,508.1-649.7l49.8-734.9
		c13.9,6.6,28,13,42.1,19.1l-48.7,718.7c-21.9,323-241.4,598.6-551.3,692.2c-309.9-93.6-529.4-369.3-551.3-692.2l-48.7-718.7
		C1715.9,894.1,1729.9,887.7,1743.9,881.1"/>
</g>
</svg>
