<?xml version="1.0" encoding="utf-8"?>
<!-- Generator: Adobe Illustrator 25.1.0, SVG Export Plug-In . SVG Version: 6.00 Build 0)  -->
<svg version="1.1" id="Ebene_1" xmlns="http://www.w3.org/2000/svg" xmlns:xlink="http://www.w3.org/1999/xlink" x="0px" y="0px"
	 viewBox="0 0 1920 1080" style="enable-background:new 0 0 1920 1080;" xml:space="preserve">
<style type="text/css">
	.st0{fill-rule:evenodd;clip-rule:evenodd;fill:#575757;}
	.st1{fill-rule:evenodd;clip-rule:evenodd;fill:#7C7C7C;}
	.st2{fill-rule:evenodd;clip-rule:evenodd;fill:#686868;}
	.st3{fill-rule:evenodd;clip-rule:evenodd;fill:#4A4A4A;}
	.st4{fill-rule:evenodd;clip-rule:evenodd;fill:#5E5E5E;}
	.st5{fill-rule:evenodd;clip-rule:evenodd;fill:#868686;}
	.st6{fill-rule:evenodd;clip-rule:evenodd;fill:#454545;}
	.st7{fill-rule:evenodd;clip-rule:evenodd;fill:#4D4D4D;}
	.st8{fill-rule:evenodd;clip-rule:evenodd;fill:#656565;}
	.st9{fill-rule:evenodd;clip-rule:evenodd;fill:#848484;}
	.st10{fill-rule:evenodd;clip-rule:evenodd;fill:#151515;}
	.st11{fill-rule:evenodd;clip-rule:evenodd;fill:#8F8F8F;}
	.st12{fill-rule:evenodd;clip-rule:evenodd;fill:#898989;}
	.st13{fill-rule:evenodd;clip-rule:evenodd;fill:#8A8A8A;}
	.st14{fill-rule:evenodd;clip-rule:evenodd;fill:#9D9D9D;}
	.st15{fill-rule:evenodd;clip-rule:evenodd;fill:#A3A3A3;}
	.st16{fill-rule:evenodd;clip-rule:evenodd;fill:#818181;}
	.st17{fill-rule:evenodd;clip-rule:evenodd;fill:#9B9B9B;}
	.st18{fill-rule:evenodd;clip-rule:evenodd;fill:#C1C1C1;}
	.st19{fill-rule:evenodd;clip-rule:evenodd;fill:#BCBCBC;}
	.st20{fill-rule:evenodd;clip-rule:evenodd;fill:#C0C0C0;}
	.st21{fill-rule:evenodd;clip-rule:evenodd;fill:#C4C4C4;}
	.st22{fill-rule:evenodd;clip-rule:evenodd;fill:#363636;}
	.st23{fill-rule:evenodd;clip-rule:evenodd;fill:#969696;}
	.st24{fill-rule:evenodd;clip-rule:evenodd;fill:#AFAFAF;}
	.st25{fill-rule:evenodd;clip-rule:evenodd;fill:#535353;}
	.st26{fill-rule:evenodd;clip-rule:evenodd;fill:#A4A4A4;}
	.st27{fill-rule:evenodd;clip-rule:evenodd;fill:#B6B6B6;}
	.st28{fill-rule:evenodd;clip-rule:evenodd;fill:#838383;}
	.st29{fill-rule:evenodd;clip-rule:evenodd;fill:#C5C5C5;}
	.st30{fill-rule:evenodd;clip-rule:evenodd;fill:#979797;}
	.st31{fill-rule:evenodd;clip-rule:evenodd;fill:#0A0A0A;}
	.st32{fill-rule:evenodd;clip-rule:evenodd;fill:#939393;}
	.st33{fill-rule:evenodd;clip-rule:evenodd;fill:#060606;}
	.st34{fill-rule:evenodd;clip-rule:evenodd;fill:#7A7A7A;}
	.st35{fill-rule:evenodd;clip-rule:evenodd;fill:#666666;}
	.st36{fill-rule:evenodd;clip-rule:evenodd;fill:#888888;}
	.st37{fill-rule:evenodd;clip-rule:evenodd;fill:#CBCBCB;}
	.st38{fill-rule:evenodd;clip-rule:evenodd;fill:#404040;}
	.st39{fill-rule:evenodd;clip-rule:evenodd;fill:#8B8B8B;}
	.st40{fill-rule:evenodd;clip-rule:evenodd;fill:#ABABAB;}
	.st41{fill-rule:evenodd;clip-rule:evenodd;fill:#3E3E3E;}
	.st42{fill-rule:evenodd;clip-rule:evenodd;fill:#252525;}
	.st43{fill-rule:evenodd;clip-rule:evenodd;fill:#9C9C9C;}
	.st44{fill-rule:evenodd;clip-rule:evenodd;fill:#707070;}
	.st45{fill-rule:evenodd;clip-rule:evenodd;fill:#737373;}
	.st46{fill-rule:evenodd;clip-rule:evenodd;fill:#9F9F9F;}
	.st47{fill-rule:evenodd;clip-rule:evenodd;fill:#3A3A3A;}
	.st48{fill-rule:evenodd;clip-rule:evenodd;fill:#5B5B5B;}
	.st49{fill-rule:evenodd;clip-rule:evenodd;fill:#323232;}
	.st50{fill-rule:evenodd;clip-rule:evenodd;fill:#606060;}
	.st51{fill-rule:evenodd;clip-rule:evenodd;fill:#444444;}
	.st52{fill-rule:evenodd;clip-rule:evenodd;fill:#B5B5B5;}
	.st53{fill-rule:evenodd;clip-rule:evenodd;fill:#7B7B7B;}
	.st54{fill-rule:evenodd;clip-rule:evenodd;fill:#7E7E7E;}
	.st55{fill-rule:evenodd;clip-rule:evenodd;fill:#B2B2B2;}
	.st56{fill-rule:evenodd;clip-rule:evenodd;fill:#545454;}
	.st57{fill-rule:evenodd;clip-rule:evenodd;fill:#5D5D5D;}
	.st58{fill-rule:evenodd;clip-rule:evenodd;fill:#727272;}
	.st59{fill-rule:evenodd;clip-rule:evenodd;fill:#2C2C2C;}
	.st60{fill-rule:evenodd;clip-rule:evenodd;fill:#B9B9B9;}
	.st61{fill-rule:evenodd;clip-rule:evenodd;fill:#353535;}
	.st62{fill-rule:evenodd;clip-rule:evenodd;fill:#8E8E8E;}
	.st63{fill-rule:evenodd;clip-rule:evenodd;fill:#A0A0A0;}
	.st64{fill-rule:evenodd;clip-rule:evenodd;fill:#909090;}
	.st65{fill-rule:evenodd;clip-rule:evenodd;fill:#5C5C5C;}
	.st66{fill-rule:evenodd;clip-rule:evenodd;fill:#A6A6A6;}
	.st67{fill-rule:evenodd;clip-rule:evenodd;fill:#B3B3B3;}
	.st68{fill-rule:evenodd;clip-rule:evenodd;fill:#D6D6D6;}
	.st69{fill-rule:evenodd;clip-rule:evenodd;fill:#CACACA;}
	.st70{fill-rule:evenodd;clip-rule:evenodd;fill:#C8C8C8;}
	.st71{fill-rule:evenodd;clip-rule:evenodd;fill:#BABABA;}
	.st72{fill-rule:evenodd;clip-rule:evenodd;fill:#2A2A2A;}
	.st73{fill-rule:evenodd;clip-rule:evenodd;fill:#B7B7B7;}
	.st74{fill-rule:evenodd;clip-rule:evenodd;fill:#E2E2E2;}
	.st75{fill-rule:evenodd;clip-rule:evenodd;fill:#D2D2D2;}
	.st76{fill-rule:evenodd;clip-rule:evenodd;fill:#1A1A1A;}
	.st77{fill-rule:evenodd;clip-rule:evenodd;fill:#C7C7C7;}
	.st78{fill-rule:evenodd;clip-rule:evenodd;fill:#D5D5D5;}
	.st79{fill-rule:evenodd;clip-rule:evenodd;fill:#959595;}
	.st80{fill-rule:evenodd;clip-rule:evenodd;fill:#A2A2A2;}
	.st81{fill-rule:evenodd;clip-rule:evenodd;fill:#777777;}
	.st82{fill-rule:evenodd;clip-rule:evenodd;fill:#DFDFDF;}
	.st83{fill-rule:evenodd;clip-rule:evenodd;fill:#929292;}
	.st84{fill-rule:evenodd;clip-rule:evenodd;fill:#D4D4D4;}
	.st85{fill-rule:evenodd;clip-rule:evenodd;fill:#6F6F6F;}
	.st86{fill-rule:evenodd;clip-rule:evenodd;fill:#212121;}
	.st87{fill-rule:evenodd;clip-rule:evenodd;fill:#626262;}
	.st88{fill-rule:evenodd;clip-rule:evenodd;fill:#4F4F4F;}
	.st89{fill-rule:evenodd;clip-rule:evenodd;fill:#BDBDBD;}
	.st90{fill-rule:evenodd;clip-rule:evenodd;fill:#131313;}
	.st91{fill-rule:evenodd;clip-rule:evenodd;fill:#696969;}
	.st92{fill-rule:evenodd;clip-rule:evenodd;fill:#202020;}
	.st93{fill-rule:evenodd;clip-rule:evenodd;fill:#EBEBEB;}
	.st94{fill-rule:evenodd;clip-rule:evenodd;fill:#858585;}
	.st95{fill-rule:evenodd;clip-rule:evenodd;fill:#D8D8D8;}
	.st96{fill-rule:evenodd;clip-rule:evenodd;fill:#E9E9E9;}
	.st97{fill-rule:evenodd;clip-rule:evenodd;fill:#3D3D3D;}
	.st98{fill-rule:evenodd;clip-rule:evenodd;fill:#101010;}
	.st99{fill-rule:evenodd;clip-rule:evenodd;fill:#525252;}
	.st100{fill-rule:evenodd;clip-rule:evenodd;fill:#DDDDDD;}
	.st101{fill-rule:evenodd;clip-rule:evenodd;fill:#B4B4B4;}
	.st102{fill-rule:evenodd;clip-rule:evenodd;fill:#C2C2C2;}
	.st103{fill-rule:evenodd;clip-rule:evenodd;fill:#D3D3D3;}
	.st104{fill-rule:evenodd;clip-rule:evenodd;fill:#C3C3C3;}
	.st105{fill-rule:evenodd;clip-rule:evenodd;fill:#D7D7D7;}
	.st106{fill-rule:evenodd;clip-rule:evenodd;fill:#EAEAEA;}
	.st107{fill-rule:evenodd;clip-rule:evenodd;fill:#CDCDCD;}
	.st108{fill-rule:evenodd;clip-rule:evenodd;fill:#676767;}
	.st109{fill-rule:evenodd;clip-rule:evenodd;fill:#DBDBDB;}
	.st110{fill-rule:evenodd;clip-rule:evenodd;fill:#ADADAD;}
	.st111{fill-rule:evenodd;clip-rule:evenodd;fill:#F3F3F3;}
	.st112{fill-rule:evenodd;clip-rule:evenodd;fill:#0E0E0E;}
	.st113{fill-rule:evenodd;clip-rule:evenodd;fill:#CECECE;}
	.st114{fill-rule:evenodd;clip-rule:evenodd;fill:#D9D9D9;}
	.st115{fill-rule:evenodd;clip-rule:evenodd;fill:#FAFAFA;}
	.st116{fill-rule:evenodd;clip-rule:evenodd;fill:#A5A5A5;}
	.st117{fill-rule:evenodd;clip-rule:evenodd;fill:#282828;}
	.st118{fill-rule:evenodd;clip-rule:evenodd;fill:#DCDCDC;}
	.st119{fill-rule:evenodd;clip-rule:evenodd;fill:#E5E5E5;}
	.st120{fill-rule:evenodd;clip-rule:evenodd;fill:#D0D0D0;}
	.st121{fill-rule:evenodd;clip-rule:evenodd;fill:#DEDEDE;}
	.st122{fill-rule:evenodd;clip-rule:evenodd;fill:#E3E3E3;}
	.st123{fill-rule:evenodd;clip-rule:evenodd;fill:#EEEEEE;}
	.st124{fill-rule:evenodd;clip-rule:evenodd;fill:#F7F7F7;}
	.st125{fill-rule:evenodd;clip-rule:evenodd;fill:#111111;}
	.st126{fill-rule:evenodd;clip-rule:evenodd;fill:#5A5A5A;}
	.st127{fill-rule:evenodd;clip-rule:evenodd;fill:#E8E8E8;}
	.st128{fill-rule:evenodd;clip-rule:evenodd;fill:#FCFCFC;}
	.st129{fill-rule:evenodd;clip-rule:evenodd;fill:#CCCCCC;}
	.st130{fill-rule:evenodd;clip-rule:evenodd;fill:#D1D1D1;}
	.st131{fill-rule:evenodd;clip-rule:evenodd;fill:#191919;}
	.st132{fill-rule:evenodd;clip-rule:evenodd;fill:#ECECEC;}
	.st133{fill-rule:evenodd;clip-rule:evenodd;fill:#999999;}
	.st134{fill-rule:evenodd;clip-rule:evenodd;fill:#6D6D6D;}
	.st135{fill-rule:evenodd;clip-rule:evenodd;fill:#A9A9A9;}
	.st136{fill-rule:evenodd;clip-rule:evenodd;fill:#EFEFEF;}
	.st137{fill-rule:evenodd;clip-rule:evenodd;fill:#E0E0E0;}
	.st138{fill-rule:evenodd;clip-rule:evenodd;fill:#F8F8F8;}
	.st139{fill-rule:evenodd;clip-rule:evenodd;fill:#767676;}
	.st140{fill-rule:evenodd;clip-rule:evenodd;fill:#808080;}
	.st141{fill-rule:evenodd;clip-rule:evenodd;fill:#E4E4E4;}
	.st142{fill-rule:evenodd;clip-rule:evenodd;fill:#FBFBFB;}
	.st143{fill-rule:evenodd;clip-rule:evenodd;fill:#C6C6C6;}
	.st144{fill-rule:evenodd;clip-rule:evenodd;fill:#919191;}
	.st145{fill-rule:evenodd;clip-rule:evenodd;fill:#0C0C0C;}
	.st146{fill-rule:evenodd;clip-rule:evenodd;fill:#040404;}
	.st147{fill-rule:evenodd;clip-rule:evenodd;fill:#7D7D7D;}
	.st148{fill-rule:evenodd;clip-rule:evenodd;fill:#2D2D2D;}
	.st149{fill-rule:evenodd;clip-rule:evenodd;fill:#292929;}
	.st150{fill-rule:evenodd;clip-rule:evenodd;fill:#515151;}
	.st151{fill-rule:evenodd;clip-rule:evenodd;fill:#434343;}
	.st152{fill-rule:evenodd;clip-rule:evenodd;fill:#FEFEFE;}
	.st153{fill-rule:evenodd;clip-rule:evenodd;fill:#565656;}
	.st154{fill-rule:evenodd;clip-rule:evenodd;fill:#616161;}
	.st155{fill-rule:evenodd;clip-rule:evenodd;fill:#FDFDFD;}
	.st156{fill-rule:evenodd;clip-rule:evenodd;fill:#BBBBBB;}
	.st157{fill-rule:evenodd;clip-rule:evenodd;fill:#F5F5F5;}
	.st158{fill-rule:evenodd;clip-rule:evenodd;fill:#AAAAAA;}
	.st159{fill-rule:evenodd;clip-rule:evenodd;fill:#8D8D8D;}
	.st160{fill-rule:evenodd;clip-rule:evenodd;fill:#1E1E1E;}
</style>
<g>
	<path class="st0" d="M983.6,476.5c-0.1,0.1-0.2,0.1-0.2,0.3c-0.1,0.1-0.2,0.3-0.2,0.4c-0.1,0.7-0.9,1.4-0.7,2.2
		c0.1,0,0.2,0.1,0.3,0.1c0.2,0,0.3,0,0.4-0.1l0.2-0.1c0.3-0.3,0.4-0.8,0.4-1.1c0-0.2,0.1-0.3,0.1-0.6l0,0c0-0.2,0.2-0.3,0.2-0.6l0,0
		c0.1-0.2,0.3-0.4,0.3-0.6c-0.1-0.2-0.3-0.3-0.4-0.3C983.8,476.3,983.6,476.4,983.6,476.5z"/>
	<path class="st1" d="M987.7,465.3c-0.1-0.2-0.1-0.4-0.1-0.6c0,0,0-0.1-0.1-0.2c-0.1-0.1-0.3-0.2-0.3-0.3c-0.1-0.1-0.2-0.1-0.4-0.1
		c-0.1,0.3-0.3,0.7-0.4,1.1c-0.1,0.2,0.1,0.6-0.2,0.8l0,0c0.1,0.2,0,0.4-0.1,0.6l0,0c0,0.5,0.1,0.9,0.7,0.4l0,0
		c0.1-0.2,0.1-0.3,0.2-0.5l0,0c0.1-0.2,0.2-0.3,0.2-0.5l0.1,0c0.2-0.1,0.2-0.3,0.3-0.5C987.6,465.6,987.8,465.5,987.7,465.3z"/>
	<path class="st2" d="M986.9,467.3c-0.4,0.1-0.6-0.1-0.7-0.4c-0.4,0.6-0.4,1.3-0.5,2c0.3,0.2,0.5,0.4,0.8,0.3
		c0.2-0.1,0.2-0.1,0.2-0.2c0.3-0.4,0.2-1,0.4-1.4C987.1,467.6,987,467.4,986.9,467.3z"/>
	<path class="st3" d="M984.8,472.2c-0.3,0.3-0.3,0.5-0.2,0.8c0,0.2,0,0.4-0.2,0.7l0,0c0,0.2-0.1,0.4-0.2,0.6l0,0
		c0,0.2-0.1,0.4-0.2,0.6l0,0c-0.1,0.2-0.1,0.3,0,0.4c0.1,0.2,0.2,0.2,0.3,0.3c0.2,0,0.2-0.1,0.3-0.2c0.1-0.2,0.2-0.4,0.3-0.6
		c0.1-0.1,0.2-0.3,0.2-0.4c0.1-0.5,0.2-1.1,0.3-1.5C985.2,472.3,985.1,472,984.8,472.2z"/>
	<path class="st4" d="M984.7,472c0.2,0.2,0.4,0.5,0.7,0.4l0,0c0-0.2,0.1-0.4,0.2-0.6c0.2-0.3,0.4-0.6,0.5-0.8
		c-0.1-0.4-0.4-0.7-0.9-0.7c-0.3,0.3-0.4,0.7-0.4,1.1C984.8,471.7,984.7,471.8,984.7,472L984.7,472z"/>
	<path class="st2" d="M986.6,469.2c-0.2-0.2-0.4-0.4-0.8-0.3c-0.3,0.4-0.4,0.8-0.2,1.1c0.2,0.2,0.3,0.5,0.7,0.4
		C986.5,470,986.6,469.6,986.6,469.2z"/>
	<path class="st5" d="M986.3,470.5c-0.1-0.2-0.4-0.4-0.7-0.4l0,0c-0.1,0.2-0.2,0.3-0.2,0.5l-0.1,0c0.2,0.3,0.5,0.5,0.9,0.7
		C986.7,470.9,986.4,470.6,986.3,470.5z"/>
	<path class="st2" d="M987.6,465.7c-0.1,0.2-0.2,0.3-0.3,0.5C987.6,466,987.6,465.9,987.6,465.7z"/>
	<path class="st2" d="M987.4,466.3c-0.1,0.2-0.2,0.3-0.2,0.5C987.2,466.6,987.3,466.4,987.4,466.3z"/>
	<path class="st2" d="M987.2,466.8c-0.1,0.2-0.1,0.3-0.2,0.5C987.2,467.2,987.3,467,987.2,466.8z"/>
	<path class="st3" d="M985.7,471.9c0,0.2-0.2,0.3-0.2,0.6C985.5,472.3,985.6,472.2,985.7,471.9z"/>
	<path class="st6" d="M985.1,474c-0.1,0.2-0.1,0.2-0.2,0.4C985,474.3,985.1,474.2,985.1,474z"/>
	<path class="st6" d="M984.8,475.1c-0.1,0-0.2,0.1-0.3,0.2c0,0.1,0,0.2,0,0.2c0,0.1,0.2,0.1,0.1,0.2c0.2,0,0.4-0.1,0.3-0.3
		C984.9,475.2,984.8,475.2,984.8,475.1z"/>
	<path class="st7" d="M984.3,477.1c-0.1-0.2-0.1-0.2-0.2-0.3c-0.1,0.2-0.1,0.3-0.2,0.5C984.2,477.2,984.3,477,984.3,477.1z"/>
	<path class="st7" d="M984,477.2c0,0.2-0.2,0.3-0.2,0.6C983.9,477.5,984,477.4,984,477.2z"/>
	<path class="st7" d="M983.9,477.8c0,0.2-0.1,0.3-0.1,0.6C983.7,478.2,983.7,477.9,983.9,477.8z"/>
	<path class="st8" d="M982.9,479.7c0.1,0.1,0.1,0.2,0.2,0.3c0-0.2,0.1-0.4,0.2-0.6l-0.2,0.1c-0.1,0-0.2,0-0.2,0
		C982.9,479.5,983,479.5,982.9,479.7z"/>
	<path class="st8" d="M983.1,480c-0.2,0.1-0.3,0.3-0.2,0.6C983,480.3,983.1,480.1,983.1,480z"/>
	<path class="st9" d="M1000.5,479.4c2.2-0.9,4.2-2.3,6.3-3.3c0.1-0.1-0.1-0.2,0-0.2c0-0.4-0.1-0.7-0.4-0.9c-0.9,0-1.6,0.6-2.3,1.1
		c-0.9,0.7-2,1.1-3,1.5c-0.7,0.2-1.5,0.4-1.8,1.1c0.7,0.6,1,0.1,1.5-0.2C1000.5,478.7,1000.1,479,1000.5,479.4z"/>
	<path class="st10" d="M995.7,480.6c-0.3-0.3,0.2-0.6,0-0.8c-0.4-0.3-0.6,0.1-0.8,0.3c0,0-0.1,0.1-0.1,0.1c-2,1.1-2,1.1-2.8,2.6
		c0,0.1,0.1,0.1,0.2,0.2c0,0,0.2-0.1,0.2,0c0.2,0,0.4,0,0.5-0.2c0.2-0.1,0.3-0.2,0.5-0.4c0.3-0.4,0.6-0.8,1.2-0.9
		c0.2-0.1,0.3-0.2,0.5-0.2c0.2,0,0.3-0.2,0.5-0.3c0.1-0.1,0.1-0.1,0.2-0.2C995.7,480.9,995.7,480.8,995.7,480.6z"/>
	<path class="st11" d="M1000.5,479.4c0.1-0.7,1.2-0.7,1.5-1.4c-1.2-0.1-1.7,0.9-2.8,0.8c-0.3,0.1-0.5,0.2-0.8,0.2
		c-0.2,0.1-0.2,0.1-0.3,0.3c0,0.1,0.1,0.3,0.2,0.4c0.1,0.1,0.1,0.2,0.2,0.3c0.1,0.1,0.2,0.2,0.3,0.3
		C999.6,480.2,1000.1,479.8,1000.5,479.4z"/>
	<path class="st10" d="M998.2,479.1c0.1-0.1,0.2-0.2,0.2-0.3c-0.2-0.2-0.3-0.5-0.3-1c-0.8,0.7-1.8,1.3-1.9,2.3
		c0.1,0.2,0.2,0.3,0.4,0.3c0.5-0.1,0.8-0.5,1.2-0.7C997.9,479.6,998.1,479.5,998.2,479.1z"/>
	<path class="st7" d="M984.7,475.8c-0.1-0.1-0.1-0.2-0.1-0.2l-0.2,0c-0.2-0.1-0.3-0.3-0.5-0.4c-0.1,0-0.2,0-0.2,0
		c-0.1,0.5-0.2,1-0.2,1.5c0.2-0.1,0.4-0.2,0.6-0.2C984.3,476.2,984.6,476.1,984.7,475.8z"/>
	<path class="st8" d="M981.8,481.1c0.5-0.3,0.6-0.7,0.4-1.1C981.9,480.4,981.7,480.7,981.8,481.1z"/>
	<path class="st12" d="M986.9,464.3c0.1,0.1,0.2,0.2,0.2,0.3s0.1,0,0.2,0c0.2-0.1,0.2-0.3,0.2-0.5c0-0.2-0.1-0.2-0.2-0.3
		c-0.1-0.1-0.2-0.1-0.2-0.1C986.9,464,986.9,464.2,986.9,464.3z"/>
	<path class="st2" d="M986.4,466.3c0.3-0.3,0.3-0.6,0.2-0.8C986.3,465.7,986.2,465.9,986.4,466.3z"/>
	<path class="st8" d="M982.1,480c0.2-0.1,0.5-0.2,0.7-0.4l0,0c0.1-0.1,0-0.2,0-0.2c0-0.1-0.1-0.1-0.1-0.1c-0.1,0-0.2,0.1-0.3,0.2
		C982.3,479.6,982.3,479.8,982.1,480z"/>
	<path class="st13" d="M996.6,480.2c-0.1,0-0.3,0.1-0.4,0c-0.1,0.1-0.1,0.2-0.1,0.4c0,0.1,0.1,0.1,0.2,0.2
		C996.6,480.7,996.7,480.6,996.6,480.2z"/>
	<path class="st13" d="M995.6,480.7c-0.1,0.1,0,0.2-0.2,0.3c0.3,0.2,0.5,0.1,0.6-0.2l-0.1-0.1C995.8,480.7,995.8,480.6,995.6,480.7z
		"/>
	<path class="st12" d="M992.4,482.8c-0.2,0-0.3-0.1-0.4-0.1c0,0.2-0.1,0.2-0.1,0.4l0.1,0.1C992.3,483.3,992.4,483.2,992.4,482.8z"/>
	<path class="st2" d="M986.2,466.8c0.2-0.1,0.2-0.4,0.1-0.6C986.2,466.5,986.2,466.6,986.2,466.8z"/>
	<path class="st2" d="M985.3,470.4c0.1-0.2,0.1-0.3,0.2-0.5C985.2,470.1,985.3,470.2,985.3,470.4z"/>
	<path class="st3" d="M984.8,472.1c0.1-0.2,0.2-0.3,0.2-0.5C984.7,471.7,984.7,471.9,984.8,472.1z"/>
	<path class="st6" d="M984.4,473.4c0.2-0.3,0.3-0.4,0.2-0.7C984.5,473,984.5,473.2,984.4,473.4z"/>
	<path class="st6" d="M984.3,474.1c0-0.2,0.1-0.4,0.2-0.6C984.3,473.6,984.3,473.9,984.3,474.1z"/>
	<path class="st6" d="M984.1,474.6c0-0.2,0.1-0.4,0.2-0.6C984.2,474.2,984.1,474.5,984.1,474.6z"/>
	<path class="st6" d="M984.3,475c0-0.1-0.1-0.2-0.2-0.3c-0.1,0.2-0.2,0.3-0.3,0.5l0.2,0.1C984.2,475.2,984.2,475,984.3,475z"/>
	<path class="st7" d="M983.2,477.3c0.1-0.2,0.1-0.2,0.2-0.4C983.3,477,983.3,477.1,983.2,477.3z"/>
	<path class="st14" d="M992.3,482.9c-0.1,0.1-0.3,0.3-0.5,0.3c-0.1,0.2-0.2,0.4-0.3,0.6c0.1,0.1,0.4,0.2,0.5,0.2l0,0
		c0.1-0.2,0.3-0.3,0.5-0.3l0,0c0-0.2,0.3-0.3,0.5-0.4l0,0c0.2-0.2,0.3-0.2,0.5-0.3l0,0c0.3-0.2,0.8-0.2,1.2-0.4
		c0.3-0.2,0.6-0.5,1-0.7c0.6-0.1,0.6-0.8,1.1-0.9c0.5-0.2,1-0.4,1.4-0.8c0-0.4-0.2-0.7-0.6-0.9c-0.5,0-1,0.3-1.1,0.8
		c0,0.2-0.1,0.4-0.4,0.5s-0.4,0.2-0.6,0.2l0,0c-0.2,0.2-0.3,0.2-0.5,0.3l0,0c-1,0.2-1.6,0.7-2.2,1.4l0,0
		C992.7,482.8,992.5,482.8,992.3,482.9L992.3,482.9z"/>
	<path class="st15" d="M997.8,479.5c-0.1,0.5,0,0.8,0.6,0.9c0.2,0,0.4-0.1,0.5-0.3c0-0.1,0-0.2,0.1-0.4c-0.1-0.1-0.2-0.3-0.2-0.3
		c-0.2,0-0.4-0.1-0.5-0.2C998,479.2,997.7,479.2,997.8,479.5z"/>
	<path class="st13" d="M996.9,481.4c-0.7,0-0.8,0.5-1.3,0.8c-0.2,0.1-0.2,0.1-0.2,0.2c0.1,0.1,0.1,0.1,0.2,0.2
		c0.1,0,0.2,0.1,0.4,0.1C996.3,482.2,996.8,481.9,996.9,481.4z"/>
	<path class="st13" d="M994.6,482.6c-0.5-0.1-0.9,0-1,0.5c0.5,0,0.8,0.2,1.2,0.4c0.1-0.1,0.1-0.2,0.1-0.4
		C995,483,994.9,482.8,994.6,482.6z"/>
	<path class="st12" d="M993.7,483.2c-0.2,0-0.4,0.2-0.5,0.3C993.4,483.5,993.6,483.4,993.7,483.2z"/>
	<path class="st12" d="M993.1,483.6c-0.2,0-0.4,0.2-0.5,0.4C992.8,483.8,993,483.7,993.1,483.6z"/>
	<path class="st12" d="M992.6,483.8c-0.2,0-0.4,0.1-0.5,0.3C992.4,484.1,992.6,484,992.6,483.8z"/>
	<path class="st12" d="M987.9,464.2c-0.2,0.1-0.3,0.2-0.5,0.2l0,0l-0.1,0.2l0.2,0.1c0.1,0.1,0.1,0.2,0.3,0.2
		C987.8,464.7,987.9,464.4,987.9,464.2z"/>
	<path class="st16" d="M982.8,479.3c0,0.1,0,0.2,0.1,0.4c0.1-0.1,0.2-0.1,0.3-0.3C983.1,479.2,983,479.2,982.8,479.3z"/>
	<path class="st17" d="M987.5,464.7c-0.1-0.1-0.1-0.1-0.1-0.2c-0.2,0.1-0.2,0.2-0.3,0.2C987.2,464.8,987.4,464.8,987.5,464.7z"/>
	<path class="st2" d="M984.3,475c-0.2,0.1-0.2,0.2-0.3,0.2c0.1,0.2,0.2,0.4,0.5,0.4c0-0.2,0-0.2,0-0.3
		C984.4,475.1,984.2,475,984.3,475z"/>
	<path class="st13" d="M992.7,482.6c0.8-0.3,1.5-0.8,2.2-1.4C993.6,480.9,993.2,481.6,992.7,482.6z"/>
	<path class="st13" d="M995,481.2c0.2,0,0.4-0.1,0.5-0.3C995.3,480.9,995.1,480.9,995,481.2z"/>
	<path class="st12" d="M992.3,482.9c0.2,0,0.4-0.2,0.5-0.4C992.6,482.6,992.4,482.7,992.3,482.9z"/>
	<path class="st18" d="M998.6,479.4c0.1,0.1,0.2,0.3,0.2,0.3C999,479.5,998.8,479.5,998.6,479.4z"/>
	<path class="st19" d="M996.7,483.6c-0.4,0.2-1-0.1-1.1,0.5c-0.1,0.1,0.2,0.3,0.3,0.3C996.7,484.6,996.5,483.9,996.7,483.6
		L996.7,483.6z"/>
	<path class="st20" d="M994.5,482.8c0.1,0.1,0.2,0.3,0.4,0.5c0.4-0.1,0.5-0.4,0.7-0.7c0-0.1,0-0.2,0-0.4
		C995.3,482.2,994.9,482.4,994.5,482.8z"/>
	<path class="st21" d="M1000.5,486.2c-0.1,0.1-0.2,0.1-0.2,0.1C1000.3,486.3,1000.4,486.3,1000.5,486.2L1000.5,486.2z"/>
	<path class="st22" d="M975,491.9c-1.1,0.7-2.3,1.3-3.4,1.9c-2.3,0.7-4.6,2-6.8,3c-0.2,0.3-0.3,0.3-0.3,0.6c0.2,0.4,0.6,0.5,1,0.6
		c1.4-0.7,2.8-1.5,4.2-2.2c0.3-0.4,0.9-0.5,1.3-0.7c0.2-0.1,0.5-0.2,0.7-0.4c0.5-0.2,0.9-0.5,1.4-0.8c0.3-0.2,0.8-0.5,1.1-0.7
		c0.3-0.2,0.6-0.3,0.9-0.5c0.6-0.3,1.4-0.8,2-1.1s1.3-0.7,2-1.1c0.2-0.2,0.6-0.3,0.8-0.4c0.4-0.1,0.6-0.2,0.8-0.4
		c0.1-0.2,0.3-0.3,0.3-0.6c-0.1-0.1,0-0.2-0.1-0.2c-0.2-0.1-0.4-0.2-0.6-0.1c-0.8,0.1-1.4,0.5-2.2,0.9c-0.2,0.1-0.3,0.2-0.6,0.3
		C976.8,490.6,975.5,491,975,491.9z"/>
	<path class="st23" d="M980.8,489.3c-0.2,0.2-0.5,0.3-0.8,0.5c0,0.2,0,0.2,0.1,0.4c0.2,0.1,0.4,0,0.7,0c2.1-1,4.2-1.9,6.2-2.9
		c0.1-0.2,0.1-0.2,0-0.4c-0.2-0.1-0.4-0.2-0.7-0.2s-0.7,0-1,0c-0.3-0.1-0.7-0.1-0.9-0.2c-0.4-0.2-0.6-0.4-1-0.6
		c-0.2,0-0.4,0-0.5,0.1c-0.3,0.3-0.4,0.6-0.5,0.8c-0.1,0.2-0.2,0.3-0.3,0.5c-0.1,0.3-0.1,0.7,0.2,0.9c0.3,0.7-0.4,0.7-0.8,1
		C981.4,489.2,981.2,489.5,980.8,489.3z"/>
	<path class="st24" d="M987,487c0,0.1,0.1,0.2,0.2,0.3c2-1.1,3.8-2.2,5.7-3.1c0.9-0.1,0.9-0.5,0.6-1c-0.3-0.2-0.5-0.4-0.8-0.3
		c-1.9,0.4-3.5,1.4-4.9,2.8c-0.2,0.1-0.3,0.3-0.4,0.4C987.1,486.2,986.9,486.6,987,487z"/>
	<path class="st25" d="M970.8,494.9c-0.4,0.2-0.9,0.4-1,0.9c1.7-0.3,3.2-1.3,4.7-2.2c0.1-0.3-0.1-0.6-0.4-0.7
		c-0.4,0.2-0.8,0.5-1.2,0.7c-0.3,0.5-0.8,0.6-1.2,0.9C971.4,494.8,971,495,970.8,494.9z"/>
	<path class="st26" d="M977,491.6c-0.7,0.4-1.4,0.9-2.2,1.3c-0.1,0.3,0,0.5,0.3,0.6l0.2-0.1l0.2-0.1c0.1-0.2,0.3-0.3,0.4-0.2
		c0.6-0.2,1.1-0.5,1.5-0.9c0.1-0.2,0.1-0.2,0.1-0.4C977.4,491.6,977.3,491.5,977,491.6z"/>
	<path class="st26" d="M977.1,491.4c0.1,0.2,0.1,0.2,0.2,0.3c0.3,0.1,0.7-0.3,1,0c0.5-0.2,1-0.5,1.5-0.9c0.1-0.3,0-0.5-0.3-0.6
		C978.7,490.7,977.9,491.1,977.1,491.4z"/>
	<path class="st25" d="M965.6,498.3c0,0.1,0.1,0.3,0.2,0.4c0.6-0.6,1.3-0.9,2-1.4c-0.2-0.3-0.5-0.5-0.9-0.4
		c-0.1,0.1-0.2,0.1-0.3,0.2c-0.3,0.2-0.6,0.4-0.9,0.7C965.7,497.9,965.5,498.1,965.6,498.3z"/>
	<path class="st27" d="M979.3,490.3c0.1,0.2,0.2,0.4,0.3,0.6c0.3,0,0.6-0.1,0.9-0.4c0.1-0.2,0.1-0.2,0-0.3c0-0.1-0.1-0.1-0.1-0.1
		c-0.1-0.1-0.1-0.2-0.3-0.3C979.9,490,979.7,490.2,979.3,490.3z"/>
	<path class="st28" d="M975.1,493.2c-0.1-0.2-0.2-0.4-0.3-0.6c-0.3,0.2-0.6,0.2-0.9,0.4c0.2,0.2,0.3,0.5,0.4,0.7
		C974.6,493.6,974.9,493.4,975.1,493.2z"/>
	<path class="st29" d="M978.3,491.7c-0.3-0.3-0.7-0.2-1,0c0.1,0.2,0.1,0.2,0.2,0.3C977.8,492,978,492,978.3,491.7z"/>
	<path class="st30" d="M980.4,490.1c0,0.1,0.1,0.2,0.2,0.3c0.1,0,0.2-0.1,0.3-0.2C980.7,490.2,980.5,490.2,980.4,490.1z"/>
	<path class="st28" d="M976,493c-0.2-0.1-0.3-0.1-0.4,0.2C975.7,493.1,975.8,493,976,493z"/>
	<path class="st31" d="M964.5,497.4c2.6-0.5,4.8-2.1,7-3.4c-0.8-0.5-1.8,0.2-2.6,0.4c-0.9,0.2-2.1,0.5-2.9,1.2
		c-0.2,0.2-0.5,0.4-0.7,0.4c-1.8-0.1-3.3,1.2-4.9,1.6c-1.2,0.2-0.2,0.5-0.3,0.8c0.3,0.3,0.4,0.3,0.7,0.3c0.2-0.1,0.3-0.2,0.5-0.3
		c0.5-0.4,1.1-0.7,1.8-0.5c0.4,0.1,0.7,0,1.1-0.1C964.4,497.7,964.5,497.5,964.5,497.4z"/>
	<path class="st32" d="M982.6,487.2c0.2-0.1,0.3-0.2,0.4-0.2c0.1-0.3-0.1-0.6,0-0.8c0.2-0.1,0.3-0.2,0.4-0.2c0.3-0.3,0.5-0.7,0.8-1
		c0.2-0.1,0.2-0.3,0.3-0.5c0.1-1,0.2-2-0.4-2.7c-0.3-0.3-0.6-0.5-0.6-1c-0.1-0.2-0.1-0.4-0.1-0.6s-0.1-0.5-0.1-0.8s-0.2-0.4-0.5-0.6
		s-0.5-0.2-0.7,0.1l0,0c-0.1,0.3,0.1,0.6,0,0.9l0,0c-0.1,0.3,0.1,0.6,0,0.9l0-0.1c0.1,0.1,0.1,0.2,0.1,0.4c0,0.2-0.1,0.3-0.1,0.6
		c0,0.2,0,0.2,0.1,0.4c0.1,0.1,0,0.2-0.1,0.3c-0.1,0-0.2,0.1-0.2,0.3c-0.1,0.5-0.2,0.9-0.2,1.4c-0.2,0.4,0.1,0.6,0.1,1
		c0.2,0.3,0.2,0.6,0.2,0.9c0,0.2,0,0.3,0.1,0.5C981.9,486.7,982.1,487,982.6,487.2z"/>
	<path class="st33" d="M981.8,484.7c-0.2-0.3-0.3-0.6-0.4-0.9c-0.6,0.9,0,1.9-0.5,2.8c0,0.5-0.7,0.5-0.9,0.9
		c-0.2,0.5-0.4,0.8,0.3,0.8c0.2,0.1,0.4-0.2,0.6,0.1c0.1,0.1,0.1,0.2,0.2,0.2l0.1,0.2c2.1-0.8,0.5-2.1,0.7-3.1l0,0
		C982.1,485.4,981.8,485.1,981.8,484.7z"/>
	<path class="st12" d="M981.7,485.7c-0.4,0.6-0.2,1.2-0.1,1.8c0.1,0.6-0.1,0.9-0.7,1.3c0.1,0.1,0.1,0.2,0.1,0.2s0.1,0.2,0.1,0.2
		c0.4-0.1,0.7-0.3,0.9-0.5c0.2-0.1,0.5-0.3,0.5-0.6c0-0.1,0-0.1,0-0.2c-0.2-0.2-0.3-0.5,0-0.9C982.4,486.7,982.1,486.2,981.7,485.7z
		"/>
	<path class="st34" d="M971.6,494.9c0.5-0.3,1.2-0.4,1.3-1c-0.5,0.2-0.9,0.5-1.4,0.8c-0.2,0.1-0.1,0.2,0,0.2
		C971.4,494.9,971.6,494.9,971.6,494.9z"/>
	<path class="st35" d="M971.6,494.9c-0.1-0.1-0.1-0.2-0.2-0.2c-0.2,0.1-0.5,0.2-0.7,0.4C971.1,495.2,971.4,495,971.6,494.9z"/>
	<path class="st30" d="M980.9,489.4c0.2,0,0.4,0,0.7,0c0-0.1-0.1-0.1-0.1-0.2c-0.1-0.1-0.1-0.2-0.3-0.2
		C981,489.2,981,489.2,980.9,489.4z"/>
	<path class="st12" d="M984.5,487c-0.5-0.6-0.3-1.3-0.3-2.1c-0.1-0.1-0.3-0.2-0.4-0.2c-0.5,0.2-0.7,0.6-0.4,1.1
		C983.7,486.2,983.7,487,984.5,487z"/>
	<path class="st36" d="M986.5,485.4c-0.5,0.4-0.4,1.2-1.1,1.5c0.3,0.2,0.7,0.1,1,0c0.3-0.2,0.7-0.4,1.1-0.5l0-0.2
		C987.7,485.4,987.1,485.4,986.5,485.4z"/>
	<path class="st37" d="M981.4,489.2c0,0.1,0.1,0.2,0.1,0.2c0.5-0.2,0.9-0.5,1.4-0.8c0.2-0.1,0.6-0.2,0.3-0.5
		c-0.2-0.1-0.4-0.1-0.6-0.1l0,0c-0.1,0.2-0.2,0.3-0.3,0.5C982.1,488.7,981.7,489,981.4,489.2z"/>
	<path class="st20" d="M987.5,486.3c-0.5-0.1-0.8,0.1-1.1,0.5c0.2,0.1,0.3,0.2,0.5,0.2C987.2,486.7,987.4,486.6,987.5,486.3z"/>
	<path class="st12" d="M983,486c-0.2,0.3-0.2,0.6,0,0.8C983.2,486.6,983.1,486.3,983,486z"/>
	<path class="st38" d="M986.6,485.3c0.3,0.2,0.7,0.4,0.9,0.7c0.2-0.1,0.7,0,0.7-0.1c1-1.6,2.7-2.2,4.4-3.1c0.1-0.1,0-0.2,0-0.2
		c0,0-0.1,0-0.2,0c-1,0.5-2,1.5-3.1,1.6C988.3,484.2,987.5,484.8,986.6,485.3z"/>
	<path class="st23" d="M982.4,488.5c0.1-0.2,0.2-0.3,0.3-0.5C982.6,488.2,982.5,488.3,982.4,488.5z"/>
</g>
<path class="st39" d="M964.9,499.7c0.8-0.2,1.6-0.5,2.3-1.3c0.2-0.2,0-0.4,0-0.7c-0.1-0.3-0.3-0.6-0.7-0.7c-0.7,0.1-1.6,0.2-2.4,0.5
	c-0.2,0.2-0.4,0.4-0.4,0.7C963.8,499.2,964.2,499.7,964.9,499.7z"/>
<path class="st40" d="M963.5,498.2c0.1,0.5,0.2,0.8,0,1.3c0,0.7,0.6,0.5,1,0.6c0.2-0.1,0.5-0.2,0.6-0.3c-0.3-0.6-0.8-1.2-1.1-2
	c-0.1,0-0.3,0-0.3,0.1C963.4,498.1,963.5,498.2,963.5,498.2z"/>
<path class="st41" d="M968.5,496c-0.1,0-0.3,0.1-0.5,0.2c0,0.1,0,0.3,0,0.3c0.2,0.2,0.5,0.2,0.7-0.1l0,0
	C968.6,496.4,968.6,496.3,968.5,496z"/>
<path class="st42" d="M966.7,496.4c-1.5-0.6-1.9-0.5-3,1.1c-0.2,0.2-0.1,0.4,0,0.3c0.1,0,0.3,0,0.3,0l0,0.1c0.2-0.1,0.3-0.2,0.6-0.3
	C965.4,497.7,966.2,497.2,966.7,496.4z"/>
<path class="st41" d="M966.5,496.5c-0.7,0.4-1.4,0.7-2.2,1.2c0.6,0.6,1.3,0.4,1.9-0.3c0.3,0,0.6,0,0.8-0.1c0.3-0.2,0.7-0.5,0.9-0.8
	l0-0.3C967.6,496.3,967,496.3,966.5,496.5z"/>
<path class="st43" d="M967,497c-0.3,0-0.3,0.2-0.5,0.3c0.1,0.2,0.3,0.6,0.4,0.8c0.2-0.2,0.7-0.5,1-0.7
	C967.9,496.8,967.3,497,967,497z"/>
<path class="st44" d="M963.9,497.6c-0.1-0.1-0.2-0.2-0.4-0.4c-0.1,0.1-0.2,0.2-0.5,0.2c-0.7,0.4-1.5,0.9-2.2,1.3
	c0.1,0.2,0.1,0.3,0.2,0.5c0.2,0.2,0.5,0.1,0.8,0.2c0.5-0.5,0.9-0.8,1.3-1.3C963.6,498.1,963.9,498,963.9,497.6z"/>
<path class="st45" d="M966.9,496.9c0.2,0.2,0.6,0.4,0.9,0.6c0.5-0.2,1-0.4,0.9-0.9c-0.2-0.2-0.6-0.1-0.8-0.2
	C967.5,496.6,967.3,496.8,966.9,496.9z"/>
<g id="Layer_1">
</g>
<path class="st46" d="M1263.4,1107.2c-0.7-0.5-1.4-0.5-1.4,0.6C1262.5,1107.7,1263.1,1107.7,1263.4,1107.2z"/>
<path class="st4" d="M-250.2-481.1c0.6,0.7,1.6,1.3,0.8,3c-2.5-2.1-4.9-4-5.9-7.2C-252.3-485.5-252.1-482.1-250.2-481.1z"/>
<path class="st4" d="M-250.2-481.1c-2.6-0.4-3.3-2.9-5.1-4.2c-0.2-0.2-0.3-0.6-0.3-0.8c0-0.4-0.2-0.9-0.1-1.3l0,0
	c-0.1-0.6,0.3-0.9,0.8-0.7c1.2,0.8,2,2,2.8,3.4c0.1,1.1,1.5,1.8,1.6,3C-250.4-481.6-250.2-481.4-250.2-481.1z"/>
<path class="st47" d="M-239.8-464.8c-0.5-1-0.9-2.1-1.5-3.8c2.3,1.3,3.6,2.7,3.8,4.8C-238.4-463.5-238.8-464.9-239.8-464.8z"/>
<path class="st8" d="M-239.8-464.8c0.9-0.2,1.5,0.5,2.3,0.9c0.2,0.2,0.3,0.6,0.4,0.9c-0.2,0.2-0.5,0.4-0.7,0.6
	C-238.3-463.2-239-464-239.8-464.8z"/>
<path class="st4" d="M-250.6-481.8c-0.7-0.8-1.8-1.5-1.6-3C-251.1-484.1-250.5-483.1-250.6-481.8z"/>
<path class="st4" d="M-254.9-488.2c-0.2,0.2-0.6,0.5-0.8,0.7c-0.2-0.5-1-0.9-0.2-1.4C-255.9-489-255.1-488.4-254.9-488.2z"/>
<path class="st4" d="M-255.6-487.5c0,0.4,0.1,0.8,0.1,1.3C-255.6-486.5-255.6-487.1-255.6-487.5z"/>
<path class="st48" d="M-262.2-89.8c0,0.2-0.4,0.3-0.7,0.2c-1,0.5-2,0.8-3,1c-0.4,0-0.4-0.2-0.3-0.6c1.2-0.5,2.7-1.2,3.9-1.7
	c0.2,0.5,0.2,0.7,0.3,1C-262.1-90.1-262-90-262.2-89.8z"/>
<path class="st49" d="M-261.7-89.2c0.1,0.6-0.2,1-0.5,1.1c-1,0-0.5-0.8-0.8-1.4c0.4-0.3,0.5-0.4,0.8-0.5
	C-262-89.7-261.7-89.6-261.7-89.2z"/>
<path class="st50" d="M-266.7-88.3c-0.4,0-0.4-0.2-0.3-0.6c0.3-0.1,0.6-0.3,0.8-0.3c0.1,0.3,0.2,0.5,0.3,0.6
	C-266.1-88.5-266.5-88.3-266.7-88.3z"/>
<path class="st48" d="M-267.5-87.8c-0.4,0-0.5-0.4-0.3-0.8c0.2-0.2,0.6-0.3,0.8-0.3c0.1,0.1,0.2,0.5,0.3,0.6
	C-267-88.3-267.2-88.1-267.5-87.8z"/>
<path class="st50" d="M-268.4-87.8c-0.4,0-0.4-0.2-0.3-0.6c0.3-0.1,0.6-0.3,0.8-0.3c0.1,0.3,0.2,0.5,0.3,0.8
	C-267.9-87.9-268-87.8-268.4-87.8z"/>
<path class="st48" d="M-269.1-87.2c-0.3-0.1-0.4-0.5-0.3-0.8c0.2-0.2,0.6-0.3,0.8-0.3c0.1,0.1,0.2,0.5,0.3,0.6
	C-268.6-87.5-268.9-87.4-269.1-87.2z"/>
<path class="st50" d="M-269.9-86.9l-0.2-0.5l-0.2-0.5c0.2-0.2,0.6-0.3,0.8-0.3c0.1,0.3,0.2,0.5,0.3,0.8
	C-269.5-87.1-269.7-87.1-269.9-86.9z"/>
<path class="st51" d="M879.5-73.5c0.6,0,0.9,0.2,1.1,0.6C880.1-72.9,879.7-73.2,879.5-73.5z"/>
<path class="st22" d="M332.2-22.9c0.5-0.2,0.9-0.2,1.2,0.4C333-22.8,332.6-22.9,332.2-22.9z"/>
<g>
	<path class="st52" d="M945.8,535.4c0.2-0.2,0.4-0.3,0.6-0.5C946.2,535.3,946,535.4,945.8,535.4z"/>
	<path class="st52" d="M946.5,534.5c0.2,0,0.3,0.2,0.5,0.2c-0.1,0.1-0.2,0.2-0.4,0.1C946.5,534.7,946.5,534.6,946.5,534.5z"/>
	<path class="st53" d="M960.1,513.8c0-0.4-0.2-0.8-0.3-1.1c0-0.2,0-0.4,0.1-0.6c0.1-0.1,0.3-0.3,0.4-0.5c0.2-0.1,0.4-0.1,0.6-0.3
		c0.5-0.2,0.9-0.1,1.3,0.3c0.2,1.9,0.7,3.7,0,5.6l0,0c0.1,0.3,0.2,0.6,0.3,0.8c0,0.4-0.1,0.8-0.7,0.8c-0.3-0.6-0.5-1.3-0.9-1.8
		c-0.6-0.5-0.7-1.3-0.6-2.1C960.4,514.7,959.9,514.4,960.1,513.8z"/>
	<path class="st54" d="M960.4,511.6c-0.3-0.6-0.3-1.3-0.3-2c0-0.4-0.1-0.7-0.1-1.1c0-0.2-0.1-0.5,0-0.8c0.1-0.2,0.2-0.3,0.4-0.4
		s0.5-0.1,0.6-0.3c0.1-0.2,0.2-0.5,0.3-0.7c0.2-0.4,0.6-0.5,1.1-0.4c0.2,0.2,0.4,0.5,0.2,0.8l0,0c0,0.3-0.1,0.4,0,0.7
		c0.1,0.1,0.1,0.3,0,0.4c-0.1,0.2-0.1,0.4-0.2,0.7c-0.1,1.1-0.3,2.1-0.4,3.3c-0.5,0.1-0.9,0.1-1.3,0.2
		C960.7,511.7,960.4,511.7,960.4,511.6z"/>
	<path class="st55" d="M962,520.3c-0.1-0.1-0.1-0.3,0-0.4c0-0.3,0.2-0.3,0.4-0.4c0.1,0,0.2,0.1,0.3,0.2c0.2,0.2,0.3,0.4,0.3,0.8
		c0.1,0.1,0.1,0.3,0.1,0.4c0,0.3-0.1,0.4,0,0.7c0.1,0.4,0.3,0.7,0.4,1.1c0.9,1.2-0.2,2.5-0.1,3.8l0,0c-0.1,0.1-0.3,0.3-0.4,0.4
		c-0.1,0.1-0.4,0.1-0.5,0.2c-0.1,0-0.1-0.1-0.2-0.1c-0.1-0.2-0.1-0.2-0.1-0.4c0-0.3,0.1-0.5,0-0.7c-0.1-0.1-0.1-0.2,0-0.4
		c0-0.3,0.1-0.5,0-0.7c-0.1-0.1-0.1-0.2,0-0.4c0-0.2,0.1-0.4,0-0.7c-0.1,0-0.2-0.1-0.1-0.3c0.1-0.4-0.1-0.7-0.1-1.1c0-0.5,0-1,0-1.3
		C961.9,520.8,962,520.6,962,520.3z"/>
	<path class="st56" d="M962.6,543.5c0.3,0.3,0,0.6-0.1,0.9c-0.7,1.1-0.6,2.3-1.8,3.1c-0.3-0.3-0.5-0.6-1-0.6
		c0.4-1.4,1.7-2.4,2.1-3.8C962.1,543.2,962.4,543.3,962.6,543.5z"/>
	<path class="st8" d="M961.8,505.7c-0.3-0.2-0.4-0.4-0.6-0.7c-0.1-0.2-0.2-0.5-0.2-0.8c0.1-0.2,0.1-0.4,0.2-0.5
		c0.1-0.1,0.2-0.1,0.3-0.2h0.3c0.2,0,0.4,0,0.5-0.1s0.2-0.2,0.4-0.3c0.1-0.1,0.3-0.2,0.5-0.3s0.3-0.1,0.5-0.1
		c0.1,0.1,0.2,0.3,0.1,0.4c-1.5,0.9-0.8,2.2-1.2,3.3c-0.2-0.3-0.3-0.5-0.4-0.8C962,505.9,961.8,505.9,961.8,505.7z"/>
	<path class="st14" d="M963.3,526.7c-0.7-1.2,0.3-2.6,0.1-3.8C964.5,524.1,963.5,525.4,963.3,526.7z"/>
	<path class="st57" d="M962.3,543.1c0,0-0.1,0-0.2-0.1c-0.1-0.1-0.1-0.2,0-0.4c0-0.6,0.1-1.2,0.2-1.7c0.5-0.1,0.8,0.2,1.1,0.4
		c0.1,0.1,0.1,0.2,0.1,0.4c-0.3,0.4-0.7,0.8-0.9,1.2C962.7,543.1,962.5,543.3,962.3,543.1z"/>
	<path class="st58" d="M963,535.1c0.3,0.2,0.5,0.5,0.7,0.8c0.1,0,0.2,0.1,0.2,0.2c0.1,0.3,0.1,0.6-0.1,0.9c-0.4,0.4-0.7,0.4-0.8-0.1
		c-0.2-0.6-0.8-1-0.6-1.8C962.5,535.1,962.8,535.2,963,535.1z"/>
	<path class="st14" d="M962.5,540.4c0.8-0.4,1,0,1,0.5c0,0.2,0,0.3,0,0.4c-0.6,0.4-1,0.2-1.1-0.4
		C962.3,540.8,962.4,540.6,962.5,540.4z"/>
	<path class="st59" d="M963.9,537.6c-0.3,0.3-0.2,0.7,0,1c-0.1,0.1-0.2,0.2-0.4,0.3c-0.2-0.6-0.8-1-0.4-1.8c0.3,0,0.5,0.1,0.8,0.1
		C963.7,537.3,963.8,537.5,963.9,537.6z"/>
	<path class="st47" d="M962.7,539.5c0.7-0.2,0.6,0.5,0.9,0.7c-0.1,0.2-0.1,0.4-0.2,0.6c-0.3-0.3-0.5-0.6-1-0.5
		C962.4,540,962.5,539.7,962.7,539.5z"/>
	<path class="st60" d="M962.7,519.5c-0.1,0.3-0.2,0.4-0.5,0.3l0,0c-0.4-0.1-0.5-0.3-0.4-0.8l0,0c0.3-0.3,0.5-0.6,0.7-0.8
		C962.8,518.6,962.7,519.1,962.7,519.5z"/>
	<path class="st11" d="M962.8,520.6c-0.2-0.3-0.4-0.5-0.6-0.8c0.2-0.1,0.3-0.2,0.5-0.3C962.9,519.9,963,520.3,962.8,520.6z"/>
	<path class="st14" d="M963.4,527.4c-0.1,0-0.2,0.2-0.3,0.3c-0.1,0-0.2,0-0.3-0.1c-0.3-0.2-0.4-0.4-0.2-0.7c0.2-0.1,0.4-0.1,0.6-0.3
		C963.3,526.9,963.3,527.1,963.4,527.4z"/>
	<path class="st58" d="M963.8,536.1c-0.1,0-0.2-0.1-0.3-0.1c0,0,0,0-0.1-0.1c0-0.1,0-0.2,0-0.3c0.1-0.1,0.2-0.2,0.4-0.1
		c0.1,0.2,0.2,0.3,0.3,0.4C964,536,963.9,536.1,963.8,536.1z"/>
	<path class="st11" d="M962.9,521.7c-0.2-0.2-0.1-0.4,0-0.7C963.1,521.3,963,521.5,962.9,521.7z"/>
	<path class="st8" d="M962.5,508.4c-0.1-0.2-0.1-0.4,0.2-0.7C962.7,508,962.7,508.2,962.5,508.4z"/>
	<path class="st8" d="M962.6,507.4c-0.1-0.2-0.1-0.5,0-0.7C962.7,506.9,962.7,507.2,962.6,507.4z"/>
	<path class="st19" d="M962.7,535.1c-0.1,0-0.2,0-0.3,0.1c0-0.7,0.1-1.4,0.1-2.2l0,0c-0.5-0.9-0.3-2-0.3-2.9c0.2-0.3-0.1-0.7,0-1
		c-0.1-0.7-0.3-1.4,0-2.1c0,0.1,0.1,0.1,0.2,0.1c0.2,0.1,0.4,0.3,0.5,0.5c0,0.1,0.2,0,0.3,0c0.2,0.8,0.3,1.7,0.1,2.5
		c-0.1,0.4,0.1,0.7,0.1,1.1c0.5,1.3,0.4,2.9,0.5,4.3c-0.1,0.1-0.3,0.2-0.4,0.1C963,535.6,962.9,535.3,962.7,535.1z"/>
	<path class="st5" d="M955.7,505.2c0.2-0.5,0.4-0.8,0.8-1.1c0.3-0.3,0.6-0.3,0.9-0.1c0.1,0.2,0.1,0.4,0.3,0.5
		c0.1,0.4,0.1,0.8-0.3,1.3c-0.1,0.1-0.2,0.3-0.1,0.4c0.1,0.2,0.4,0.3,0.5,0.6c0.3,0.5,0.2,0.9,0,1.4c-0.2,0.2-0.4,0.3-0.6,0.3
		c-0.4-0.5-0.6-1-0.9-1.5C955.7,506.7,955.6,506.1,955.7,505.2z"/>
	<path class="st61" d="M954.3,503.6c0-0.3,0.1-0.4,0.4-0.4c0.5,0,0.8,0.3,1,0.6c0.1,0.2,0.1,0.4,0.3,0.5c0.2,0.3,0.1,0.5,0.1,0.9
		c-0.2,0.7,0,1.3,0.4,1.9C954.7,506.5,955,504.8,954.3,503.6z"/>
	<path class="st62" d="M959.1,512.9c-0.5-0.9-1-1.7-1.1-2.7c0.5-0.1,0.9,0.1,1.3,0.4c0.3,0.2,0.4,0.4,0.6,0.7c0.1,0.3,0.1,0.6,0,1
		c0.1,0.2,0.1,0.3,0.2,0.5C959.8,513.2,959.4,513,959.1,512.9z"/>
	<path class="st63" d="M957.3,508.6l0.2-0.1l0.2-0.1c1.1,0.4,1.6,1.1,1.3,2.3c-0.4,0-0.7-0.4-1-0.6
		C957.7,509.6,957.4,509.2,957.3,508.6z"/>
	<path class="st24" d="M959.5,513.7c0.4-0.3,0.7-0.4,0.7,0.2c0.1,0.4,0.6,0.8,0.1,1.4C959.6,514.9,959.6,514.2,959.5,513.7z"/>
	<path class="st14" d="M959.1,512.7c0.4,0,0.7,0,1,0c0.1,0.4,0.3,0.7,0.1,1.1c-0.3,0-0.5-0.1-0.7-0.2
		C959.3,513.3,959.2,513.1,959.1,512.7z"/>
	<path class="st11" d="M961.8,520c-0.3-0.3-0.3-0.7-0.1-1.1c0.1,0.2,0.3,0.5,0.4,0.8C962.1,519.8,962,520,961.8,520z"/>
	<path class="st14" d="M962,522.6c0.3,0.3,0.3,0.7,0.1,1.1C961.8,523.3,961.7,522.9,962,522.6z"/>
	<path class="st40" d="M962.2,529.1c0.2,0.3,0.2,0.7,0,1C961.9,529.8,962,529.5,962.2,529.1z"/>
	<path class="st57" d="M962.4,543.1c0.1,0.1,0.1,0.2,0,0.4l0,0c-0.2,0-0.5-0.1-0.7-0.2c0-0.2,0-0.5,0.3-0.6c0.1,0.1,0.1,0.2,0.1,0.4
		C962.3,543,962.3,543.1,962.4,543.1z"/>
	<path class="st14" d="M962.1,526c0.1,0.2,0.1,0.5,0,0.7C961.8,526.5,961.9,526.2,962.1,526z"/>
	<path class="st14" d="M962,524.8c0.1,0.2,0.1,0.5,0,0.7C961.9,525.4,962,525.1,962,524.8z"/>
	<path class="st14" d="M962.1,523.9c0.2,0.2,0.1,0.4,0,0.7C961.9,524.4,961.9,524.1,962.1,523.9z"/>
	<path class="st11" d="M962,520.3c0.1,0.2,0.1,0.5,0,0.7C961.7,520.8,961.7,520.6,962,520.3z"/>
	<path class="st64" d="M960.3,512c-0.4-0.1-0.5-0.5-0.7-0.8c-0.1-0.4-0.5-0.9,0.3-1.1c0.4,0.3,0.8,0.7,0.5,1.2
		c0.1,0.1,0.2,0.3,0.1,0.4C960.6,512,960.4,512,960.3,512z"/>
	<path class="st65" d="M959.9,512.2c-0.1-0.3-0.2-0.6-0.4-0.9c0.1,0,0.2-0.1,0.3-0.2c0.2,0.3,0.4,0.5,0.6,0.8
		C960.2,512.1,960,512.2,959.9,512.2z"/>
	<path class="st66" d="M962.1,517.4c-0.2-0.1-0.7,0.1-0.5-0.5C961.8,517.1,961.9,517.2,962.1,517.4L962.1,517.4z"/>
	<path class="st56" d="M961.6,506.8c-0.1,0.2-0.1,0.4-0.2,0.6c-0.4,0.8-0.5,0.1-0.7,0c-0.4-0.1-0.9,0-1-0.5c0.1-0.2,0.1-0.4,0.3-0.6
		c0.3-0.3,0.7-0.5,1.1-0.6c0.3-0.1,0.6-0.1,0.9-0.1c0.1,0.1,0.2,0.3,0.1,0.4C961.8,506.1,961.5,506.4,961.6,506.8z"/>
	<path class="st8" d="M960.2,507.5c-0.1,0.4,0,0.7-0.3,0.9c-0.2,0.1-0.4,0-0.6-0.1c-0.4-0.6-0.4-1.2,0.6-1.5c0.3,0.2,0.7,0.4,1,0.6
		C960.5,507.4,960.3,507.5,960.2,507.5z"/>
	<path class="st67" d="M959.6,509.9c0.1-0.2,0.2-0.3,0.4-0.4s0.4-0.1,0.6,0c-0.2,0.7,0.3,1.3,0,2.1c-0.1-0.4-0.4-0.8-0.7-1.2
		C959.6,510.2,959.6,510,959.6,509.9z"/>
	<path class="st21" d="M959.6,509.4c-0.2-0.3-0.2-0.6-0.1-0.9c0.1-0.1,0.2-0.3,0.3-0.4c0.3,0,0.5,0,0.6,0.2c0,0.4,0,0.7,0.1,1.1
		c-0.1,0.1-0.3,0.2-0.4,0.1C960,509.6,959.8,509.5,959.6,509.4z"/>
	<path class="st68" d="M960.1,507.6c0.1,0.2,0.3,0.5,0.4,0.7c-0.2,0-0.4-0.1-0.6-0.2C959.8,507.9,959.9,507.7,960.1,507.6z"/>
	<path class="st8" d="M961.3,507.5c0.1-0.2,0.1-0.4,0.2-0.6C961.4,506.9,961.4,507.2,961.3,507.5z"/>
	<path class="st40" d="M963.4,531.3c-0.3-0.3-0.4-0.7-0.1-1.1C963.5,530.5,963.5,530.8,963.4,531.3z"/>
	<path class="st69" d="M962.7,526.8c0.1,0.3,0.1,0.5,0.2,0.8c-0.3,0-0.5-0.2-0.5-0.5C962.4,527,962.5,526.9,962.7,526.8z"/>
	<path class="st70" d="M963,503.3c-0.2,0.1-0.4,0.1-0.5,0.3c-0.2,0.2-0.3,0.3-0.4,0.4c-0.1,0-0.2,0-0.3,0c-0.2-0.1-0.3-0.2-0.5-0.2
		l0,0c-0.4-0.2-0.3-0.4-0.2-0.7c0.2-0.3,0.3-0.6,0.5-0.7c0.2-0.2,0.5-0.3,0.8-0.3l0.2-0.1l0.1-0.2c0.1-0.4,0.5-0.6,0.8-0.7
		c0.2-0.1,0.4-0.1,0.6-0.2c0.6-0.1,1.1-0.1,1.5,0.4c0.1,0.2,0.1,0.4,0.1,0.6c-0.3,0.2-0.6,0.4-0.8,0.6c-0.5,0.3-1,0.5-1.4,0.8
		C963.4,503.1,963.2,503.2,963,503.3z"/>
	<path class="st51" d="M960.4,505.6c-0.1-0.3-0.1-0.6,0.3-0.9c0.4-0.1,0.6,0,0.9,0.1c0.1,0.2,0.3,0.5,0.4,0.8
		c-0.3,0.2-0.6,0.4-0.9,0.5C960.7,505.9,960.5,505.8,960.4,505.6z"/>
	<path class="st71" d="M961.1,504c-0.1,0-0.2-0.1-0.3-0.1c-0.1-0.1-0.1-0.2-0.2-0.3c0-0.4,0.2-0.7,0.5-0.9c0.4-0.1,0.7-0.1,0.7,0.4
		c-0.1,0.2-0.2,0.5-0.2,0.7C961.3,503.8,961.3,503.9,961.1,504z"/>
	<path class="st72" d="M961.2,503.8L961.2,503.8c0.1,0.3,0.3,0.6,0.4,0.9c-0.3-0.1-0.5-0.1-0.8-0.2
		C960.7,504.2,960.6,503.9,961.2,503.8z"/>
	<path class="st73" d="M962,503.7h0.3l0.1,0.1c0,0.3-0.2,0.3-0.4,0.1L962,503.7z"/>
	<path class="st71" d="M961.5,503.7c0.2,0,0.5,0,0.7,0.2c-0.1,0.1-0.2,0.1-0.3,0.2C961.7,504,961.6,503.8,961.5,503.7z"/>
	<path class="st73" d="M962.6,503.4c0-0.3,0.2-0.4,0.5-0.3C962.9,503.2,962.7,503.3,962.6,503.4z"/>
	<path class="st56" d="M962.7,542.9c0.1,0.3,0,0.5-0.2,0.7c-0.1-0.1-0.2-0.3-0.1-0.4C962.4,543,962.6,542.9,962.7,542.9z"/>
	<path class="st74" d="M963.5,536c-0.6-0.1-0.8-0.4-0.8-0.9c0.4,0,0.5,0.3,0.7,0.5C963.4,535.8,963.4,535.9,963.5,536z"/>
	<path class="st75" d="M962.5,533.1c0.2,0,0.7-0.2,0.5,0.4C962.8,533.3,962.7,533.2,962.5,533.1L962.5,533.1z"/>
	<path class="st76" d="M959.7,509.8c0,0.2,0.1,0.3,0.1,0.4c-0.2,0.4-0.2,0.7-0.1,1.1c-0.1,0-0.2,0.1-0.3,0.2
		c-0.2-0.2-0.3-0.4-0.5-0.6c-0.4-0.8-0.8-1.6-1.3-2.3c0.1-0.5,0-1-0.2-1.5c-0.2-0.1-0.3-0.2-0.4-0.4c-0.1-0.2,0-0.4,0.2-0.4
		c0.2-0.5-0.3-1,0.4-1.5c0.2-0.2,0.4-0.3,0.7-0.4c1.8-0.1,2,1,1.5,2.4l0,0c-0.4,0.6-0.4,1.2-0.1,1.8c0.1,0.2,0.2,0.5,0.3,0.8
		C959.9,509.4,959.8,509.5,959.7,509.8z"/>
	<path class="st77" d="M957.4,504.4c-0.1-0.6-0.4-1.2,0.1-1.8c0.2-0.2,0.3-0.4,0.5-0.5c1-0.6,1.9-0.9,3-0.6c0.2,0,0.4,0.2,0.5,0.3
		c0.1,0.3-0.1,0.6-0.3,0.9c0,0.3-0.2,0.5-0.2,0.7c-0.1,0.5-0.5,0.6-1,0.6s-0.9-0.1-1.4,0.3c-0.1,0.1-0.3,0.2-0.5,0.2
		c-0.1,0.1-0.3,0.1-0.5,0.1C957.5,504.6,957.4,504.4,957.4,504.4z"/>
	<path class="st78" d="M956.6,504.2c-0.1,0-0.2,0-0.3-0.1c-0.3-0.2-0.5-0.4-0.5-0.6c-0.2-0.6-0.4-1.2-0.3-1.8
		c0.1-0.4,0.2-0.6,0.5-0.7c0.4-0.1,0.7-0.1,1,0c0.2,0.1,0.4,0.2,0.5,0.4c0.1,0.4,0.4,0.7,0.2,1.2c-0.1,0.6,0,1.3-0.3,1.8
		C957.1,504.3,956.9,504.2,956.6,504.2z"/>
	<path class="st79" d="M956.7,504.3L956.7,504.3c0,0.4-0.3,0.7-0.6,0.8c-0.2-0.3-0.3-0.5-0.4-0.8C956,503.8,956.2,504.2,956.7,504.3
		z"/>
	<path class="st80" d="M956.8,506.7c0-0.2-0.1-0.4-0.1-0.5c0.1-0.2,0.3-0.1,0.5-0.1c0.1,0.1,0.1,0.3,0,0.4
		C957.3,506.7,957.1,506.8,956.8,506.7z"/>
	<path class="st63" d="M957.4,506.9c-0.2,0-0.3-0.1-0.5-0.2c0.1-0.1,0.3-0.2,0.4-0.1C957.3,506.7,957.4,506.9,957.4,506.9z"/>
	<path class="st32" d="M955.3,503.8c-0.3-0.1-0.6-0.3-0.9-0.5c-0.6-1.1-0.6-1.1-2.4-0.1c-0.1,0.2-0.3,0.3-0.5,0.3
		c-0.2-0.1-0.2-0.3-0.2-0.5c0.1-0.4,0.3-0.8,0.7-1.1c0.2-0.2,0.4-0.3,0.6-0.4c0.9-0.4,1.8-0.1,2.6,0c0.2-0.1,0.4,0,0.5,0.2
		c0.2,0.6,0.2,1.2,0.3,1.8C956.1,503.9,955.7,504,955.3,503.8z"/>
	<path class="st34" d="M956.6,504.2c-0.3,0-0.7,0.1-1,0c-0.1-0.2-0.2-0.3-0.3-0.5c0.2-0.1,0.5-0.2,0.7-0.3
		C956.3,503.8,956.5,504,956.6,504.2z"/>
	<path class="st8" d="M959.2,503.6c0.8,0.2,1,1,1.4,1.4c0.2,0.3,0.3,0.5,0.4,0.8c-0.5,0.3-0.9,0.5-1.4,0.8c-0.2-0.9,0.1-2.2-1.7-2
		c0.1-0.1,0.2-0.3,0.3-0.4C958.5,504,958.9,503.9,959.2,503.6z"/>
	<path class="st54" d="M960.2,509.5c-0.1,0.1-0.2,0.2-0.4,0.3c-0.2-0.2-0.1-0.4,0-0.7C959.9,509.4,960,509.4,960.2,509.5z"/>
	<path class="st73" d="M961.7,501.9c0.2-0.4,0.5-0.6,0.9-0.8c0.5-0.2,1-0.3,1.1,0.4c-0.4,0.1-0.7,0.5-0.7,0.9l0,0
		c-0.3,0-0.8,0.1-1.1,0.1C961.8,502.2,961.6,502.1,961.7,501.9z"/>
	<path class="st81" d="M962.9,500.6c0.2-0.3,0.6-0.4,0.9-0.5c0.2,0,0.4,0.1,0.5,0.3c0.2,0.1,0.1,0.4,0.1,0.6l0.1,0.2
		c-0.2,0.1-0.4,0.1-0.5,0.2c-0.4-0.2-0.8-0.1-1.1,0C962.3,501.2,962.6,500.9,962.9,500.6z"/>
	<path class="st82" d="M961.8,503c-0.2,0-0.4-0.1-0.6-0.2c0.1-0.2,0.2-0.5,0.2-0.7l0.2-0.2h0.2c0.1,0.1,0.2,0.2,0.3,0.3
		C962,502.5,961.9,502.7,961.8,503z"/>
	<path class="st83" d="M959.8,503.5c0.4,0.2,0.7,0,1.1-0.1c0.1,0.2,0.2,0.3,0.1,0.4c-0.3,0.2-0.3,0.4-0.3,0.7c0,0.3-0.1,0.4-0.2,0.7
		c-1,0-0.9-0.8-1.3-1.3C959.4,503.6,959.5,503.5,959.8,503.5z"/>
	<path class="st5" d="M957.9,502.1c-0.3-0.8,0.4-1.3,0.7-1.9c0.1,0,0.1-0.1,0.1-0.2c0.1-0.1,0.2-0.3,0.3-0.5
		c0.1-0.1,0.3-0.3,0.5-0.4c0.6-0.3,1.2-0.4,1.8-0.1c0.4,0.4,0.2,0.8,0.2,1.3c-0.1,0.2-0.1,0.4-0.1,0.5c0,0.3-0.1,0.5-0.2,0.8
		c0,0.1-0.1,0.1-0.1,0.2c-1.1,0.1-2.1,0.4-3.2,0.7C958,502.4,958,502.4,957.9,502.1z"/>
	<path class="st79" d="M961,501.8v-0.2c0.2-0.4-0.1-0.6,0-1l0,0c0.1-0.2,0.2-0.3,0.4-0.4c0.4-0.1,0.8-0.2,1.2-0.1
		c0.2,0.1,0.2,0.3,0.3,0.5c-0.1,0.2-0.2,0.5-0.2,0.7c-0.3,0.2-0.6,0.5-1,0.6c-0.1,0-0.2,0.1-0.4,0.1
		C961.3,502,961.2,501.9,961,501.8z"/>
	<path class="st5" d="M958.3,504.3c0-1.3,0.7-0.9,1.4-0.8c-0.1,0.1-0.3,0.2-0.4,0.1C959,504,958.6,504.1,958.3,504.3z"/>
	<path class="st5" d="M957.5,501.2c0.4,0.2,0.4,0.6,0.6,1c0,0.1-0.1,0.2-0.1,0.3c-0.1,0.1-0.2,0.1-0.4,0.1c-0.3-0.3-0.5-0.7-0.6-1.1
		C957,501.3,957.3,501.2,957.5,501.2z"/>
	<path class="st84" d="M953.2,501c0-0.3,0.2-0.6,0.4-0.9c0.5-0.5,0.9-1.2,1.6-1.5c0.4,0,0.8,0.2,1.1,0.4c0.1,0.2,0.1,0.4,0.2,0.6
		c-0.1,0.3-0.2,0.6-0.3,0.9c-0.1,0.2-0.2,0.3-0.3,0.5c0,0.3-0.1,0.5-0.2,0.8c-0.2,0-0.3,0-0.4,0.1
		C954.7,501.4,953.8,501.7,953.2,501z"/>
	<path class="st85" d="M956.4,499.6c0-0.1-0.2-0.1-0.2-0.3c0-0.1,0-0.2,0-0.3c0.1-0.2,0.1-0.4,0.3-0.6c0.1,0,0.2-0.1,0.3-0.2
		c0.2-0.1,0.4,0,0.6,0c0.4,0.1,0.7,0.5,1.2,0.5c0.3,0,0.4,0.1,0.6,0.1c0.2,0.1,0.2,0.3,0.3,0.5l-0.2,0.2c0,0.3-0.1,0.4-0.2,0.6l0,0
		c-0.3,0.5-0.7,0.5-1.1,0.6c-0.5,0-1,0-1.4,0.5c-0.2,0-0.5-0.1-0.7-0.2c-0.1-0.2-0.2-0.3-0.1-0.4
		C955.9,500.3,956.5,500.1,956.4,499.6z"/>
	<path class="st86" d="M957.9,500.8c0,0.1-0.1,0.1-0.1,0.2c-0.2,0.2-0.3,0.3-0.5,0.4c-0.1,0.1-0.3,0.2-0.4,0.1
		c-0.1-0.1-0.1-0.2-0.3-0.3c0.1-0.9,0.6-1,1.4-0.8C958,500.5,958,500.7,957.9,500.8z"/>
	<path class="st87" d="M952.5,502c-0.1-0.1-0.1-0.2-0.1-0.2c0-0.2,0-0.4,0.1-0.5s0.3-0.3,0.4-0.3c0.1,0,0.2,0,0.3,0
		c0.8,0.3,1.9-0.4,2.2,0.9C954.4,502.3,953.4,501.8,952.5,502z"/>
	<path class="st88" d="M951.4,502.6c-0.4,0-0.8-0.2-1-0.6c-0.1-0.7,0.5-0.9,1-1c0.3,0,0.6,0,0.9,0.3c0.1,0.2,0.1,0.4,0.1,0.6v0.2
		c-0.1,0.1-0.3,0.2-0.5,0.3C951.9,502.4,951.7,502.6,951.4,502.6z"/>
	<path class="st71" d="M951.3,503.1c-0.1-0.1-0.2-0.1-0.3-0.1c0-0.1,0-0.2-0.1-0.3c0.1-0.2,0.3-0.3,0.5-0.3s0.3,0,0.5-0.1
		C952,502.7,951.7,502.9,951.3,503.1z"/>
	<path class="st61" d="M951.2,503L951.2,503c0.1,0.1,0.2,0.2,0.3,0.3c-0.2,0.2-0.5,0.2-0.7,0.1C951,503.1,951.1,503.1,951.2,503z"/>
	<path class="st89" d="M963.7,500.3c-0.3,0.2-0.6,0.3-0.8,0.4c-0.1-0.1-0.2-0.2-0.3-0.3c-0.2,0-0.3-0.1-0.3-0.3
		c0.1-0.2,0.2-0.3,0.4-0.4c0.1,0,0.2-0.1,0.3-0.1c0.3-0.1,0.6-0.1,0.9,0c0.1,0,0.1,0.1,0.2,0.1c0.1,0.1,0.1,0.2,0.1,0.4
		C964.1,500.1,963.9,500.3,963.7,500.3z"/>
	<path class="st90" d="M957.8,500.6l0.2-0.2v-0.1c0.4-0.1,0.8-0.1,1.2-0.1c0.1,0.4,0,0.9-0.5,1c-0.5,0.2-0.3,0.7-0.5,0.9
		c-0.3-0.3-0.5-0.6-0.8-0.9c0.1-0.2,0.2-0.5,0.2-0.7L957.8,500.6z"/>
	<path class="st2" d="M961.7,500.5c-0.1,0.1-0.3,0.2-0.5,0.3c-0.5-0.6,0-1.1,0.2-1.7c0-0.2,0.1-0.3,0.3-0.4c0.2,0,0.4,0,0.5,0.1
		c0.2,0.1,0.4,0.2,0.6,0.4c0.1,0.2,0.2,0.3,0.1,0.5c-0.1,0.1-0.2,0.3-0.3,0.4C962.3,500.4,962.1,500.6,961.7,500.5z"/>
	<path class="st30" d="M959.5,499.6c-0.1-0.1-0.2-0.1-0.3-0.2c0-0.6,0.4-0.8,0.8-0.9c0.3-0.2,0.6-0.3,1-0.3c0.2-0.1,0.4-0.1,0.6-0.1
		c0.2,0,0.4,0,0.6,0.1c0.2,0.3,0.1,0.6-0.3,0.7c-0.1,0.1-0.3,0.2-0.4,0.1C960.8,499.3,960.2,499.5,959.5,499.6z"/>
	<path class="st91" d="M961.2,500.8c0.1,0.3,0.3,0.6,0,1C961,501.5,960.9,501,961.2,500.8z"/>
	<path class="st92" d="M959.1,500.4c-0.2-0.3-0.1-0.4,0.2-0.6C959.5,500,959.5,500.2,959.1,500.4z"/>
	<path class="st17" d="M962.7,500.4c-0.3,0.2-0.7,0.3-1.1,0.1c0.3-0.2,0.6-0.3,1-0.5C962.6,500.2,962.7,500.3,962.7,500.4z"/>
	<path class="st93" d="M953.4,500.6c-0.2,0-0.4,0.1-0.6,0.1c-0.2,0-0.4-0.1-0.5-0.2c-0.2-0.1-0.2-0.3-0.3-0.5
		c0.1-0.2,0.1-0.4,0.2-0.5c0.2-0.3,0.2-0.7,0-1c0-0.2,0-0.2,0-0.3c0.1,0,0.1-0.1,0.1-0.2c0.1-0.1,0.3-0.3,0.5-0.4s0.4-0.1,0.6-0.2
		c0.3,0,0.6,0,0.9,0c0.2,0.1,0.5,0.2,0.8,0.3c0.2,0.2,0.3,0.4,0.4,0.7c0,0.1-0.1,0.2-0.1,0.3c-0.6,0.5-0.5,1.2-1.5,1.7
		C953.8,500.6,953.5,500.6,953.4,500.6z"/>
	<path class="st94" d="M955.4,498.8c0-0.4,0.3-0.6,0.8-0.7c0.2,0,0.4,0.2,0.3,0.4v0.2c-0.1,0.1-0.2,0.3-0.2,0.5l-0.2,0.2
		C955.8,499.4,955.6,499.1,955.4,498.8L955.4,498.8z"/>
	<path class="st95" d="M953.2,501L953.2,501c-0.1,0-0.1,0-0.3,0c0-0.1-0.1-0.2,0-0.3c0.4-0.1,0.8-0.4,1.1-0.1
		C953.7,500.7,953.5,500.8,953.2,501z"/>
	<path class="st30" d="M956.4,499.6c0.1,0.5-0.3,0.7-0.6,1C955.7,500.2,956.1,500,956.4,499.6z"/>
	<path class="st96" d="M958.6,499.7c-1.2-0.1-0.1-1.2-0.5-1.6c0.1-0.5,0.4-0.9,0.7-1.1c0.7-0.5,1.5-0.7,2.3-0.8
		c0.6,0,1.1-0.1,1.6-0.2c0.2-0.1,0.4-0.1,0.6-0.2c0.5-0.1,1-0.3,1.4-0.5c0.2-0.1,0.4-0.1,0.6-0.2c0.4-0.1,0.7-0.1,1.2-0.1
		c0.2,0,0.4,0,0.6,0.1c0.2,0.1,0.3,0.1,0.5,0.3c0.1,0.1,0.1,0.3,0.1,0.5c-0.1,0.2-0.2,0.3-0.4,0.4s-0.4,0.1-0.6,0.3
		c-0.3,0-0.7,0.2-1.1,0.3c-0.2,0-0.4,0.1-0.5,0.2c-0.5,0.3-0.9,0.4-1.4,0.3c-0.1-0.1-0.3-0.1-0.5-0.1c-0.2-0.1-0.3-0.1-0.3,0.1
		c0.1-0.1,0.2-0.1,0.3,0c0.1,0.2,0.1,0.3,0,0.5c-0.1,0.1-0.2,0.3-0.4,0.4c-0.2,0-0.4,0.1-0.6,0.1c-0.4-0.2-0.7-0.2-0.9,0.2
		c-0.1,0.1-0.2,0.2-0.4,0.3c-0.2,0-0.3-0.1-0.4-0.3s-0.2-0.3-0.3-0.3c0,0.1,0.1,0.2,0.2,0.3c0,0.1,0,0.2,0,0.3
		c-0.5,0.3-0.9,0.5-1.4,0.8C959.1,499.4,958.8,499.4,958.6,499.7z"/>
	<path class="st30" d="M956.9,498.5c0-0.2,0.1-0.4,0.3-0.6c0.5-0.3,0.9-0.2,1.3,0c0.8,0.3-0.4,1.1,0.3,1.4
		C957.8,499.8,957.4,499.1,956.9,498.5z"/>
	<path class="st97" d="M956.3,499.2c-0.1-0.2-0.1-0.4,0.2-0.5C956.5,499,956.4,499,956.3,499.2z"/>
	<path class="st30" d="M956.9,498.4l-0.1,0.2c-0.1,0-0.2,0.1-0.4,0.1c-0.1-0.1-0.1-0.2-0.1-0.4C956.6,497.9,956.8,498,956.9,498.4z"
		/>
	<path class="st98" d="M958,500.5c-0.1,0.3-0.3,0.3-0.4,0.1C957.7,500.7,957.8,500.6,958,500.5z"/>
	<path class="st84" d="M952.7,501.2c-0.1,0.3-0.2,0.4-0.5,0.3c-0.2,0-0.5,0-0.7-0.2c-0.3,0-0.3-0.1-0.4-0.3c0.1-0.2,0.2-0.4,0.4-0.5
		c0.2,0,0.4-0.1,0.6,0l0,0c0.2,0.1,0.4,0.1,0.7,0.2l0,0c0.1,0.1,0.1,0.2,0.1,0.4C953,501.1,952.8,501.2,952.7,501.2z"/>
	<path class="st61" d="M952.4,501.8c-0.1-0.1-0.1-0.2-0.1-0.4c0.1-0.1,0.3-0.2,0.5-0.3C952.6,501.4,952.5,501.7,952.4,501.8z"/>
	<path class="st99" d="M964.8,497.1c0.3,0,0.4,0.2,0.4,0.4c-0.1,0.1-0.3,0.3-0.4,0.4c-0.1,0,0,0.1-0.1,0.2c0,0.2,0,0.2,0.2,0.3
		c0.1,0.1,0.2,0.2,0.3,0.3c-0.1,0.1-0.3,0.2-0.5,0.3c-0.1,0.2-0.3,0.3-0.5,0.4c-0.4,0.1-0.8,0.1-1.2-0.1c-0.3-0.1-0.7,0.1-0.9,0.1
		c-0.1-0.1-0.1-0.2-0.1-0.4c0-0.3,0.1-0.4,0.2-0.7c0-0.3,0.2-0.3,0.4-0.4c0.1,0.1,0.3,0.1,0.4,0C963.6,497.7,964.1,497,964.8,497.1z
		"/>
	<path class="st67" d="M948.7,485.9c0,0.7,0.7,1.2,0.4,1.8c-1.1-0.1-1.4-1.1-1.8-1.8c-0.2-0.1-0.3-0.3-0.4-0.5
		c-0.4-0.3-0.8-0.4-1.2-0.1c-0.1,0.1-0.1,0.3-0.1,0.4c0,0.2,0,0.4,0,0.5c-0.1,0.2-0.1,0.4-0.2,0.5c-0.2,0.2-0.4,0.1-0.6,0.2
		c-0.4-0.1-0.8-0.3-1-0.6c-0.2-0.3-0.2-0.6-0.2-0.9c0.8-1.2-0.3-2.1,0-3.2c0.4,0,0.7,0.2,0.9,0.5c0.1,0.2,0.3,0.4,0.6,0.4
		c0.7-0.5-0.1-0.8,0-1.3c-0.2-0.3-0.4-0.6-0.5-0.9c-0.1-0.1-0.2-0.3-0.1-0.5c0.2-0.4,0.3-0.8,0.5-1.2c0.3,0.1,0.5,0.4,0.7,0.5
		c0.4,0.8,0.8,1.6,1.3,2.3C946.9,483.7,948.3,484.6,948.7,485.9z"/>
	<path class="st100" d="M941.4,449.6c0.1-0.2,0.3-0.4,0.5-0.5c0.5-0.1,0.8,0.1,1.2,0.2c0.3,0.2,0.6,0.4,0.8,0.6
		c0.1,0.1,0.3,0.2,0.4,0.3c0.3,0.2,0.5,0.4,0.7,0.5c0.1,0.2,0.2,0.5,0.1,0.8c-0.3,0.4-0.9,0.5-1.3,0.8c-0.6,0.8-0.8,2.5-2.6,1.7
		c-0.5-0.7-1-1.2,0-2.1C941.3,451.3,941,450.4,941.4,449.6z"/>
	<path class="st14" d="M946.2,487.4c0.2,0,0.3,0.1,0.5,0.3c0.2,0.2,0.3,0.4,0.4,0.7c0.1,0.3,0.2,0.7,0.3,1c0,0.2,0,0.4,0,0.5
		c0,0.3-0.2,0.5-0.4,0.7l-0.2,0.1l0.1,0.2c0.1,0.1,0.2,0.3,0.3,0.4c0,0.1,0,0.2,0,0.2c0,0.2,0.1,0.3,0.1,0.5
		c0.1,0.1,0.1,0.3,0.1,0.5s0,0.3-0.1,0.5c-0.1,0.1-0.3,0.3-0.5,0.3s-0.3-0.1-0.4-0.2c-0.1-0.3,0.3-0.2,0-0.2
		c-0.1,0.1-0.2,0.3-0.3,0.4s-0.3,0.1-0.5,0.1c-0.1-0.3-0.2-0.6-0.4-0.9c0-0.3-0.3-0.5-0.5-0.7c0.7-1.4,1.4-2.6,0.8-4
		C945.9,487.4,945.9,487.3,946.2,487.4z"/>
	<path class="st101" d="M943.1,471.4c-1.6-1.1-0.7-2.6-0.5-4c0.6-0.1,0.9,0.3,1.2,0.6c0.1,0.8,0.4,1.6,0.1,2.5l0,0
		c0.3,0.4,0.5,1,0.4,1.5C943.7,472,943.4,471.7,943.1,471.4z"/>
	<path class="st102" d="M944.2,452.5c0.2,0.2,0.4,0.4,0.5,0.7c0,0.4-0.2,0.7-0.2,1c-0.4,0.6-0.8,1.2-1.4,1.6
		c-0.6,0.2-1.3,0.7-1.3-0.3c0.3-0.6-0.2-0.9-0.3-1.3c1.1-0.1,1.9-0.2,1.5-1.7c-0.2-0.9,0.5-0.7,0.9-0.2
		C943.9,452.4,944,452.5,944.2,452.5z"/>
	<path class="st68" d="M942.6,467c0.1-1.2,1-1.3,1.9-1.2c0.2,0,0.4,0,0.6,0c0.4,0,0.7,0,0.9,0.1c0.3,0.1,0.8,0.1,0.9,0.5
		c0.1,0.4-0.2,0.5-0.5,0.6s-0.5,0.2-0.8,0.3c-0.4,0-0.8,0.3-1.2,0.2c-0.2,0.1-0.5,0.3-0.7,0.4c-0.5,0.1-0.8-0.3-1.2-0.6
		C942.6,467.3,942.5,467.1,942.6,467z"/>
	<path class="st103" d="M944.4,472.2c-0.1,0.4,0,0.7,0.5,0.7l0,0c0.3,0.4,0.6,0.8,0.7,1.3l0,0c0,0.7,0.1,1.4,0,2.1l0,0
		c-1.2,0.4-1.2-0.5-1.3-1c-0.2-0.9-0.6-1.7-0.7-2.6c-0.1-0.1-0.1-0.2-0.1-0.4c0-0.4-0.1-0.7-0.1-1.1l0,0c0.5,0,0.7,0.4,1.1,0.7
		C944.4,472,944.4,472.2,944.4,472.2z"/>
	<path class="st27" d="M943.8,481.1c0.2-0.1,0.5,0,0.7,0s0.3,0.2,0.3,0.3l-0.2,0.2l0.2-0.1l0.2-0.1h0.2c0.1,0.2,0.3,0.5,0.4,0.8
		c0.7,0.9,0.3,1.4-0.8,1.7c-0.2,0-0.4-0.1-0.6-0.1c-0.3-0.4-0.5-0.9-1-1.3C943.3,482,943.7,481.6,943.8,481.1z"/>
	<path class="st104" d="M942.3,465.7c0.3-0.6-0.2-0.9-0.2-1.5h0.1c0.4-0.6,1-0.6,1.5-0.6c0.2,0,0.4,0.2,0.5,0.4
		c0.1,0.4,0.2,0.9,0.5,1.3c0.1,0.1,0.2,0.3,0.2,0.5c0,0.3,0,0.4-0.1,0.6c-0.8-0.1-1.6-0.4-2,0.5
		C942.3,466.6,942.2,466.1,942.3,465.7z"/>
	<path class="st105" d="M941.4,460.7L941.4,460.7c0.6-0.5-0.9-1.5,0.6-1.9c0.3,0.1,0.5,0.1,0.6,0.3c0.3,0.7,0.7,1.5,0.8,2.3
		c0,0.5,0,1-0.5,1.5c-0.9,0.5-1.2-0.1-1.4-0.7c-0.1-0.1-0.2-0.1-0.1-0.3C941.7,461.5,941.4,461.1,941.4,460.7z"/>
	<path class="st106" d="M943.8,455.6c0.2,0.3,0.3,0.6,0.2,1c-0.5,0.9-1.2,1.5-2.2,0.8c-0.1-0.4-0.4-0.8-0.5-1.3
		c-0.1-0.1-0.1-0.2,0-0.3c0.1-0.2,0.2-0.3,0.4-0.3l0,0c0.5,0.4,1,0,1.5-0.1C943.4,455.5,943.6,455.5,943.8,455.6z"/>
	<path class="st43" d="M945.2,477.3c-0.5,0.3-0.6-0.2-0.7-0.5c-0.1-0.4-0.4-0.8-0.5-1.2c-0.2-1-0.2-1.9-0.5-2.8
		c0.5,0.6,0.8,1.3,0.9,2.2c0.1,0.6,0.3,1.3,1.1,1.4C945.6,476.8,945.5,477.2,945.2,477.3z"/>
	<path class="st75" d="M940.7,448.8c0.1-0.1,0.3-0.2,0.5-0.3c0.1,0,0.2,0,0.3,0.1c0,0.1,0.2,0.1,0.2,0.2c0,0.2,0,0.4,0,0.6
		c0.2,0.9-0.1,1.9-0.3,2.8C940.7,451.2,940.9,450,940.7,448.8z"/>
	<path class="st60" d="M947,494.2c-0.1,0.1-0.3,0.3-0.5,0.4c-0.6,0.3-1.2,0.7-1.9,0.7c-0.2-0.1-0.3-0.2-0.3-0.5
		c0.4-0.5,0.8-1.2,1.3-1.8c0.2-0.1,0.3-0.2,0.5-0.3c0.1-0.2,0.2-0.3,0.4-0.1c0.1,0.1,0.2,0.3,0.1,0.4
		C947.2,493.3,947.2,493.7,947,494.2z"/>
	<path class="st107" d="M941.1,458c0.6-0.1,1,0,1.5,0.2c0.1,0.3,0.1,0.5-0.3,0.7c-1,0.5-0.2,1.4-0.8,1.9
		C941,460.1,941,459.1,941.1,458z"/>
	<path class="st105" d="M941.2,456.3c0.1,0.4,0.6,0.8,0.7,1.3c0.4,0.1,0.7,0.4,0.4,0.8c-0.6,0.4-1,0.2-1.3-0.3
		C941.2,457.4,941.2,456.8,941.2,456.3z"/>
	<path class="st108" d="M945.3,486.7l0.2-0.1c0.1,0,0.3,0.1,0.4,0.1l0.2,0.1l0.1,0.2l-0.1,0.2c-0.1,0.1-0.3,0.2-0.4,0.1
		c-0.5,0.3-0.9,0.5-1.4,0.6c-0.4-0.6,0-1,0.5-1.2C945.1,486.8,945.2,486.7,945.3,486.7z"/>
	<path class="st104" d="M943,463.5c-0.4,0.3-0.7,0.4-1.1,0.3c-0.3-0.4-0.5-0.9-0.4-1.5c0.4,0.4,0.7,0.8,1.4,0.4
		C943.4,463,943.3,463.1,943,463.5z"/>
	<path class="st109" d="M943.7,463.8c-0.5,0.4-1.1,0.3-1.6,0.4c-0.1-0.1-0.2-0.2-0.1-0.4c0.3-0.2,0.6-0.4,0.9-0.5
		C943.3,463.3,943.8,463.3,943.7,463.8z"/>
	<path class="st110" d="M942.1,464.1c0.4,0.4,0.7,0.8,0.2,1.5C942,465.2,941.8,464.7,942.1,464.1z"/>
	<path class="st111" d="M945,491.6c0.6-0.1,0.7,0.2,0.5,0.7C945.2,492.1,944.6,492.1,945,491.6z"/>
	<path class="st89" d="M944.5,479c0.7-0.1,1,0.2,0.9,0.8c-0.4,0.1-0.6-0.2-0.7-0.5C944.7,479.2,944.6,479.1,944.5,479z"/>
	<path class="st107" d="M941.4,460.9c0.3,0.3,0.4,0.6,0.1,1.1C941.2,461.6,941.2,461.3,941.4,460.9z"/>
	<path class="st43" d="M943.1,471.3c0.4,0.3,0.4,0.6,0.1,1.1C943,472.1,943,471.7,943.1,471.3z"/>
	<path class="st73" d="M944.2,480.8c0.1,0.2,0.2,0.3,0.1,0.4c0.1,0,0.1,0,0.2,0c0.1,0,0.1,0.2,0,0.3c-0.2-0.1-0.5-0.2-0.8-0.3
		C943.8,481,943.8,480.7,944.2,480.8z"/>
	<path class="st102" d="M941.3,455.5c0.1,0,0.3,0.1,0.4,0.1c-0.1,0.1-0.3,0.3-0.4,0.3C941.3,455.7,941.2,455.6,941.3,455.5z"/>
	<path class="st112" d="M962.2,499.2c0.3-0.2,0.6-0.3,0.8-0.4c-0.1,0.2-0.2,0.4-0.3,0.6C962.5,499.4,962.3,499.3,962.2,499.2z"/>
	<path class="st113" d="M961.6,498.4c-0.4-1.1,0.3-0.8,0.9-0.5c-0.1,0.1-0.3,0.3-0.4,0.4C961.8,498.2,961.7,498.3,961.6,498.4z"/>
	<path class="st113" d="M960.6,498.7l-0.1-0.2c0.1-0.2,0.3-0.3,0.5-0.2c0.1,0.1,0.1,0.2,0.1,0.4
		C960.9,498.7,960.8,498.7,960.6,498.7z"/>
	<path class="st104" d="M950.7,496.5c0.7,0,1.2,0.2,1.9,0.4c0.3,0.1,0.5,0.2,0.8,0.4c0.1,0.2,0.1,0.4,0,0.6
		c-0.2,0.1-0.3,0.2-0.5,0.3c-0.2,0-0.4,0.1-0.5,0.3l0,0c-0.1,0.3-0.2,0.4-0.5,0.3c-0.3,0-0.8,0.1-1.1,0.1
		C949.9,498,948,497.7,950.7,496.5z"/>
	<path class="st114" d="M958.5,497.9c-0.5,0.2-1.1,0.3-1.6,0.4c-0.2,0-0.5,0-0.7-0.2c-0.3,0.2-0.6,0.4-0.9,0.5
		c-0.2-0.3-0.4-0.5-0.6-0.8c0.1-0.2,0.3-0.3,0.5-0.3v-0.1c0.4,0.2,0.8-0.2,1.1,0c0.9-0.2,1.8-0.3,2.8-0.5
		C959,497.5,958.6,497.6,958.5,497.9z"/>
	<path class="st95" d="M952.1,500.1c-0.1,0-0.1,0.1-0.2,0.1c0-0.5,0-1-0.2-1.5c0.2-0.1,0.3-0.2,0.5-0.3
		C953.6,499.2,953.6,499.2,952.1,500.1z"/>
	<path class="st95" d="M954.3,497.9c0-0.1,0.1-0.2,0.1-0.3c0.1,0,0.2-0.2,0.2-0.2c0.2-0.1,0.4-0.1,0.6,0c0.1,0.1,0.1,0.2,0.1,0.4
		c-0.1,0.1-0.3,0.2-0.5,0.3C954.8,498,954.5,498,954.3,497.9z"/>
	<path class="st95" d="M952.9,500.6c-0.2-0.1-0.5-0.1-0.7-0.2C952.4,500.6,952.7,500.6,952.9,500.6z"/>
	<path class="st95" d="M953.6,497.7c0.2-0.2,0.3-0.3,0.5-0.3s0.3,0.2,0.1,0.4v0.1C954,497.9,953.9,497.9,953.6,497.7
		C953.7,497.8,953.6,497.7,953.6,497.7z"/>
	<path class="st95" d="M952.2,498.4c0-0.3,0.2-0.4,0.5-0.3C952.6,498.2,952.4,498.3,952.2,498.4z"/>
	<path class="st9" d="M953.6,497.7c0.1,0,0.2,0.1,0.1,0.2c-0.2,0-0.4,0.1-0.6,0.1c-0.1-0.1-0.1-0.2-0.1-0.4
		C953.2,497.2,953.4,497.3,953.6,497.7z"/>
	<path class="st115" d="M959.9,497.6c0-0.1,0.2-0.3,0.4-0.3c0.7-0.1,0.4,0.6,0.7,0.9c0,0.1,0.1,0.1,0.1,0.2c-0.2,0-0.4,0.1-0.5,0.2
		C960.1,498.3,959.6,498.1,959.9,497.6z"/>
	<path class="st113" d="M961.7,496.3c0.5-0.4,1-0.6,1.7-0.5C962.9,496.3,962.4,496.7,961.7,496.3z"/>
	<path class="st95" d="M951.4,501c-0.1-0.1-0.3-0.2-0.4-0.2c0.2-0.1,0.5-0.1,0.8-0.1C951.6,500.8,951.5,500.9,951.4,501z"/>
	<path class="st20" d="M946.1,487.3c0.1-0.2,0.1-0.4-0.1-0.4h-0.1c-0.2,0-0.3-0.1-0.4-0.2c0-0.2,0-0.3,0.1-0.4l-0.2-0.1l-0.1,0.2
		c-0.1,0.1-0.3,0.2-0.4,0.1c-0.1-0.2-0.2-0.3-0.3-0.4c0.1,0,0.1,0,0.1-0.2c-0.1-0.1-0.1-0.2-0.3-0.2c-0.1-0.2-0.2-0.7,0.2-0.7
		c0.8,0.1,1.6-0.4,2.3,0c0,0,0,0.1,0,0.2s0.1,0.1,0.2,0.1c0.5,0.9,1.2,1.9,1.7,2.8c0.4,0.4,0.6,1,0.7,1.6c-0.1,0.1-0.3,0.3-0.5,0.2
		c-0.3-0.1-0.7-0.2-1-0.2c-0.2,0.1-0.4,0.1-0.5,0c-0.4-0.2-1.2-0.2-0.6-1.1c0.1-0.4-0.1-0.6-0.5-0.7
		C946.3,487.6,946.2,487.4,946.1,487.3L946.1,487.3z"/>
	<path class="st116" d="M948.9,489.9c0.1,0.2,0.3,0.4,0.5,0.7c0.1,0.2,0.1,0.4,0.3,0.5c0.3,0.5,0.4,1.2,1.3,1.3
		c0.3,0.5,0.6,1,0.9,1.5c-0.1,0-0.2,0.2-0.2,0.3c-0.8,0.4-1.5,0.4-2.3,0.4c-0.5,0-0.9-0.3-0.9-0.7c-0.1-0.3-0.1-0.6-0.1-0.9
		c0-0.1,0-0.2,0-0.3c0-0.2-0.1-0.3-0.1-0.5c-0.1-0.4-0.5-0.9-0.6-1.4c-0.1-0.4-0.3-0.8-0.2-1.2l0.1-0.1c0.1-0.1,0.2-0.1,0.4-0.1
		C948.3,489.5,948.5,489.6,948.9,489.9z"/>
	<path class="st9" d="M950.9,496c0.2-0.2,0.3-0.4,0.5-0.5c0.5-0.4,0.6-0.8,0.6-1.3c0.1-0.1,0.2-0.2,0.2-0.3c1.3,0.2,2.8,0.5,3.7,1.7
		c-0.2,0.4-0.6,0.5-1.1,0.4c-0.3,0-0.5,0-0.9,0c-0.8,0.2-1.4,0.6-1.8,1.1c-0.7,0.2-1.3,0.2-1.6-0.6
		C950.8,496.5,950.9,496.3,950.9,496z"/>
	<path class="st92" d="M954.4,496.1h0.2c0.2,0,0.2-0.1,0.4-0.1c0.4-0.1,0.7-0.1,1.1-0.1c0.3,0.7-0.7,1.1-0.8,1.5
		c-0.1,0.1-0.3,0.1-0.5,0.1c-0.2,0.1-0.5,0.1-0.7,0c-0.2,0-0.3,0-0.5,0.1c-0.2,0-0.4,0-0.6,0c-0.2-0.1-0.4-0.1-0.7-0.2
		c0.1-1.1,0.7-1.6,1.9-1.5C954.3,496,954.5,495.9,954.4,496.1z"/>
	<path class="st117" d="M949,485.6c0.3,0.2-0.3,0.4-0.6,0.5c-0.9-1.2-1.6-2.3-1.7-3.9C947.7,483.3,947.9,484.8,949,485.6z"/>
	<path class="st116" d="M950.3,491.6c-0.9,0.7-0.7-0.2-1-0.5c-0.1-0.4-0.4-0.7-0.2-1.2c0.1-0.1,0.1-0.2,0.2-0.3
		c0.1-0.1,0.3-0.2,0.4-0.1C950.1,490.2,950.5,490.8,950.3,491.6z"/>
	<path class="st118" d="M950.8,492.6c-1,0.2-1.4-0.4-1.7-1.2c0-0.2,0.1-0.4,0.2-0.4c0.2-0.1,0.4-0.1,0.5,0c0.2,0.3,0.1,0.8,0.6,0.7
		C950.5,492,950.6,492.2,950.8,492.6z"/>
	<path class="st43" d="M945.4,476.4c-0.5-0.7-0.5-1.3,0-2.1C945.9,474.9,946,475.6,945.4,476.4z"/>
	<path class="st43" d="M945.4,474.3c-0.5-0.3-0.8-0.7-0.7-1.3C945.5,473.1,945.6,473.6,945.4,474.3z"/>
	<path class="st43" d="M944.8,473.1c-0.7,0.1-0.8-0.2-0.5-0.7C944.4,472.6,944.7,472.7,944.8,473.1z"/>
	<path class="st103" d="M944.4,467.6c0.4-0.3,0.8-0.4,1.2-0.2C945.3,467.6,944.8,467.6,944.4,467.6z"/>
	<path class="st94" d="M956.6,497.7c-0.4,0.3-0.8,0.4-1.1,0C955.9,497.4,956.2,497.4,956.6,497.7z"/>
	<path class="st9" d="M952.2,494.4c-0.2,0.1-0.3,0.2-0.5,0.2c-0.1-0.1-0.3-0.2-0.3-0.4l0.1-0.1l0.1-0.1c0.2,0,0.5,0,0.7,0.2
		C952.3,494.3,952.3,494.4,952.2,494.4z"/>
	<path class="st119" d="M941.1,445.7c0.9,0,1.6,0.3,1.9,1.1c0.2,0.3,0.2,0.6,0,1c-0.4,0.8-1.5,0.1-1.9,0.8l-0.1,0.1
		c-0.2-0.6-0.6-1.1-0.8-1.6c-0.2,0-0.4-0.1-0.6-0.2l0,0c-0.5-1,0.7-0.6,1-1.1C940.9,445.8,941,445.7,941.1,445.7z"/>
	<path class="st120" d="M938.2,448.7c-0.3,0.3-0.6,0.4-0.8,0.2c-0.3-0.4-0.1-0.7,0.2-1s0.6-0.3,0.9-0.1
		C938.8,448,938.3,448.3,938.2,448.7z"/>
	<path class="st77" d="M939.7,446.8c0.2,0,0.4,0.1,0.6,0.2C940.1,447,940,446.9,939.7,446.8z"/>
	<path class="st114" d="M945.9,485.9c-0.1,0.2-0.1,0.4-0.2,0.7c-0.1,0.2-0.2,0.3-0.4,0.1h-0.1c-0.1-0.1-0.1-0.2-0.2-0.3
		C945.4,486.2,945.7,486,945.9,485.9L945.9,485.9z"/>
	<path class="st121" d="M945.3,481.6c-0.1,0.1-0.3,0.2-0.5,0.3l0,0c-0.1-0.1-0.2-0.3-0.1-0.4c-0.1-0.1-0.2-0.3-0.1-0.4
		C944.8,481,945.2,481.2,945.3,481.6z"/>
	<path class="st27" d="M944.7,485.5c0.1,0,0.2-0.1,0.3,0s0.1,0.2,0,0.4C944.7,485.8,944.8,485.7,944.7,485.5z"/>
	<path class="st122" d="M944.3,483.8c0.3-0.2,0.4,0,0.6,0.1C944.7,483.9,944.5,483.8,944.3,483.8z"/>
	<path class="st68" d="M947.2,485.1c0,0-0.1,0-0.2,0c0-0.1,0-0.2,0-0.3C947.1,484.9,947.1,485,947.2,485.1z"/>
	<path class="st123" d="M943.3,447.3c0.2,0,0.3,0.1,0.4,0.3c0,0.2,0,0.4,0,0.5c0,0.2,0,0.3-0.1,0.5c0,0.3-0.1,0.5-0.2,0.8
		c-0.1,0.2-0.2,0.3-0.4,0.4c-0.1,0-0.2,0-0.3-0.1c-0.3-0.2-0.6-0.3-0.9-0.5c-0.2,0-0.4-0.1-0.6-0.2c0-0.2-0.1-0.3-0.1-0.4
		c0.4-0.5-0.3-1,0.4-1.5c0.5,0.2,0.6,1.1,1.4,0.4C943.1,447.5,943.2,447.4,943.3,447.3z"/>
	<path class="st25" d="M943.6,449.5L943.6,449.5c0-0.4-0.1-0.6,0.3-0.9c0.5-0.2,0.9,0.1,1.2,0.6c0.2,0.3,0.3,0.6,0.2,1
		c-0.1,0.2-0.3,0.4-0.5,0.5c-0.3,0.2-0.4,0-0.6-0.1c0-0.1-0.1-0.1-0.2-0.1C943.5,450.1,943.3,449.9,943.6,449.5z"/>
	<path class="st91" d="M945.5,449.9c0.3,0,0.6,0.1,0.9,0.3c0.1,0.2,0.1,0.3,0.1,0.5c-0.1,0.4-0.2,0.8-0.4,1.2
		c-0.1,0.2-0.3,0.3-0.5,0.4c-0.1-0.1-0.2-0.1-0.3-0.2c0-0.1,0-0.2,0-0.3c-0.2-0.3-0.3-0.5-0.4-0.8c0,0-0.1,0-0.2-0.1
		c-0.1,0-0.1-0.2,0-0.3c0.1-0.1,0.3-0.2,0.4-0.1C945.1,449.9,945.2,449.8,945.5,449.9z"/>
	<path class="st124" d="M943.9,452.4L943.9,452.4c0.3-0.5,0.7-0.8,1.3-0.7c0.1,0.1,0.3,0.2,0.3,0.3
		C945.1,452.6,944.6,453.2,943.9,452.4z"/>
	<path class="st75" d="M942.9,449.8c0.2-0.1,0.4-0.1,0.6-0.3c0.1,0.2,0.3,0.5,0.4,0.8C943.5,450.3,943.2,450.1,942.9,449.8z"/>
	<path class="st119" d="M941.8,449.4c-0.1-0.1-0.2-0.3-0.1-0.4c0.2,0,0.4,0.1,0.6,0.2C942.1,449.3,941.9,449.3,941.8,449.4z"/>
	<path class="st75" d="M944.1,450.4c0.2,0,0.3,0,0.5-0.1c0.1,0.1,0.1,0.3,0.1,0.4C944.5,450.8,944.3,450.7,944.1,450.4z"/>
	<path class="st54" d="M947.4,492.6c0.2-0.2,0.4-0.3,0.6-0.2c0.2,0.3,0.4,0.5,0.3,0.8c-0.5,1,0.5,1.2,0.8,1.7c0.2,0.3,0.2,0.6,0,1
		c-0.3,0.5-0.7,0.6-1.2,0.4c-0.4-0.3-0.7-0.8-0.9-1.1c-0.1-0.4-0.3-0.7-0.2-1.2c-0.1-0.3-0.3-0.7-0.1-1.1
		C947.2,493,947.4,492.9,947.4,492.6z"/>
	<path class="st125" d="M947.2,492.3c-0.1-0.1-0.1-0.2-0.2-0.3c0-0.2,0-0.4,0.2-0.6l0,0c0.1-0.4,0.4-0.5,0.8-0.4
		c0.3,0.5,0.6,1,0.9,1.5c0,0.2-0.1,0.4-0.2,0.7l0,0c0,0.1-0.2,0.2-0.2,0.3c-0.1,0-0.2,0.1-0.3,0c-0.2-0.3-0.3-0.5-0.4-0.8
		C947.7,492.6,947.5,492.5,947.2,492.3z"/>
	<path class="st126" d="M946.9,491c-0.1,0-0.1,0.1-0.2,0c0-0.1,0-0.2,0.1-0.3c0.2-0.3,0.4-0.6,0.6-0.8c0.1,0.4,0.4,0.9,0.7,1.3
		c-0.3,0.1-0.6,0.3-0.8,0.4C947.1,491.3,947,491.1,946.9,491z"/>
	<path class="st127" d="M946.3,487.6c0.4-0.1,0.7-0.1,0.9,0.3c0.1,0.2-0.2,0.4-0.4,0.6C946.7,488.2,946.5,488,946.3,487.6z"/>
	<path class="st68" d="M946.5,490.8c-0.1-0.3,0.2-0.3,0.4-0.1c0.1,0.1,0.1,0.2,0.1,0.4C946.7,491.1,946.4,491,946.5,490.8z"/>
	<path class="st126" d="M947.5,492.8c-0.1-0.2-0.2-0.3-0.3-0.5c0.2,0.1,0.4,0.2,0.6,0.3C947.7,492.6,947.5,492.7,947.5,492.8z"/>
	<path class="st103" d="M946.7,492.7c-0.1,0.1-0.3,0.2-0.4,0.1C946.3,492.6,946.4,492.4,946.7,492.7z"/>
	<path class="st126" d="M947.3,491.4c-0.1,0.2-0.1,0.4-0.2,0.6C946.9,491.9,947.1,491.6,947.3,491.4z"/>
	<path class="st128" d="M943.9,470.5c-0.1-0.1-0.3-0.1-0.4-0.1c-0.2,0-0.4-0.3-0.3-0.5c0.2-0.2,0.3,0.2,0.4,0.3
		C943.7,470.3,943.9,470.3,943.9,470.5L943.9,470.5z"/>
	<path class="st107" d="M945.4,452.4c0.2-0.1,0.4,0,0.7,0.2c0.4,0.2,0.5,0.6,0.6,1.1c0,0.6-0.3,1-0.6,1.5c-0.2,0.4-0.4,0.8-0.7,1.1
		c-0.3,0.2-0.5,0.1-0.7,0.1c-0.4-0.2-0.5-0.6-0.6-1c0.1-0.4,0.3-0.9,0.3-1.3c0.1-0.3,0.2-0.5,0.2-0.7
		C944.5,452.7,945,452.6,945.4,452.4z"/>
	<path class="st75" d="M943.8,452.4c0.7,0.2,1.2-0.1,1.7-0.5l0,0c0.1,0,0.1,0,0.2,0.1c0.1,0.1,0.1,0.2,0,0.4
		c-0.5,0.3-0.9,0.5-1.3,0.7C943.7,453.1,943.5,452.9,943.8,452.4z"/>
	<path class="st60" d="M943.9,455.6c-0.1,0.1-0.3,0.1-0.5,0.1c-0.1-0.1-0.2-0.2-0.3-0.3c0.2-0.7,0.5-1,0.9-1.5
		c0.1,0.4,0.2,0.7,0,1.1C944,455.1,944,455.3,943.9,455.6z"/>
	<path class="st53" d="M945.1,466.2c-0.3,0-0.5-0.1-0.7-0.2c-0.1-0.1-0.2-0.3-0.1-0.4c0-0.3,0-0.5,0.2-0.8c0.2-0.2,0.4-0.1,0.6-0.3
		c0.4,0.1,0.8,0.3,1,0.5c0.1,0.2,0.1,0.3,0,0.5c0.1,0.3-0.1,0.5-0.2,0.7C945.5,466.3,945.2,466.3,945.1,466.2z"/>
	<path class="st7" d="M944.5,466.5c-0.1-0.1-0.2-0.2-0.1-0.4c0.3,0,0.5,0.1,0.7,0.2C944.9,466.3,944.7,466.4,944.5,466.5z"/>
	<path class="st107" d="M944.3,496c0.1-0.3,0.2-0.5,0.3-0.7l0,0c0.6-0.5,1-1.1,1.9-1c0.2,0,0.3,0.1,0.4,0.3c0,0.3-0.1,0.5-0.3,0.8
		c-0.2,0.2-0.3,0.3-0.5,0.4c-0.2,0-0.3,0-0.5,0.2c-0.5,0.3-1,0.6-1.5,0.4C944.2,496.2,944.3,496.1,944.3,496z"/>
	<path class="st129" d="M944.4,495.5c0.1,0,0.2-0.2,0.3-0.3c-0.1,0.3-0.2,0.5-0.3,0.7C944.5,495.9,944.3,495.7,944.4,495.5z"/>
	<path class="st111" d="M944.9,481.8c0.1,0.1,0.1,0.2,0.1,0.4c0.1,0.2,0.4,0.4,0.1,0.7c-0.1,0.1-0.3,0-0.4,0
		c-0.4-0.2-0.2-0.5-0.1-0.7C944.6,482,944.7,481.9,944.9,481.8L944.9,481.8z"/>
	<path class="st107" d="M943,462.6c-0.1-0.4-0.2-0.7,0-1.1c0.2,0,0.3,0,0.4,0c0.7,0.2,1.1,0.7,1.3,1.2c0.2,0.3,0.1,0.6,0,0.9
		c-0.1,0.2-0.2,0.4-0.4,0.5c-0.2,0-0.2,0.1-0.3,0s-0.2-0.3-0.1-0.4c-0.3-0.2-0.6-0.3-0.9-0.5C942.9,463.1,943,462.8,943,462.6z"/>
	<path class="st110" d="M944,464.1L944,464.1c0.2,0,0.4,0.1,0.5,0.3c0,0.2,0,0.4,0,0.6c-0.1,0.2-0.2,0.4-0.3,0.6
		C943.6,465.2,942.8,464.9,944,464.1z"/>
	<path class="st102" d="M943.9,456.5c0.5-0.1,0.9,0,1.1,0.4c0.2,0.9-1,1.3-1,2.1c-0.1,0.4-0.2,0.8-0.7,1.1c-0.6,0-0.8-0.2-0.7-0.8
		c-0.1-0.1-0.2-0.3-0.1-0.4c0.1-0.2,0.1-0.4,0.2-0.6c-0.2-0.3-0.3-0.5-0.4-0.8C942.9,457.6,943.2,456.9,943.9,456.5z"/>
	<path class="st107" d="M943.8,460.3c0.1,0.4,0.5,0.7,0.1,1.1c-0.3,0.3-0.6,0.4-0.9,0.2l0,0c-0.3-0.8-1-1.2-0.6-2.3
		c0.1,0.4,0.5,0.6,0.9,0.5C943.6,459.9,943.6,460,943.8,460.3z"/>
	<path class="st130" d="M943.4,455.9c0.2-0.1,0.3-0.2,0.5-0.3c0.4,0,0.5,0.5,0.9,0.5c0.2-0.1,0.3-0.2,0.5-0.3
		c0.1-0.3,0.2-0.4,0.5-0.4c0.2,0.1,0.3,0.3,0.3,0.5c-0.2,0.5-0.4,1.1-1.2,1c-0.3-0.2-0.6-0.3-0.9-0.5
		C943.7,456.2,943.5,456,943.4,455.9z"/>
	<path class="st52" d="M942.3,486.8c0.3,0,0.3,0.1,0.2,0.1C942.6,486.9,942.5,486.8,942.3,486.8L942.3,486.8z"/>
	<path class="st27" d="M946,486.8c0.1,0,0.2,0,0.2,0c0,0.2,0,0.3,0,0.4C946,487.1,946.1,487,946,486.8z"/>
	<path class="st27" d="M945.9,486.7c-0.2,0-0.4-0.1-0.6-0.1c0.1-0.1,0.3-0.1,0.4-0.1C945.8,486.6,945.9,486.7,945.9,486.7z"/>
	<path class="st75" d="M948.7,496.6c0.2-0.2,0.3-0.5,0.2-0.7s-0.2-0.5-0.3-0.7c0-0.4,0.5-0.5,0.7-0.8c0.7-0.1,1.3-0.2,2-0.2
		c0.1,0.1,0.3,0.2,0.4,0.3c0.7,0.4,0.8,0.7-0.1,1.1c-0.2,0.1-0.3-0.3-0.5,0c0.1,0.1,0.1,0.2,0.1,0.4s0,0.3-0.1,0.4s-0.2,0.2-0.4,0.3
		c-0.6,0.4-1.7,0.6-0.3,1.3c0.2,0.1,0.3,0.5,0.3,0.7c-0.3,0-0.7,0.1-1.1,0.1c-0.2,0-0.4-0.1-0.5-0.2s-0.1-0.3,0-0.5
		c-0.2-0.3-0.3-0.6-0.5-0.9C948.8,497,948.9,496.9,948.7,496.6z"/>
	<path class="st36" d="M948.4,498.5c0.1,0.2,0.1,0.4,0.1,0.5c-0.1,0.2-0.3,0.3-0.5,0.2c-0.5,0.1-1,0.2-1.5,0.1c0-0.6,0.6-0.8,1-1.1
		C947.9,498.3,948.2,498.3,948.4,498.5z"/>
	<path class="st104" d="M949.2,498.4c0.2,0.1,0.2,0.3,0.3,0.4c-0.4,0.3-1,0.6-1.5,0.4c0.1-0.1,0.3-0.3,0.4-0.3
		C948.7,498.6,948.9,498.4,949.2,498.4z"/>
	<path class="st9" d="M954.3,497.8c-0.1-0.1-0.2-0.2-0.3-0.3c0.2-0.2,0.5-0.2,0.7,0C954.6,497.6,954.5,497.7,954.3,497.8z"/>
	<path class="st18" d="M948.3,488.7c0.4,0.1,0.5,0.6,0.9,0.9l0,0c-0.1,0.4-0.5,0.6-0.8,0.6c-0.2-0.3-0.4-0.5-0.6-0.8
		C947.8,489.1,947.7,488.5,948.3,488.7z"/>
	<path class="st27" d="M945.9,485.9c0-0.2,0-0.3,0.2-0.2C946.1,485.7,946,485.8,945.9,485.9L945.9,485.9z"/>
	<path class="st21" d="M948.1,494.7c-0.7-0.4-0.6-0.8,0.1-1.2v-0.1c0.1,0,0.2,0,0.2,0.1c0.1,0.1,0.1,0.2,0,0.4
		c0.1,0.4,0.5,0.6,0.9,0.5c-0.1,0.4-0.4,0.6-0.7,0.8C948.5,494.9,948.4,494.7,948.1,494.7z"/>
	<path class="st121" d="M949.8,491c-0.1,0.1-0.2,0.1-0.3,0.2c-0.2,0-0.5,0-0.6-0.2s-0.3-0.5-0.4-0.7c0.3-0.3,0.6-0.4,0.8-0.6
		C949.4,490.2,949.6,490.6,949.8,491z"/>
	<path class="st126" d="M948.7,493.2c0.1,0.2,0,0.5-0.2,0.7c0-0.2-0.1-0.3-0.2-0.5C948.4,493.3,948.6,493.2,948.7,493.2z"/>
	<path class="st126" d="M948.8,493.1c-0.2-0.2-0.1-0.4,0.2-0.7C949,492.7,949,492.9,948.8,493.1z"/>
	<path class="st18" d="M949.1,491.5c-0.1-0.2-0.2-0.3-0.3-0.5c0.2,0,0.4,0.1,0.6,0.2C949.3,491.2,949.2,491.4,949.1,491.5z"/>
	<path class="st104" d="M952.3,494.4c0.9,0.8,0.9,0.8-0.7,1.8c-0.3,0-0.5-0.1-0.7-0.2c-0.1-0.1-0.2-0.3-0.1-0.4
		c0.1-0.2,0.2-0.3,0.4-0.1c0.5-0.1,1.1-0.1,0.7-0.8C952,494.5,952.1,494.5,952.3,494.4z"/>
	<path class="st131" d="M955,496c-0.1,0.2-0.2,0.4-0.3,0.6c-0.2,0-0.5,0-0.7-0.2c0.1-0.2,0.1-0.4,0.2-0.6
		C954.5,495.8,954.7,495.9,955,496z"/>
	<path class="st21" d="M951.1,496.4c-0.1-0.1-0.1-0.2-0.1-0.4c0.3,0,0.5,0.1,0.7,0.2C951.5,496.2,951.4,496.3,951.1,496.4z"/>
	<path class="st9" d="M954.1,496.4c0.3,0,0.5,0,0.7,0.2C954.5,496.5,954.3,496.4,954.1,496.4z"/>
	<path class="st6" d="M946.7,465.3c0.3,0,0.5-0.1,0.8-0.1C947.3,465.4,947,465.4,946.7,465.3z"/>
	<path class="st6" d="M946,465.7c-0.1-0.1-0.1-0.2-0.3-0.3c0.3,0,0.5,0,0.7,0C946.2,465.5,946,465.6,946,465.7z"/>
	<path class="st119" d="M941.8,443.5c0.2,0.3,0.3,0.6,0.2,0.9c0,0.2,0,0.4-0.2,0.6c-0.2,0.4-0.6,0.7-1.1,0.6l0,0
		c-0.4-0.6,0.5-1.4,0-2.1c0-0.3,0.2-0.5,0.2-0.7C941.5,443.1,941.8,443.3,941.8,443.5z"/>
	<path class="st114" d="M937.6,445.4c0,0-0.1,0-0.1-0.1c0.1,0,0.1-0.1,0.2-0.2c0,0,0.1,0,0.1,0.1
		C937.7,445.2,937.7,445.3,937.6,445.4z"/>
	<path class="st132" d="M942.5,444.6c0.2,0,0.4,0.1,0.5,0.2c0,0.1,0.1,0.1,0.2,0.1c0.2,0,0.4,0.2,0.5,0.3c0.2,0.1,0.2,0.3,0.3,0.4
		c0,0.2,0.1,0.4,0.1,0.6c-0.1,0.2-0.2,0.3-0.3,0.5c-0.2,0.2-0.3,0.3-0.5,0.3c-0.2,0.1-0.4,0-0.6,0c-0.3-0.8-1.3-0.3-1.7-1.2
		c0.4-0.4,0.7-0.8,1.1-1.1C942.1,444.6,942.3,444.7,942.5,444.6z"/>
	<path class="st84" d="M943.5,447.5c-0.2,0-0.2,0.1-0.4,0.1c-0.2-0.3-0.3-0.5-0.4-0.8c0.1-0.1,0.4-0.1,0.6-0.3
		C943.5,446.9,943.7,447.1,943.5,447.5z"/>
	<path class="st133" d="M943.4,446.5c0.3,0,0.4-0.1,0.4-0.3c0-0.2,0-0.3,0-0.4c0.1-0.2,0.4-0.3,0.6-0.3c0.3,0.1,0.5,0.3,0.7,0.6
		c0.1,0.4,0.2,0.8-0.2,1.2c-0.2,0.1-0.5,0.1-0.6,0.1c0.3,0.1,0.6,0.3,0.7,0.5c0.1,0.4,0.6,1-0.3,1.3c-0.2-0.3-0.5-0.5-0.9-0.4
		c-0.1,0-0.1,0-0.2,0c-0.1-0.1-0.2-0.1-0.1-0.3l0,0c0.1-0.2,0.2-0.4,0.2-0.6s-0.1-0.3-0.1-0.4c-0.1-0.3-0.2-0.6-0.2-0.9
		C943.3,446.6,943.3,446.6,943.4,446.5z"/>
	<path class="st75" d="M943.5,449.5c-0.3-0.4-0.3-0.7-0.1-1.1c0.1,0.1,0.2,0.3,0.1,0.4C943.6,449.1,943.5,449.3,943.5,449.5z"/>
	<path class="st84" d="M943.6,447.9c0.1,0.2,0,0.5-0.2,0.6C943.5,448.2,943.5,448,943.6,447.9z"/>
	<path class="st53" d="M945,447.6c0.5,0.2,0.7,0.5,0.9,0.9c0,0.2,0.1,0.4,0.1,0.6c0,0.4-0.2,0.6-0.5,0.9c-0.2,0.1-0.3,0.2-0.5,0.3
		c-0.2-0.3-0.3-0.6-0.5-0.9c0.4-0.6,0-1-0.1-1.4C944.6,447.7,944.8,447.7,945,447.6z"/>
	<path class="st51" d="M945.8,449.5c1.9-0.2,1.9,1.1,2.1,2.3c0,0.3-0.1,0.4-0.3,0.6c-0.2,0.1-0.4,0.1-0.6,0.1c-0.1,0-0.2,0-0.3-0.1
		s-0.3-0.2-0.4-0.4c-0.1-0.3-0.1-0.7-0.1-1.1c0-0.2,0.1-0.4,0.1-0.5c-0.1-0.2-0.2-0.3-0.3-0.4C945.9,450,945.8,449.8,945.8,449.5z"
		/>
	<path class="st42" d="M946.6,451.5c-0.1,0.1-0.2,0.3-0.4,0.4c-0.1,0-0.1-0.1-0.2-0.1c-0.4-0.5-0.2-1,0.4-1.3c0,0.2,0.1,0.3,0.1,0.4
		C946.4,451.1,946.4,451.3,946.6,451.5z"/>
	<path class="st39" d="M945.4,450c0.1-0.2,0.1-0.4,0.2-0.6c0.2-0.1,0.3,0.1,0.3,0.3c0,0.2,0.1,0.3,0.1,0.4
		C945.9,450,945.6,450,945.4,450z"/>
	<path class="st107" d="M945.9,451.6L945.9,451.6c0.3,0.4,0.2,0.6-0.3,0.8l0,0c0-0.2-0.1-0.3-0.1-0.5
		C945.7,451.8,945.8,451.7,945.9,451.6z"/>
	<path class="st134" d="M948.1,496c-0.1-0.2-0.3-0.5-0.4-0.7C948.2,495.3,948.4,495.5,948.1,496z"/>
	<path class="st46" d="M945.1,454.8c0.5-0.3,0.8-0.6,0.9-1.2c0.2-0.1,0.4,0,0.6,0.1c0.4,0.6,0,1.3-0.3,2c-0.2,0.2-0.4,0.3-0.6,0.3
		c-0.1-0.1-0.2-0.2-0.3-0.3C945.2,455.5,945.1,455.2,945.1,454.8z"/>
	<path class="st46" d="M946.4,451.7c0,0,0.1,0,0.2,0c0.1,0,0.1,0.1,0.1,0.3c-0.1,0.1-0.1,0.2,0,0.3c0.4,0.5,0.6,1-0.1,1.5
		c-0.2,0-0.3,0-0.4,0c-0.1-0.4-0.4-0.8-0.4-1.2c0.1-0.3,0.2-0.5,0.2-0.7C946,451.8,946.2,451.6,946.4,451.7z"/>
	<path class="st104" d="M944.2,454.8c0.1,0.4,0.4,0.8,0.7,1.2c-0.4,0-0.7-0.2-0.9-0.5C943.9,455.2,943.9,455,944.2,454.8z"/>
	<path class="st104" d="M945.2,455.8c-0.1-0.4-0.2-0.7,0-1.1c0.1,0.3,0.2,0.6,0.4,0.9C945.4,455.7,945.3,455.8,945.2,455.8z"/>
	<path class="st135" d="M944.4,465.1c-0.1-0.1-0.2-0.3-0.1-0.4c0.1-0.4,0.4-0.5,0.5-0.7c0.3-0.3,0.1-0.8,0.4-1.1
		c0.3-0.3,0.6-0.4,0.9-0.2c-0.1,0.9,1.2,0.8,1.2,1.7c-0.8,0.4-1.7-0.2-2.4,0.5C944.7,464.9,944.6,464.9,944.4,465.1z"/>
	<path class="st136" d="M945.6,495.9c0-0.4,0.3-0.5,0.5-0.3c0.3,0,0.5,0,0.7,0.2c0.1,0.1,0.2,0.2,0.1,0.4c-0.3,0.2-0.6,0.4-0.9,0.5
		c-0.1,0-0.2-0.1-0.3-0.2C945.8,496.2,945.7,496,945.6,495.9z"/>
	<path class="st29" d="M944.6,497c-0.1,0.2-0.2,0.5-0.2,0.7C944.3,497.4,944.3,497.2,944.6,497z"/>
	<path class="st60" d="M946.4,495.4c0.1,0,0.2,0,0.3,0c0,0.1,0.1,0.2,0.1,0.2c0,0.1-0.1,0.1-0.1,0.2c-0.1-0.1-0.4-0.2-0.6-0.2
		C946.3,495.6,946.3,495.4,946.4,495.4z"/>
	<path class="st60" d="M946.5,495.4L946.5,495.4c0.1-0.2,0.2-0.4,0.3-0.6c0.1,0.1,0.2,0.3,0.1,0.4
		C947,495.4,946.8,495.5,946.5,495.4z"/>
	<path class="st104" d="M944.6,463.3c-0.5-0.7-1.3-1-1.5-1.7c0.3-0.2,0.6-0.4,0.9-0.5c0.1-0.1,0.4-0.1,0.6-0.1
		c0.2,0,0.4,0.1,0.6,0.2c0.3,0.2,0.6,0.4,0.9,0.5c0.2,0,0.3,0.1,0.4,0.3c0,0.1,0,0.2,0,0.3c-0.1,0.1-0.3,0.2-0.4,0.1
		c-0.3,0.2-0.6,0.4-0.9,0.5C945.1,463.3,944.8,463.4,944.6,463.3z"/>
	<path class="st137" d="M945,464.1c-0.2,0.1-0.4,0-0.7-0.2c0.1-0.3,0.2-0.5,0.2-0.7c0.1-0.1,0.3-0.2,0.5-0.3
		C945.2,463.3,945.4,463.6,945,464.1z"/>
	<path class="st104" d="M944.2,464.5c-0.1-0.2-0.2-0.3-0.1-0.4c0.1-0.1,0.3-0.2,0.5-0.3c0.2,0,0.5,0,0.7,0.2
		C944.8,464.2,944.4,464.4,944.2,464.5z"/>
	<path class="st138" d="M944.4,460.4c-0.3,0.3-0.6,0.1-0.9,0c-0.1-0.1-0.2-0.3-0.1-0.4c-0.1-0.3-0.3-0.6,0.1-0.9
		c0.4,0.1,0.8,0.4,1.1,0.8C944.6,459.9,944.7,460.1,944.4,460.4z"/>
	<path class="st105" d="M945.7,460.1c-0.1,0.6-0.5,0.9-1.1,1.1c-0.2-0.1-0.5-0.1-0.7-0.2c-0.2-0.3-0.8-0.3-0.4-0.8
		c0.4-0.1,0.9,0,0.9-0.5C945.1,459.5,945.4,459.6,945.7,460.1z"/>
	<path class="st139" d="M948.3,498.7c-0.4-0.3-0.2-0.6,0.2-0.7c0.2,0.1,0.4,0.1,0.7,0.2c0,0.1,0.1,0.2,0.1,0.2
		c-0.3,0.2-0.6,0.4-0.9,0.5C948.4,498.7,948.3,498.7,948.3,498.7z"/>
	<path class="st140" d="M947.6,498.3c0-0.6,0.3-0.8,0.9-0.5c-0.1,0.3-0.2,0.5-0.2,0.7C948,498.6,947.8,498.4,947.6,498.3z"/>
	<path class="st141" d="M948.9,496.6c-0.1,0.2-0.1,0.4-0.2,0.6C948.8,497,948.9,496.9,948.9,496.6z"/>
	<path class="st60" d="M946.7,495.9c0.1-0.3,0.3-0.4,0.5-0.4c-0.1,0.2-0.2,0.5-0.2,0.7C946.8,496.1,946.7,496,946.7,495.9
		L946.7,495.9z"/>
	<path class="st17" d="M946.5,495.3l0.2-0.1l0.2-0.1c0.1,0.1,0.2,0.3,0.1,0.4c-0.1,0.1-0.3,0.2-0.5,0.3
		C946.7,495.7,946.6,495.5,946.5,495.3z"/>
	<path class="st21" d="M951.2,495.4c-0.1,0.1-0.3,0.2-0.4,0.1C950.8,495.3,950.9,495.3,951.2,495.4z"/>
	<path class="st142" d="M948.1,455.8L948.1,455.8c0,0,0.1,0,0.2,0c0.1,0.1,0.1,0.2,0,0.4c0.1,0.2,0.2,0.3,0.1,0.4
		c-0.6,0.4-1.1,0.3-1.3-0.3C947.4,455.9,947.6,455.7,948.1,455.8z"/>
	<path class="st69" d="M949.2,455.6c-0.3,0.3-0.6,0.5-1,0.6c-0.1-0.1-0.2-0.3-0.1-0.4C948.4,455.6,948.9,455.5,949.2,455.6z"/>
	<path class="st142" d="M949.1,456.6c-0.2-0.1-0.5-0.1-0.7-0.2C948.7,456.5,949,456.5,949.1,456.6z"/>
	<path class="st143" d="M947.2,462.3c0.2,0,0.3,0.1,0.4,0.2l0.1,0.1c-0.2,0.1-0.4,0-0.6-0.2C947.3,462.4,947.2,462.3,947.2,462.3z"
		/>
	<path class="st143" d="M946.6,462.1c0.1-0.1,0.3-0.2,0.4-0.1c0.2,0,0.3,0.2,0.3,0.3v0.1c-0.3,0-0.5,0-0.7,0V462.1z"/>
	<path class="st144" d="M941.2,439.8c0.3-0.2,0.7-0.4,0.8-0.7c0.1-0.1,0.3-0.3,0.5-0.3s0.4,0,0.6,0.1c0.2,0.1,0.3,0.3,0.4,0.5
		c0.2,0.9,0.4,1.8,0.5,2.8c0,0.5,0.1,1.1-0.2,1.7c-0.3,0.2-0.5,0.2-0.7,0.1c-0.4-0.3-0.6-0.7-0.4-1.2c-0.4-0.4-0.9-0.8-1.3-1.3
		C941.5,440.8,940.7,440.5,941.2,439.8z"/>
	<path class="st84" d="M943.9,444.1c0.3,0.3,0.5,0.7,0.4,1.1c0,0.1-0.1,0.2-0.1,0.3c-0.1,0.1-0.3,0.2-0.4,0.3
		c-0.1-0.1-0.2-0.3-0.3-0.4c-0.3,0-0.5-0.1-0.7-0.2l0,0c-0.3,0-0.5-0.1-0.7-0.2c-0.1-0.2-0.2-0.3-0.3-0.4h0.1c0.1-0.4,0-0.7-0.4-0.8
		c-0.1-0.2-0.3-0.5-0.4-0.8c0.5-0.4,1-0.3,1.5-0.4c0.1,0.4,0.6,0.8,0.7,1.2C943.6,443.9,943.8,444,943.9,444.1z"/>
	<path class="st19" d="M941.5,443.8c0.5,0,0.7,0.2,0.4,0.8C941.8,444.3,941.6,444.2,941.5,443.8z"/>
	<path class="st119" d="M942.2,445.1c0.3,0,0.5,0.1,0.7,0.2C942.6,445.2,942.4,445.2,942.2,445.1z"/>
	<path class="st119" d="M942.9,445.1c0.3,0,0.5,0.1,0.7,0.2C943.2,445.3,943.1,445.2,942.9,445.1z"/>
	<path class="st84" d="M943.9,446.1c0.1,0.3-0.1,0.4-0.4,0.3C943.6,446.4,943.8,446.3,943.9,446.1z"/>
	<path class="st85" d="M944.5,447.6c-0.1-0.1-0.1-0.2,0-0.4c0.2-0.4,0.2-0.7,0-1c1.7-0.3,1.8,0.9,1.9,2c-0.2,0.5-0.5,0.7-1,0.6
		c-0.1-0.4-0.4-0.8-0.7-1.2C944.8,447.7,944.7,447.8,944.5,447.6z"/>
	<path class="st6" d="M944.2,445.5L944.2,445.5c0.1-0.2,0.2-0.4,0.5-0.4s0.6,0,0.9,0.1c0.4,0.1,0.7,0.4,0.8,0.7
		c0.2,0.6,0.4,1.1,0.4,1.8c-0.1,0.4-0.2,0.6-0.6,0.7c-0.6-0.8-0.6-1.9-1.7-2.2C944.5,446,944.4,445.8,944.2,445.5z"/>
	<path class="st35" d="M944.4,447.8c0-0.2-0.7-0.5,0.2-0.6c0.1,0.1,0.2,0.3,0.1,0.4C944.7,447.8,944.6,447.7,944.4,447.8z"/>
	<path class="st145" d="M946.5,451c0.2,0.3,0.2,0.6,0,0.9c-0.1-0.1-0.1-0.2-0.3-0.3C946.4,451.4,946.5,451.2,946.5,451z"/>
	<path class="st146" d="M947.3,452.5c-0.2,0-0.4-0.1-0.6-0.1C947.1,452.3,947.2,452.4,947.3,452.5z"/>
	<path class="st136" d="M945.9,462.3c-0.6,0-0.6-0.8-1.2-0.9l0,0c0.2-0.7,0.6-0.8,1.1-1.1c0.2-0.4,0.2-0.7,0-1.1
		c0.9-0.8,1.4,0,2,0.2c0.3,0.4,0.3,0.7,0.1,1.1c-0.1,0.1-0.2,0.3-0.4,0.4c-0.2,0.2-0.4-0.2-0.6,0c0,0.1,0,0.2,0,0.4
		c0,0.3-0.1,0.5-0.2,0.7l-0.2,0.2c-0.1,0-0.3,0-0.3,0C946.3,462.1,946,462.2,945.9,462.3z"/>
	<path class="st105" d="M944.6,461.2c0.7,0,0.9,0.5,1.2,0.9C945.1,462.2,944.9,461.6,944.6,461.2z"/>
	<path class="st142" d="M945.5,458.6c0.1-0.2,0.3-0.3,0.5-0.3c0.4-1.1,1.1-1.6,2-0.6c0.1,0.2,0.1,0.4,0.1,0.7c0,0.4,0,0.7-0.3,1
		c-0.8,0.2-1.3-0.4-2-0.5C945.8,458.9,945.7,458.8,945.5,458.6z"/>
	<path class="st136" d="M944.7,458.5c0-0.4,0.4-0.6,0.9-0.5c0.2,0,0.3,0.3,0.5,0.4c-0.1,0.1-0.3,0.2-0.5,0.3
		C945.3,458.8,944.7,459.1,944.7,458.5z"/>
	<path class="st69" d="M948.8,457.9c0,0.1,0,0.2,0,0.3c0,0.4,0.5,0.7,0.4,1.1c-0.1,0.2-0.2,0.4-0.5,0.4c-0.7-0.2-0.8-0.6-0.9-1.2
		c0.1-0.2,0.2-0.5,0.2-0.7C948.2,457.8,948.6,457.8,948.8,457.9z"/>
	<path class="st69" d="M946.9,455.8c0.4-0.3,0.8-0.4,1.1-0.1c-0.3,0.2-0.6,0.4-0.9,0.5C947.1,456.1,947.1,455.9,946.9,455.8z"/>
	<path class="st47" d="M953,439.9c0.1,0.4,0.2,0.8,0.1,1.1s-0.1,0.6-0.3,0.9c-0.1,0.1-0.3,0.3-0.5,0.4c-0.4,0.1-1,0.3-1.5,0.2
		c-0.3-0.1-0.6-0.2-0.8-0.4c-0.2-0.1-0.3-0.2-0.4-0.4c-0.2-0.1-0.2-0.3-0.4-0.4s-0.3-0.2-0.4-0.4c-0.2-0.1-0.2-0.3-0.3-0.5
		s-0.1-0.3-0.1-0.5c0-0.4,0-0.7,0.1-1.1c0.3-0.2,0.6-0.4,0.9-0.5c0.4,0.1,0.9,0.3,1.3,0.3c0.3,0,0.5,0.1,0.7,0.2l0,0
		c0.1,0.4,0.8,0.7,1.2,0.9C952.8,439.9,952.8,439.9,953,439.9z"/>
	<path class="st147" d="M947.7,439.3c0.5,0.3,0.8,0.6,0.9,1.2c0.1,1.1-0.6,1.5-1.5,1.8c-0.3,0-0.5,0.1-0.7,0s-0.1-0.4-0.2-0.6
		c0.1-0.3,0.1-0.5,0.3-0.9c0-0.4-0.1-0.8-0.2-1.2c0-0.2,0-0.4-0.1-0.6c0.1-0.4,0.2-0.6,0.6-0.7c0.2,0.3,0.5,0.5,0.9,0.5
		C947.7,439,947.8,439.3,947.7,439.3z"/>
	<path class="st26" d="M953.8,447.2c0.2,0.3,0.4,0.5,0.6,0.8c0.1,0.4,0.4,0.6,0.7,0.9c0,0.1,0.2,0.1,0.2,0.2
		c0.1,0.1,0.1,0.3,0.1,0.5c0,1-0.6,1.5-1.5,2c-0.3,0.2-0.6,0.4-0.9,0.5l-0.1-0.1c-0.3-0.1-0.6-0.1-0.9,0c-0.2,0-0.4-0.1-0.5-0.2
		c0-0.1-0.1-0.2-0.1-0.2c0-0.1,0.1-0.2,0.1-0.3c0.8-0.7,0.8-1.4,0.8-2.2c1.7-0.5,0.6-1.3,0.3-1.9
		C953.1,446.5,953.4,446.9,953.8,447.2z"/>
	<path class="st148" d="M948.7,459c-0.2-0.3-0.3-0.5-0.1-0.9c0.1,0.1,0.2,0.1,0.2,0.3c0.1,0.1,0.2,0.3,0.1,0.4
		C949.1,459,949,459.1,948.7,459z"/>
	<path class="st75" d="M947.6,462.5c-0.2,0-0.4,0-0.6-0.1c-0.1-0.1-0.2-0.2-0.3-0.3h0.1c0.2-0.3-0.1-0.6,0-1l-0.1-0.1
		c0.1-0.2,0.3-0.3,0.5-0.2c0.1-0.1,0.3-0.2,0.5-0.3c0.1,0.1,0.1,0.2,0.1,0.4C947.6,461.5,948.3,462,947.6,462.5z"/>
	<path class="st126" d="M944.5,441.7c0.3,0,0.5,0,0.7,0.2c0.2,0.1,0.4,0.2,0.5,0.3c0.1,0.2,0.4,0.5,0.4,0.8c0,0.2,0,0.4,0.1,0.6
		c-0.1,0.3-0.2,0.6-0.4,0.8c-0.2,0.1-0.4,0.1-0.6,0.2c-0.4-0.1-0.7-0.2-0.9-0.5c-0.1-0.1-0.3-0.2-0.4-0.3c-0.3-0.4-0.5-0.9-0.4-1.5
		C943.8,441.8,944.2,441.7,944.5,441.7z"/>
	<path class="st139" d="M944.2,444.1c-0.1,0.1-0.4,0.1-0.6,0.1c-0.2-0.1-0.2-0.3-0.1-0.4c0.1-0.1,0.3-0.2,0.4-0.1
		c0.1-0.1,0.4-0.1,0.5-0.2C944.6,443.7,944.4,443.9,944.2,444.1z"/>
	<path class="st91" d="M944.9,444.5c0,0.3,0,0.6-0.2,0.8c-0.1,0-0.2,0.1-0.3,0.2c-0.3-0.4-0.6-0.7-0.9-1.2c0.1-0.1,0.3-0.2,0.4-0.1
		C944.4,444.1,944.7,444.1,944.9,444.5z"/>
	<path class="st86" d="M946.2,445.9c0-0.5,0.1-0.8,0.6-0.8c0.3,1,0.4,1.8-0.1,2.7C946.3,447.3,945.7,446.7,946.2,445.9z"/>
	<path class="st53" d="M945.1,445.4v-0.2c0.1-0.1,0.1-0.2,0.3-0.3c0-0.2,0-0.2-0.2-0.2c-0.1-0.1-0.1-0.2-0.1-0.3l0.2-0.1l0.2-0.1
		l0.2-0.1c0.1-0.2,0.2-0.3,0.4-0.4c0.2,0,0.3,0.1,0.5,0.2c0.1,0.2,0.1,0.4,0.1,0.7c0.1,0.1,0.1,0.3,0.1,0.4
		c-0.2,0.3-0.4,0.6-0.6,0.8C945.8,445.7,945.5,445.6,945.1,445.4z"/>
	<path class="st149" d="M945.2,444.8c0.1,0.2,0.2,0.3,0.2,0.5c-0.1,0-0.2,0-0.2,0.1c-0.2,0-0.3-0.1-0.5-0.1c0-0.2,0-0.4,0-0.6
		C945,444.7,945.1,444.6,945.2,444.8z"/>
	<path class="st150" d="M949.5,443.4c0.2-0.2,0.4-0.3,0.6-0.4c0.2-0.1,0.5-0.1,0.7-0.1c0.6,0,0.9,0.5,1.4,0.8
		c0.2,0.3,0.3,0.5,0.4,0.9c0,0.4-0.2,0.7-0.5,0.7c-0.4-0.3-0.8-0.6-1.1-1l0,0c-0.1,0.2-0.2,0.4-0.3,0.7c-0.4,0.5-0.7,0.2-1.1,0.1
		c-0.1-0.3-0.2-0.5-0.3-0.7C949,444.1,949.3,443.8,949.5,443.4z"/>
	<path class="st151" d="M949.4,441.2c0,0.2-0.1,0.4-0.1,0.5c-0.3,0.4-0.3,0.9-0.5,1.2c-0.6,0.4-1.2,0.7-1.8,1
		c-0.2,0.1-0.3,0-0.4-0.2v-0.2c0-0.2,0-0.3,0.1-0.4c0-0.1,0.1-0.3,0.1-0.4c-0.1-0.1-0.2-0.1-0.2-0.3c0-0.2,0-0.2,0.1-0.4
		c0.6-0.5,1.7-0.6,1.9-1.7l0.2-0.1l0.2-0.1C949,440.5,949.2,440.9,949.4,441.2z"/>
	<path class="st76" d="M949.5,441.9c0.1,0.2,0.1,0.4,0.1,0.5c0,0.4,0,0.7-0.1,1.1c0,0.4-0.3,0.8-0.7,1.1c-0.1-0.5-0.3-1-0.4-1.5
		c-0.4-0.6-0.7-1.2,0.4-1.8C949.3,441.3,949.4,441.5,949.5,441.9z"/>
	<path class="st152" d="M952.6,444.5c0.9,0.1,1.3,0.7,1.2,1.5c-0.5,0.7-1.1,0.6-1.7,0.3c-0.1-0.3-0.2-0.6-0.4-0.8
		c0.1-0.2,0.2-0.5,0.2-0.7C952.1,444.6,952.3,444.5,952.6,444.5z"/>
	<path class="st84" d="M954.1,446.2c0,0.5,0.7,1.3-0.6,1.3c-0.2-0.3-0.5-0.5-0.9-0.4c-0.3-0.2-0.5-0.4-0.4-0.8c0.6-0.1,1,0,1.5-0.4
		C953.9,445.9,954,446,954.1,446.2z"/>
	<path class="st153" d="M950.3,445.9c-0.5,0.2-0.9-0.3-1.1-0.7c0.4,0,0.8-0.1,1.1-0.1C950.5,445.4,950.8,445.8,950.3,445.9z"/>
	<path class="st154" d="M946.7,444.7c-0.1-0.2-0.3-0.5-0.4-0.8c0.1-0.2,0.2-0.3,0.4-0.1c0.1,0.1,0.2,0.3,0.1,0.4
		C946.8,444.2,946.7,444.5,946.7,444.7z"/>
	<path class="st155" d="M946.9,460.4c0.1,0.1,0.3,0.2,0.5,0.4c-0.2,0.1-0.3,0.2-0.5,0.2C946.8,460.8,946.7,460.6,946.9,460.4z"/>
	<path class="st89" d="M947,461.1c0.2,0.3,0.2,0.7,0,1C946.7,461.7,946.6,461.5,947,461.1z"/>
	<path class="st156" d="M950.7,442.3c0.6-0.1,1-0.6,1.6-0.2c0.1,0.2,0.1,0.5,0.1,0.7c-0.1,0.4-0.1,0.8-0.2,1
		c-0.2,0.2-0.3,0.2-0.5,0.1c-0.4-0.2-0.7-0.5-1.1-0.7C950.3,442.9,950.4,442.5,950.7,442.3z"/>
	<path class="st124" d="M950,443.3c-0.6-0.1-0.7-0.5-0.6-1.1l0,0c0.1-0.4,0.4-0.5,0.8-0.4c0.2,0.1,0.4,0.3,0.6,0.5
		c-0.1,0.3-0.2,0.6-0.3,0.9C950.3,443.2,950.1,443.3,950,443.3z"/>
	<path class="st52" d="M949,441.3l0.2-0.1l0.2-0.1v0.1c0.2-0.1,0.4,0,0.6,0.1c0.1,0.2,0.2,0.3,0.1,0.4c-0.3,0.2-0.6,0.3-0.8,0.4
		C949.1,441.9,949.2,441.6,949,441.3z"/>
	<path class="st12" d="M946.1,443.9c0,0-0.1,0-0.2,0c-0.1-0.1-0.2-0.1-0.1-0.3c-0.1-0.2-0.1-0.3-0.2-0.5c0.1-0.4-0.1-0.6-0.4-0.7
		c-0.1-0.2-0.2-0.3-0.3-0.4c0-0.1,0-0.2-0.1-0.3c-0.1-0.1-0.1-0.3,0-0.5c0.1-0.3,0.2-0.5,0.5-0.6c0.1,0.1,0.1,0.2,0.2,0.3
		c0.2,0,0.3,0.1,0.5,0.3c0.2,0.3,0.2,0.5,0.1,0.8c0.2,0.1,0.2,0.3,0.3,0.4c0,0.2,0.1,0.2,0.1,0.4c0.1,0.1,0.2,0.2,0.1,0.4h-0.1
		c0,0.3-0.1,0.4-0.2,0.6l0,0C946.4,443.7,946.3,443.8,946.1,443.9L946.1,443.9z"/>
	<path class="st157" d="M952.2,451.5c0,0.3-0.1,0.4-0.5,0.3C951.8,451.6,951.9,451.5,952.2,451.5z"/>
	<path class="st17" d="M944.2,443.5c0.7-0.1,0.8,0.6,1.2,0.8l-0.1,0.1c0,0.3-0.2,0.3-0.4,0.1v0.1c-0.2-0.3-0.5-0.5-0.8-0.7
		C944.1,443.8,944.1,443.6,944.2,443.5z"/>
	<path class="st158" d="M945.4,442.3c0.5,0,0.7,0.2,0.4,0.7C945.6,442.7,945.5,442.5,945.4,442.3z"/>
	<path class="st154" d="M945.7,444.1c0.1-0.3,0.2-0.5,0.2-0.7c0.1,0.1,0.2,0.3,0.1,0.4C946.1,444,945.9,444,945.7,444.1z"/>
	<path class="st67" d="M945.4,444.8c0.1,0,0.1,0,0.2,0c0.1,0.1,0.1,0.2,0.1,0.3c-0.1,0.1-0.3,0.2-0.3,0.3c-0.1-0.2-0.4-0.5-0.6-0.7
		c0.1-0.1,0.3-0.2,0.4-0.1C945.4,444.4,945.3,444.7,945.4,444.8z"/>
	<path class="st156" d="M945.9,444.8c0.1,0.1,0,0.3-0.2,0.3c0-0.1-0.1-0.2-0.2-0.3C945.6,444.8,945.9,444.8,945.9,444.8z"/>
	<path class="st159" d="M952.6,443.2c0.4-0.1,0.7-0.3,1.2-0.2c0.4,0,0.7,0.2,0.8,0.6c0.1,0.2,0.2,0.3,0.2,0.5
		c-0.1,0.1-0.2,0.2-0.2,0.3c-0.1,0-0.2,0.1-0.3,0.1c-0.6,0.2-1.2-0.1-1.9,0.2c-0.1,0.1-0.3,0.2-0.4,0.1c-0.2-0.3-0.3-0.6-0.5-0.9
		c0.1-0.1,0.3-0.3,0.4-0.3C952.1,443.6,952.4,443.4,952.6,443.2z"/>
	<path class="st52" d="M949.6,443.4c-0.3-0.4-0.7-0.8-0.3-1.3c0.1,0.4,0.5,0.7,0.6,1.1C949.8,443.3,949.7,443.4,949.6,443.4z"/>
	<path class="st31" d="M950.6,444.4c0-0.2,0-0.3,0.2-0.2C950.8,444.3,950.7,444.4,950.6,444.4L950.6,444.4z"/>
	<path class="st160" d="M946.9,442.6c0,0.1,0,0.3-0.1,0.4c-0.1-0.1-0.1-0.2-0.1-0.4C946.8,442.5,946.9,442.6,946.9,442.6z"/>
	<path class="st154" d="M946.6,443.6c0.1-0.2,0.1-0.4,0.2-0.6C947,443.2,946.9,443.4,946.6,443.6z"/>
</g>
</svg>
