<svg xmlns="http://www.w3.org/2000/svg" xmlns:xlink="http://www.w3.org/1999/xlink" viewBox="0 0 341.69 168.62"><defs><style>.cls-1,.cls-3{fill:none;}.cls-2{clip-path:url(#clip-path);}.cls-3{stroke:#2f3a86;stroke-width:10px;}.cls-4{fill:#2f3a86;}</style><clipPath id="clip-path" transform="translate(-9 -7)"><rect class="cls-1" width="359.69" height="176.62"/></clipPath></defs><g id="Ebene_2" data-name="Ebene 2"><g id="Ebene_1-2" data-name="Ebene 1"><g class="cls-2"><rect class="cls-3" x="5" y="5" width="331.69" height="158.62"/><path class="cls-4" d="M305.24,118.27a5.92,5.92,0,0,1-1.95,4.76q-1.95,1.66-5.8,1.67h-6.93V111.78h6.93q3.86,0,5.8,1.7a6,6,0,0,1,1.95,4.79m.13,27.78h13.36l-9.52-13.86a15.13,15.13,0,0,0,6.4-5.57,15.57,15.57,0,0,0-7-22.68,25.23,25.23,0,0,0-10.4-2H278.09v44.09h12.47V134.34h6.81Zm-59.6-9.45a11.84,11.84,0,0,1-6.05-1.57,11.36,11.36,0,0,1-4.28-4.44,14.59,14.59,0,0,1,0-13.17,11.36,11.36,0,0,1,4.28-4.44,12.37,12.37,0,0,1,12.1,0,11.29,11.29,0,0,1,4.28,4.44,14.51,14.51,0,0,1,0,13.17,11.29,11.29,0,0,1-4.28,4.44,11.82,11.82,0,0,1-6,1.57m0,10.34a26.44,26.44,0,0,0,12.57-3,22.55,22.55,0,0,0,0-39.95,28.17,28.17,0,0,0-25.14,0,22.56,22.56,0,0,0,0,39.95,26.44,26.44,0,0,0,12.57,3m-43-28.67a5.89,5.89,0,0,1-2,4.76,8.71,8.71,0,0,1-5.79,1.67h-6.93V111.78h6.93q3.84,0,5.79,1.7a6,6,0,0,1,2,4.79m.12,27.78h13.36l-9.51-13.86a15.1,15.1,0,0,0,6.39-5.57,15.57,15.57,0,0,0-7-22.68,25.23,25.23,0,0,0-10.4-2H175.65v44.09h12.48V134.34h6.8Zm-48-27.78a5.89,5.89,0,0,1-2,4.76,8.71,8.71,0,0,1-5.79,1.67h-6.93V111.78h6.93q3.84,0,5.79,1.7a6,6,0,0,1,2,4.79m.12,27.78h13.36l-9.51-13.86a15.1,15.1,0,0,0,6.39-5.57,15.57,15.57,0,0,0-7-22.68,25.23,25.23,0,0,0-10.4-2H127.77v44.09h12.48V134.34h6.8Zm-49.89,0h12.47V102H105.16Zm-10.08,0L95,102H84.68L69.56,127.41,54.07,102H43.8v44.09H55.33V123.31l11.27,18.4h5.55l11.34-19,.12,23.37Z" transform="translate(-9 -7)"/><path class="cls-4" d="M245.3,71.42V63.35h19.59V54H245.3V46.59h22.24V37H233v44.1h35.41V71.42ZM202.52,81.94q9.84,0,15.28-5.36t5.45-15.18V37H211V61q0,10.59-8.32,10.59T194.27,61V37H181.8V61.4q0,9.83,5.45,15.18t15.27,5.36m-59.59-.88h33.51v-9.9h-21V37H142.93Zm-26.91-9H105.57V63.1H116q6.56,0,6.56,4.47T116,72.05M114.13,46q6.3,0,6.3,4.22t-6.3,4.29h-8.56V46Zm13,12.1a10.83,10.83,0,0,0,4.38-3.94A10.47,10.47,0,0,0,133,48.48a9.8,9.8,0,0,0-4.41-8.41Q124.21,37,115.77,37H93.22v44.1H117q8.82,0,13.48-3.16A10.15,10.15,0,0,0,135.18,69,10.81,10.81,0,0,0,133,62.19a12.31,12.31,0,0,0-5.92-4.13" transform="translate(-9 -7)"/></g></g></g></svg>
