<?xml version="1.0" encoding="utf-8"?>
<!-- Generator: Adobe Illustrator 25.1.0, SVG Export Plug-In . SVG Version: 6.00 Build 0)  -->
<svg version="1.1" id="Ebene_1" xmlns="http://www.w3.org/2000/svg" xmlns:xlink="http://www.w3.org/1999/xlink" x="0px" y="0px"
	 viewBox="0 0 77.9 77.1" style="enable-background:new 0 0 77.9 77.1;" xml:space="preserve">
<style type="text/css">
	.st0{fill-rule:evenodd;clip-rule:evenodd;fill:#FFFFFF;}
</style>
<g>
	<path class="st0" d="M39.5,50.4c-0.1-0.2,0.7-0.9,0.1-1.2v0c0,0,0,0,0,0l-1.3,0c-0.1-0.5,0.4-0.3,0.6-0.5c0.3,0,0.4,0,0.5-0.2
		c0-0.3-0.2-0.6,0.2-0.9c-0.4,0.6,0.1,1.2,0.4,1.7C40.1,49.4,40.4,50,39.5,50.4L39.5,50.4z M38,27.4l0.1,0.1c0,0.1-0.1,0.3-0.3,0.3
		c-0.7-0.5-1,1-1.3,0c0.2-0.1,0.2-0.3,0.1-0.4h0l0,0c0-0.2-0.1-0.3,0.2-0.4c0.3,0.3,0.6-0.3,1,0L38,27.4L38,27.4z M35,29.3l-0.1,1.6
		l-0.3,0c0.1-0.4,0-1,0.1-1.6c0,0,0,0,0,0h0c0-0.3,0.1-0.7,0.2-1c0.2-0.1,0.1,0.2,0.2,0.2L35,29.3L35,29.3z M40.1,31.2
		c0,0.2,0,0.4-0.1,0.6c-0.1,0.3-0.4,0.5-0.7,0.5c-0.4-0.2-0.1-0.5-0.1-0.7l0.4-0.4l0.3-0.2C40,31,40.1,31,40.1,31.2L40.1,31.2
		L40.1,31.2z M34.6,35.2c-0.3,0-0.3-0.3-0.3-0.5c-0.1-0.2-0.1-0.3-0.1-0.4c0,0,0,0,0,0c0-0.6,0.4-1,0.1-1.6c0.4-0.6,0.4,0.4,0.4,0.7
		C34.7,34,34.6,34.6,34.6,35.2L34.6,35.2z M67,46.4c0-0.1,0-0.2,0.1-0.3h0c0.1-0.5,0.5-0.8,0.7-1.3c-0.1,0.5-0.4,0.9-0.6,1.4
		C67.1,46.1,67,46.4,67,46.4L67,46.4z M66.9,47.3l0.2,0.5c0-0.1-0.1-0.1-0.1-0.2c-0.1-0.1-0.1-0.1-0.1-0.2
		C66.8,47.4,66.8,47.3,66.9,47.3L66.9,47.3L66.9,47.3z M36.9,41.1c0,0,0-0.1,0-0.1c0.2,0,0.4-0.1,0.4,0.1c0,0,0,0,0,0
		C37.2,41.2,36.9,41.3,36.9,41.1L36.9,41.1z M37.7,39.3c0.1,0.3,0.1,0.7,0.5,0.9c0.2,0.1,0.6,0,0.6-0.2c0-0.3,0-0.6-0.1-0.8
		c-0.2-0.5-0.6-0.9-1.2-1.2c-0.1-0.4,0.4-0.2,0.6-0.3c-0.2-0.1-0.3-0.2-0.5-0.3c-0.3-0.2-0.6-0.3-0.8-0.3c-1,0.3-1.5-0.9-2.5-0.9
		c-0.2,0.2-0.8,0-0.7,0.4l0.5,0c0.4,0.5-0.4,0.4-0.5,0.8h0c0,0,0,0.1,0,0.1c-0.9,0.2-1.3,0.9-1.5,1.7h0c-0.1,0.3-0.1,0.6-0.2,0.9
		c0,0.2,0.2,0.5,0.4,0.4c0.3-0.2,0-0.6,0.3-0.8c0.5,0.3,0.3,0.9,0.5,1.4c0,0.2,0.1,0.4,0.4,0.5c0.3,0.1,0.4-0.2,0.6-0.5
		c0.1-0.1,0.1-0.2,0.2-0.3c0.2-0.7-1.1-0.9-0.8-1.5c0,0,0-0.1,0.1-0.1c0.1,0,0.1,0,0.2,0.1c0.6,0.3,1.1,1.1,1.3,1.7
		c0.3,0.1,0.3-0.3,0.6-0.4c0.7-0.6-0.2-0.9-0.5-1.4h0c-0.1-0.2-0.1-0.3,0-0.6c0.3,0.1,0.5,0.3,0.7,0.6h0c0.2,0.2,0.3,0.4,0.5,0.6
		c0.3,0.3,0.8,0.2,1.1,0c0.1-0.2,0-0.4-0.1-0.6c-0.3-0.5-1.1-0.6-1.4-1.1c-0.1-0.1,0-0.3,0.2-0.4c0.3,0.3,0.8,0.5,1.1,0.6
		c0.4,0.1,0.6,0.4,0.7,0.6C37.6,39.1,37.6,39.2,37.7,39.3L37.7,39.3z M31.5,39.2l-0.3,0.8c-0.5,0.1-0.3-0.4-0.4-0.6
		c0-0.1,0-0.1,0-0.2c0.1-0.6,0-1.4,0.8-1.6c0.3,0,0.3,0.3,0.2,0.4c-0.2,0.1-0.4,0.1-0.5,0.3c0,0.1,0,0.2,0.1,0.3c0-0.1,0.2,0,0.2,0
		L31.5,39.2L31.5,39.2z M14,44.2c0.3-0.2,0.5-0.4,0.5-0.7c-0.5-0.7-1.2-0.1-1.8,0.2c-0.2,0.2-0.2,0.3-0.2,0.5c0,0.1,0,0.2,0,0.3
		c0.2,0.1,0.1,0.5,0.4,0.4C13.2,44.6,13.7,44.4,14,44.2L14,44.2z M21,37.7c0-0.2,0-0.5,0-0.7c0-0.3,0-0.6-0.1-0.9h0
		c-0.1-0.6-0.1-1.2-0.1-1.8c0.3,1.8,0.9,1.5,0.6,2.6C21.2,37.4,21.1,37.6,21,37.7L21,37.7z M20,31.2c0,0.2,0.1,0.4,0.1,0.5
		c-0.4,0.3-0.9,0.5-1.4,0.7c-0.1,0.1-0.2,0.1-0.3,0.2c-1,0-1.2-0.2-1.2-0.3c0.5-0.5,1.1-0.8,1.6-1.1h0c0.3-0.2,0.6-0.4,0.8-0.7
		C19.8,30.6,19.9,30.9,20,31.2L20,31.2z M20.7,49.2c-0.1,0.2-0.2,0.4-0.3,0.6c0-0.2,0-0.4,0-0.6h0c0-0.1,0.1-0.3,0.2-0.3
		C20.7,48.9,20.8,49.2,20.7,49.2L20.7,49.2z M29.5,52.3c-0.3,0.5-0.5,1.1-1,1.3c-0.5-0.4-0.7-1-0.7-1.6c0-0.3,0-0.6-0.1-0.9
		c0-0.1,0-0.1,0-0.2c0.4-0.7,1.2-1.1,1.8-1.6c0.4-0.3,0.8-0.6,1.1-1c0.2-0.2,0.7,0,0.7,0.3c0,0.2-0.1,0.4-0.1,0.6h0l0,0
		c-0.2,0.6-0.6,1-0.9,1.5c-0.2,0.4-0.4,0.7-0.5,1.2C29.7,51.9,29.5,52.3,29.5,52.3L29.5,52.3z M32.4,49.3c-0.3,0.1-0.1,0.6-0.4,0.4
		c-0.1-0.2-0.2-0.3-0.1-0.5c0,0,0.1-0.1,0.1-0.1h0c0.1-0.2,0.2-0.3,0.4-0.3C32.4,48.9,32.3,49.2,32.4,49.3L32.4,49.3z M41,56
		c0,0.1,0,0.1,0,0.2c0-0.1,0-0.1-0.1-0.2h0c-0.1-0.2-0.2-0.4-0.1-0.6C41,55.6,41,55.8,41,56L41,56z M45.2,61.1L45.2,61.1
		c-1.6,0.4-3.5,0.3-5,0.8c-0.7-0.3-1.7,0.7-2.4,0c-0.8-0.3-1.6-0.6-2.4-0.9c1,0.2,2,0.5,3.1,0.9c2.5-0.4,5.8-0.7,8.2-1l0.3,0.3
		c0.9,0,1.8-0.3,2.7-0.2c0,0.8-1.1,0.2-1.5,0.7c-1.3,0.1-2.7,0.2-4,0.5c-0.3,0.1-0.6,0.1-0.8,0.2c-1.6-0.2-2.8,0.5-4.3,0.5
		c-0.2-0.1,0-0.4-0.1-0.5c0.5-0.1,1-0.2,1.5-0.2c0.9-0.2,1.8-0.3,2.6-0.4c0.2-0.2,0.5,0,0.8-0.2c0.7-0.1,1.3-0.2,2-0.5
		C45.8,60.9,45.4,61.2,45.2,61.1L45.2,61.1z M37.7,62.2c0.3,0.1,0.6,0.2,0.9,0.2l0,0.4c-0.8-0.2-1.6-0.4-2.4-0.7
		c-0.9-0.3-1.8-0.7-2.7-1c-0.1,0-0.2-0.3,0-0.3C34.8,61.1,36.2,61.8,37.7,62.2L37.7,62.2z M41.2,57.3c0-0.2,0-0.4-0.2-0.6L40.6,57
		c0,0.1,0,0.2-0.1,0.2h0c-0.2,0.3-0.5,0.6-0.2,0.9c0.4,0,0.6-0.2,0.9-0.5C41.1,57.6,41.2,57.4,41.2,57.3L41.2,57.3z M45.8,54.3
		c-0.2,0.2-0.3,0.4-0.1,0.6l0.3-0.2c0.3,0.1,0.5-0.7,0.8-0.2c0-0.4-0.2-0.7-0.4-1.1c-0.2-0.4-0.1-0.8,0.1-1.2c0,0,0,0,0-0.1v0
		c0,0,0,0,0,0c0-0.4,0.1-0.9,0.2-1.3l0,0h0c0.2-0.6,0.6-1.2,0.9-1.9l0,0h0c0.1-0.3,0.3-0.6,0.4-0.9l-0.4,0c-0.2,0-0.3-0.2-0.4-0.3
		c0-0.4,0.5-0.4,0.8-0.4c0.1-0.1,0.2-0.2,0.2-0.3l0,0h0c0.2-0.4,0.1-0.8,0.2-1.2c0-0.1,0-0.1,0-0.2c-0.5,0-1,0.1-1.5,0.2
		c-0.3,0-0.5,0.1-0.8,0.1c-0.2,0.4-0.5,0.7-0.6,1.1c0,0,0,0.1,0,0.2c-0.2,0.5-0.2,1.1-0.2,1.7c0,0,0,0,0,0c0,0.6,0,1.3-0.1,1.9
		c0,0,0,0,0,0h0c-0.1,0.4-0.2,0.9-0.4,1.3c0,0.1-0.1,0.1-0.1,0.2c0.2,0.5,0.2,1.1,0.1,1.6h0c0,0.1-0.1,0.3-0.1,0.4
		c0.2,0.2,0.2,0.7,0.6,0.4c0.1-0.2-0.2-0.6,0-0.8c0,0,0.1-0.1,0.1-0.1c0.2-0.1,0.6-0.3,0.7,0C45.9,54.2,45.9,54.3,45.8,54.3
		L45.8,54.3z M43.7,56.4c0.1-0.1,0.1-0.2,0.2-0.3h0c0.1-0.3,0.2-0.6,0.2-0.9c0-0.2-0.5-0.9-0.7-0.9c-0.2-0.2-0.3-0.4-0.1-0.8
		c0.2-0.3,0.4-0.7,0.5-1.1l0,0v0c0.1-0.4,0.2-0.8,0.3-1.2c0,0,0,0,0,0h0c0.1-0.6,0.2-1.3,0.4-1.9c0,0,0,0,0,0l-0.1-0.4
		c-0.2,0.1-0.4,0.3-0.5,0.5h0c-0.2,0.3-0.4,0.6-0.6,0.8c-0.2,0.3-0.3,0.7-0.4,1v0c-0.1,0.6-0.1,1.3-0.1,2c-0.1,0.8-0.2,1.5-0.8,2.2
		c-0.3,0.2-0.5,0.5-0.5,0.9h0c0,0.3,0.1,0.7,0.1,1c0,0.2,0.1,0.4,0.1,0.5c0.6-0.3,1.1-0.9,1.4-1.6c0.1-0.1,0.1-0.2,0.2-0.4
		c0.2,0,0.3,0.2,0.3,0.4C43.6,56,43.7,56.3,43.7,56.4L43.7,56.4z M24.4,51c0,0.1-0.1,0.1-0.1,0.2c-0.3,0.5,0,0.8,0.4,1.1h0
		c0.2,0.2,0.4,0.3,0.6,0.5c0.3,0.1,0.7,0.4,0.9,0.1c0-0.7,0-1.4-0.2-2.1c-0.3-0.3-0.7-0.6-1.1-0.6C24.5,50.3,24.6,50.7,24.4,51
		L24.4,51z M28.7,59.9c-0.9,1.6-3,1.2-4.6,1.2c-1-0.6-2.1-1-3.2-1.4v0c-1.4-0.5-2.7-0.9-4-1.6c-0.5-0.5-1.2-0.6-1.8-0.9
		c-0.2-0.1-0.4-0.2-0.6-0.4c-0.2,0.1-0.5,0.3-0.6,0.5c0,0.9-0.4,1.6-0.8,2.3c-0.1,0.3-0.3,0.6-0.4,0.9c0.1,0.3,0.3,0.9,0.8,1.1
		c1.1,0.2,0.4-0.9,0.8-1.4c0.5,0.1,0.8-0.3,1.1-0.7v0c0.2-0.3,0.5-0.6,0.9-0.7c0.6,0.2,1.2,0.4,1.8,0.7h0c0.9,0.4,1.8,0.8,2.8,1
		c1.3,0.4,2.7,1.1,4.1,1.1c1.2-0.1,2.2,0.1,3.4,0.3c0.6-0.7,1.5-1.4,1.6-2.3h0c0-0.2,0-0.4-0.1-0.6c-0.2-0.2-0.3-0.8-0.7-0.6
		c0,0.4-0.3,0.7-0.4,1.1C28.7,59.7,28.7,59.8,28.7,59.9L28.7,59.9z M36.1,42.3c0.1-0.2,0.1-0.5,0.1-0.8c0-0.3-0.3-0.5-0.6-0.4
		c-0.2,0.3-0.7,0.6-0.8,0.9c0,0.1-0.1,0.2-0.2,0.3h0c-0.2,0.4-0.5,0.7-0.3,1.2c0.3,0.2,0.7,0,1,0C35.4,43.4,36.1,42.3,36.1,42.3
		L36.1,42.3z M37.7,44.2c0.5-0.4,0.6-1.1,0.9-1.6c0.1-0.1,0.4,0,0.4-0.2c0,0,0-0.1,0-0.1C38.8,42,38.5,42,38.3,42
		c-0.1,0-0.5,0.3-0.5,0.4c-0.1,0.2-0.2,0.4-0.3,0.7c-0.1,0.8-1.4,0.3-1.1,1.1c0.1,0.1,0.1,0.1,0.2,0.2c0.2,0.1,0.4,0.1,0.5,0.1
		C37.4,44.4,37.5,44.3,37.7,44.2L37.7,44.2z M41.5,31.2c-0.1-0.2-0.5-0.4-0.5,0h0c0,0,0,0,0,0c0,0,0,0.1,0,0.1
		c0.1,0.1,0.1,0.3,0.3,0.3c0-0.1,0.2-0.2,0.1-0.3C41.6,31.2,41.6,31.2,41.5,31.2L41.5,31.2z M55,34.3c0-0.2-0.1-0.4,0-0.5
		c-0.2-0.4-0.3-0.9-0.3-1.3c-0.1-0.4-0.1-0.8-0.1-1.2c0,0,0,0,0,0c0-0.2,0-0.3,0-0.5c0-0.5,0.1-1.1,0.4-1.5c0.3-0.6,0.9-1.2,1.4-1.7
		l0,0h0c0.3-0.3,0.7-0.6,1-0.8v-0.1L56.2,27l-0.4,0.4l-1.4,1.5c-0.1,0.1-0.1,0.2-0.2,0.3h0c-0.2,0.6-0.4,1.2-0.4,1.9c0,0,0,0,0,0
		c0,0.4,0,0.8,0.1,1.2h0c0,0,0,0,0,0c0.1,0.7,0.4,1.3,0.8,1.8c0,0.1,0.1,0.1,0.2,0.2C55.1,34.3,55,34.3,55,34.3L55,34.3z M11.3,29.1
		c-0.1-0.4-0.2-0.8-0.5-1.1c-0.1-0.2-0.1-0.4-0.1-0.6c0-0.2,0.1-0.3,0.3-0.4c0.2,0.1,0.3,0.3,0.4,0.5c0.2,0.4,0.3,1,0.7,1.3
		c0.3,0.1,0.7,0.3,0.9,0c0.4-0.4,0.4-0.8,0.3-1.3c0,0,0-0.1,0.1-0.1h0c0.2-0.4,0.2-1,0.6-1.1c0.4,0.3,0.3,0.7,0.1,1.1l0,0v0
		c-0.1,0.2-0.1,0.4-0.1,0.6c0.6,1.1,1.6-0.6,2.3,0.2c0.3,0,0.7,0.6,1,0.4c0-0.4,0.2-0.7,0-1c-0.1-0.1-0.2-0.1-0.3-0.2h0
		c-0.3-0.1-0.7,0-1-0.1c-0.1-0.3-0.1-0.8,0.2-1.1c0.4-0.1,0.7,0.1,0.9,0.3c0.7-0.1,1.7,0.8,2.4-0.1c-0.2-0.4-0.7-0.3-1.1-0.3
		c-0.2-0.1-0.4-0.3-0.4-0.5c0,0,0,0,0,0c0.1-0.3,0.4-0.4,0.6-0.6c0.1-0.6-0.5-0.7-0.7-1.1c0-0.1-0.1-0.1-0.1-0.2l0,0v0
		c-0.1-0.2-0.1-0.5-0.4-0.5c-0.1,0.2-0.1,0.3-0.1,0.5c-0.1,0.6,0.1,1.2-0.2,1.8c0,0.1-0.1,0.1-0.1,0.2c-0.1,0.2-0.4,0.1-0.6,0.1
		c-0.1-0.1-0.2-0.1-0.3-0.2c-0.4-0.5,0.1-1.2,0.3-1.8l0,0h0c0.1-0.2,0.1-0.4,0-0.6c0-0.5,0.1-0.9,0.3-1.3l0,0v0
		c0.4-0.7,1.1-1.3,1.6-1.8c0,0,0,0,0,0c0.1-0.3-0.3-0.6-0.1-1h-0.3c-0.4,0.3-0.9,0.6-1.3,1c-0.7,0.5-1.4,1.1-1.9,1.7
		c0,0.1-0.1,0.1-0.1,0.2h0c-0.4,0.7,0,1.2,0.3,1.9c0.2,0.3,0.3,0.7,0.3,1.1c0.1,0.3,0.4,0.5,0.4,0.8c0,0.1,0,0.1,0,0.2
		c-0.3,0.1-0.5,0-0.7-0.2c-0.3-0.3-0.5-1-0.7-1.4c-0.4-0.6-1.1-0.4-1.8-0.4c-0.5,0.6-1.2,1.1-1.8,1.7h0c-0.5,0.5-1,1.1-1.1,1.8
		l0,0.1c0.3,0.6,0.5,1.4,1,1.8c0.1,0.1,0.2,0.2,0.3,0.2c0.1,0,0.3,0.1,0.4-0.1C11.3,29.3,11.3,29.2,11.3,29.1L11.3,29.1z M16.9,29.2
		c-0.7-0.5-1.6-0.3-2.4,0.1c-0.5,0.3-1,0.6-1.4,0.8c-0.6-0.1-1.2,0.2-1.8,0.2c-0.4-0.2-0.8-0.3-1.2-0.3l0,0.5
		c0.3,0.3,0.7,0.5,1.1,0.6h0c0.2,0,1.7,0,2,0l0,0c1-0.1,1.9-0.3,2.8-0.3c0.6-0.5-0.5-0.7-0.5-1.2c0-0.2,0.3-0.2,0.4-0.2
		c1,0.2,0.6,1.7,1.8,1.4c1.1-0.2-0.4-0.6-0.3-1.1C17.2,29.4,17.1,29.3,16.9,29.2L16.9,29.2z M29.7,36.1c0.1-0.6,0.1-1.2,0.3-1.8
		l0.1-0.1c0.4-0.5,0.4-1.2,0.9-1.7c0.1-0.1,0.3-0.2,0.4-0.3c0.3-0.3,0-0.7,0.5-0.9c0,0,0-0.1,0-0.1l0,0c0.1-0.6,0.5-1.1,0.5-1.7
		h-0.6c-0.4,0.5-0.7,1.2-1.1,1.7h0c-0.4,0.5-1,0.8-1.7,0.7c-0.6,0-1.3-0.3-1.7-0.7h0c-0.2-0.2-0.4-0.4-0.5-0.7
		c-0.6-0.3-0.9-0.8-1.4-1.2h0c-0.3-0.3-0.5-0.5-0.9-0.6c0,0.2,0,0.4,0,0.6c0,0,0,0,0,0c0,1.2,0.2,2.1,0,3.1h0c0,0.1,0,0.1,0,0.2
		c-0.5,1.5,1,2,0.4,3.2c0,0.2,0.1,0.3,0.2,0.4c0.2,0.2,0.4,0.4,0.2,0.6c-0.3,0.2-0.6-0.1-0.8-0.3c0-0.1-0.1-0.2-0.1-0.3
		c-0.1-0.6-0.3-1.3-0.5-1.9h0c-0.1-0.3-0.2-0.6-0.3-0.9c-0.2-1.4,0.1-0.7,0-2.2h0c0,0,0,0,0,0c0-0.3,0-0.5-0.1-0.8
		c-0.4-0.8-0.1-2,0.3-2.9c0.1-0.3,0.2-0.7,0.3-1c0-0.3,0.1-0.6,0.2-0.9c0.3-0.7,1-1.3,1.5-1.9v0c0.4-0.4,0.8-0.9,0.9-1.5
		c0.1-0.1,0.2-0.2,0.2-0.4v0c0.2-0.6-0.1-1.3-0.2-1.9c0,0,0-0.1,0-0.1c-0.1-0.4-0.6-0.6-0.6-1.1c0.3-0.5,0.8,0.1,1.2,0.2l0,0.9
		c0.1,0,0.2,0,0.3,0.1c0.3,0.2,0.4,0.7,0.8,0.6c-0.1-0.2,0.1-0.4,0.2-0.6c0.1-0.1,0.2-0.3-0.2-0.4c0-0.3,0.2-0.6,0.3-1
		c0.3-0.2,0.6,0.4,0.8,0.6c0.4,0.1,0.5,0.5,0.5,0.8v0c0,0.3-0.1,0.6-0.1,0.8c0.5,0,0.6-0.4,0.9-0.8c0,0,0,0,0,0c0-0.5-0.4-1.2,0-1.7
		c0.5,0.2,0.6,0.8,0.7,1.3c0.9,0.3,0.5-1,0.9-1.4c0.2-0.1,0.5-0.3,0.7-0.1c0.2,0.3-0.4,0.5-0.4,0.8c0,0.3,0,0.8,0.3,0.9
		c0.3,0.1,0.3-0.2,0.5-0.4c0.6-0.1,0.3,0.3,0.4,0.6c0,0.1,0.1,0.2,0.3,0.2c0.3,0.1,0.4,0,0.7-0.1c0,0,0-0.1,0-0.1v0c0,0,0,0,0,0h0
		c0-0.3,0.2-0.6-0.2-0.8c-0.1-0.2,0-0.4,0.2-0.5c0.2-1.5-1.2-0.5-1.6-1.2c-0.1-0.1-0.1-0.2-0.1-0.4c-0.3-0.4-1-0.1-1.3-0.2
		c-0.2-0.2-0.3-0.4-0.4-0.6c-0.4-0.2-0.8,0.1-1.2,0c-0.4,0.4,0.1,0.7,0.1,1.1c0,0,0,0.1-0.1,0.1c-0.3,0.4-0.5,0.3-0.6,0
		c-0.2-0.3-0.3-0.8-0.8-0.8c-0.1-0.1,0-0.4-0.2-0.4c-0.6,0.2-0.3,0.8-0.4,1.2c0,0.2-0.1,0.4-0.3,0.5c-0.1-0.3-0.4-0.4-0.6-0.5
		c-0.3-0.1-0.7,0-1-0.1c0,0,0,0.1,0,0.1c0.1,0.7-0.5,1-0.7,1.6c-1.3-0.5-2.8,0-4-0.1c-0.5,0.5-1.1,0.7-1.7,1
		c-0.4,0.2-0.8,0.5-1.1,0.8c-0.2,0.3-0.3,0.7-0.4,1h0c-0.1,0.5-0.2,1-0.1,1.5c0,0,0.3,0.3,0.4,0.3c0.4,0.4,0.8,0.8,1.3,0.8
		c0.3-0.1,0.7-0.4,0.8-0.8c0,0,0-0.1,0-0.1c0.6-0.4,0.5-1.9,1.5-1.3c-0.2,0.5-0.5,0.9-0.7,1.4l0,0h0c-0.3,0.5-0.5,1-0.7,1.6
		c0,0.1,0,0.2,0,0.3c0,0.7-0.1,1.3-0.3,1.9c0,0-0.5,1.7-0.5,1.9c0,0.2-0.1,0.3-0.1,0.5c0.1,0.5,0.3,0.9,0.5,1.4
		c0.2,0.4,0.3,0.8,0.5,1.2c0.3,0.6,0.5,1.2,0.8,1.9h0c0.1,0.3,0.2,0.6,0.3,0.8c0.3,0.3,0.2,0.7,0.4,1h0c0.1,0.1,0.1,0.2,0.3,0.3
		c0.3,0.4,0.2,0.7,0,1h0c-0.2,0.3-0.4,0.6-0.2,1l0.4-0.3c0.3,0.3-0.1,0.8,0.1,1.1c0.5-0.2,0-0.7,0.4-1c0.6,0.1-0.1,0.7,0.4,1
		c0-0.7,0.5-1.1,0.9-1.6c0.1-0.1,0.2-0.3,0.4-0.3c0.1,0,0.2,0,0.3,0.1h0c0.2,0.1,0.4,0.2,0.6,0.1c0,0,0.1,0,0.1-0.1
		c-0.1,0-0.2-0.2-0.3-0.1c-0.3-0.1-0.4-0.3-0.4-0.6c0.1-0.1,0.2-0.1,0.3-0.1c0.5,0.3,1.1,0.3,1.5,0.7c0.2,0.1,0.1,0.2,0.3,0.2
		c0.5,0.1,1,0.1,1.4,0.2C29.5,37.2,29.6,36.7,29.7,36.1L29.7,36.1z M52.1,42.3c0-0.4-0.1-0.8-0.3-1.2h0c-0.2-0.5-0.4-1-0.2-1.7
		c-0.1-0.3-0.5-0.1-0.6,0.1c-0.2,1.1-0.2,2.3-0.3,3.4c0.1,0.5-0.3,1.1,0.1,1.6c0.4,0,0.6-0.1,0.7-0.3h0c0.3-0.4,0.2-1.3,0.6-1.7
		C52.1,42.5,52.1,42.4,52.1,42.3L52.1,42.3z M55.8,41.1c0.5-0.6,0.8-1.2,1.1-1.8c0.1-0.2,0.2-0.4,0.3-0.6c-0.2,0.2-0.4,0.4-0.6,0.6
		c-0.6,0.6-1.2,1.3-1.9,1.9c-0.1,0.1-0.2,0.2-0.3,0.3c-0.2,0-0.2-0.1-0.2-0.3c0,0,0,0,0,0c0,0,0,0,0-0.1c0.6-0.6,1.2-1.2,1.7-1.8
		c0.2-0.2,0.4-0.5,0.6-0.7c0.2-0.4-0.3-0.3-0.5-0.2c-0.3,0.4-0.6,0.7-1,1h0c-0.6,0.5-1.2,0.9-1.6,1.4c-0.1,0.2-0.2,0.3-0.3,0.5v0
		c-0.4,0.7-0.9,1.4-0.8,2.2h0.3l1.4-1l1.4-1C55.7,41.3,55.8,41.2,55.8,41.1L55.8,41.1z M19.5,39.2c0.5-0.6,0.7-1.2,0.8-1.9
		c0.2-1.8,0.1-1-0.2-3.1h0c0,0,0,0,0,0c0-0.4-0.1-0.7-0.1-1.1c-0.5-0.3-0.8,0.3-1,0.6c-0.4-0.1-0.7-0.4-1.1-0.2
		c0,0.3,0.2,0.4,0.3,0.7c0.1,0.1,0.1,0.2,0.1,0.3c0.1,0.5,0.3,1,0.4,1.5c0.1,0.3,0,0.7-0.1,1c-0.2,0.2-0.5,0-0.7-0.2
		c0,0.2,0.1,0.3,0.1,0.5h0c0.2,0.7,0.6,1.3,1.1,1.9h0c0.1,0.1,0.1,0.1,0.2,0.2C19.3,39.4,19.4,39.3,19.5,39.2L19.5,39.2z M21.5,39.2
		c-0.6,0.2-1.1,0.5-1.6,0.9c-0.5,0.2-0.9,0.5-1.3,0.9c-0.4,0.4-0.4,0.4-1.1,0.9c-0.3-0.1-0.3-0.6-0.5-0.7c-0.1,0-0.1,0-0.2,0h0
		c-0.2,0-0.3,0-0.5,0c-0.4,0.1-0.7,0.2-1,0.4c-0.5,0.8-0.3,1.8-0.3,2.7c-0.2,0.3-0.6,0.4-0.9,0.5c-0.4,0.4-1.1,0.6-1.1,1.3
		c0,0.1,0.1,0.1,0.1,0.2h0c0.3,0.4,0.8,0.9,1.2,1.2c0.1,0.1,0.3,0.3,0.4,0.4c1.2,0,1.5,0.6,1.8,1.4h0c0.2,0.6,0.4,1.2,0.8,1.6
		c0.1,0.1,0.3,0.2,0.5,0.3c0,0.2,0,0.3-0.2,0.4c-0.4,0-0.7-0.2-0.9-0.4c-0.4-0.5-0.6-1.2-0.8-1.8c0,0,0-0.1,0-0.1h0
		c-0.3-0.8-1.2-0.8-1.8-1.2c-0.5-0.3-1.1-0.4-1.7-0.7c-0.1-0.1-0.2-0.1-0.3-0.2c0-0.7,0.8,0,1.1-0.2c0-0.8-1.4-1.2-1.8-0.8
		c0,0-0.1,0-0.1,0.1c-0.4,0.3-0.7,0.7-0.8,1.2h0c-0.1,0.4-0.1,0.9,0,1.3c0.2-0.1,0.5-0.2,0.7-0.1c0.1,0.2-0.1,0.4-0.2,0.5
		c0,0.1,0,0.1-0.1,0.2c-0.1,0.2-0.2,0.5,0.1,0.7c0.6,0.3,1.1-0.3,1.5-0.6c0.1-0.1,0.2-0.1,0.3-0.2c0.1,0,0.2,0.1,0.2,0.2
		c0.1,0.2-0.4,0.5-0.2,0.8c0.5,0.3,1.1,0,1.8,0c0.3,0,0.5,0.2,0.5,0.5c0.1,0.5-0.6,0.3-0.8,0.3c-0.1,0.1-0.1,0.1-0.1,0.2
		c-0.1,0.3,0.3,0.8,0.4,1.2c0,0,0,0.1,0,0.1c-0.1,0.3-0.3,0.2-0.4,0c-0.2-0.2-0.3-0.5-0.5-0.5c-0.1,0.2-0.2,0.3-0.2,0.5h0
		c-0.1,0.7,0.2,1.3,0.6,1.9c0.3,0.5,0.7,1,0.8,1.6c0.1,0,0.2,0.1,0.3,0.3h0c0.3,0.4,0.6,1.1,1.3,0.7c0.3-0.1,0.1-0.5,0.4-0.6
		c0.3,0.3,0.6,0.7,0.9,1.1c0.3,0.3,0.6,0.6,1.1,0.6c0.3-0.1,0.1-0.5,0.4-0.5l0.4,0.4c0.4,0.8,1.4,1.1,2.1,1.4
		c0.6,0.2,1.3,0.9,1.9,0.6c0.5-0.2,1-0.8,1.5-0.6c0.1,0.4-0.3,0.6-0.6,0.7h0c-0.1,0.1-0.3,0.1-0.4,0.3c1,0.9,2.3,0.3,3.4-0.2
		c0.3-0.1,0.5-0.2,0.8-0.3c0.5-0.2,0.7-0.8,0.8-1.3c0-0.3,0-0.6-0.1-0.9h0c0,0,0,0,0,0c0-0.4-0.1-0.8-0.1-1.2h0c0,0,0,0,0,0
		c-0.1-0.7-0.3-1.3-0.6-1.9c-0.1-0.3-0.3-0.5-0.5-0.7c-0.1-0.4-0.2-0.7-0.3-1.1h0c-0.1-0.3-0.2-0.7-0.3-1c0-0.1-0.1-0.2-0.1-0.3
		c-0.2,0-0.3,0-0.3,0.1c0,0.2,0,0.2,0.1,0.4c0,0.3,0,0.5,0,0.8h0c0.1,0.6,0.3,1.3,0.4,1.9h0c0.3,0.9,0.6,1.8,0.6,2.8
		c0,0.1-0.1,0.2-0.2,0.4c-0.3,0.4-0.7,0.8-1.1,1c-0.1-0.1-0.2-0.2-0.2-0.3c0-0.4,0.3-0.7,0.6-1c0.2-0.3,0.4-0.6,0.2-0.9v0
		c0,0,0-0.1-0.1-0.1C27,56,26.9,56,26.9,56c-0.2,0.1-0.4,0.1-0.7,0h0c-0.1,0-0.2-0.1-0.2-0.1c-0.2,0.2,0.2,0.5-0.1,0.7
		c-0.4,0-0.2-0.3-0.3-0.6c0-0.1,0-0.1-0.1-0.1c0-0.6-0.9-1-0.4-1.5c0.7,0,1,0.9,1.3,1.2c0.2-0.1,0.1-0.3,0.1-0.4
		c-0.3-0.3-0.6-0.7-0.8-1h0c-0.6-0.7-1.2-1.4-2.2-1.2c-0.3-0.5,0.1-1.1,0.1-1.6c0-0.1,0-0.2,0-0.3c0-0.3,0.1-0.6,0.2-0.8
		c0.5-1,1.1-1.9,1.4-2.9l0,0h0c0.1-0.2,0.1-0.4,0.1-0.6c0.3-0.4,0.6,0.2,0.8-0.1c0.2-1-0.5-1.8-1.2-2.4c-0.7,0-1.5,0.1-2,0.5
		c-0.2,0.4-0.4,0.9-0.6,1.3c-0.4,1-0.7,2-0.9,3.1c0,0,0,0.1,0,0.1c-0.3,0.5-0.4,1.1-0.3,1.8h0c0,0.4,0.1,0.8,0.1,1.3
		c0,0.1,0,0.2,0,0.3c0.1,0.6,0.4,1.1,0.9,1.5h0c0.3,0.3,0.7,0.5,1.1,0.7c0.1,0.4-0.2,0.8-0.2,1.1c0,0,0,0,0,0c0.1,0,0.1,0,0.2,0h0
		c0.3-0.1,0.3-0.5,0.5-0.6c0.2,0.2,0.3,0.4,0.3,0.6c0.1,0.3,0.2,0.6,0.5,0.7c0-0.3-0.1-0.5-0.2-0.7c-0.1-0.2-0.2-0.4-0.1-0.6
		c0.3,0,0.5,0.3,0.6,0.6c0,0.1,0.1,0.1,0.1,0.2c0.1,0.4,0.6,0.5,0.6,0.9c-0.2,0.3-0.5,0-0.7,0c0,0.1-0.1,0.2-0.1,0.3h0
		c0,0.1-0.1,0.2-0.1,0.3c-0.1,0-0.2,0.1-0.3,0c-0.5-0.1-0.1-0.6-0.8-1c-0.4,0-1,0.6-1.4,0c-0.2-0.2-0.1-0.4-0.1-0.6l0,0h0
		c0.1-0.2,0.2-0.3,0.4-0.4c0.1-0.6-0.8-0.7-1.1-1.1c-0.4-0.2-0.4,0.3-0.6,0.5c-0.5,0-0.2-0.5-0.5-0.7c-0.3,0.2,0,0.7-0.6,0.8
		c-0.2-1.1-1.1-0.6-1.8-0.8c-0.1,0.3,0.2,0.8-0.3,0.9c-0.2-0.3-0.3-0.7-0.3-1.1c0,0-0.1-0.1-0.1-0.1c-0.4-0.4-1.1-0.2-1.5-0.5
		c-0.1-0.1-0.1-0.4,0-0.5c0.4-0.1,1,0,1.4,0.3c0.8,0.3,1.6,0.3,2.3,0c0.3-0.3,1.1-0.1,1.1-0.5c-1-0.6-1.7,0.4-2.8,0.1
		c-0.5-0.5-1.5,0-1.6-0.6c0.4-0.2,1-0.4,1.5-0.2c0.5-0.2,1.5,0.1,1.6-0.8c0.3-0.2,0.6,0.2,0.8-0.1c0.3-0.4,0.1-0.9-0.2-1.3
		c0-0.9,0.4-1.8,0.6-2.7l0,0h0c0-0.2,0.1-0.3,0.1-0.5c0-0.2-0.2-0.2-0.3-0.2c-0.4,0.5-0.6,1.1-0.7,1.8c0,0.1-0.2,0.3-0.3,0.3
		c-0.4-0.3,0-0.6,0-1c0.1-0.1,0.2-0.3,0.2-0.5l0,0h0c0.1-0.4,0.1-0.8,0.1-1.2h0c0-0.2-0.1-0.5-0.1-0.6c-0.3-0.4-0.9,0.2-1-0.5
		c-0.3-0.1-0.6,0-0.8,0.2c-0.6,0.4-0.5-0.4-0.7-0.6c-0.2-0.2-0.4,0.1-0.5,0.2c-0.3-0.1-0.6,0.2-0.9,0.3c-0.1,0-0.2-0.2-0.2-0.3
		c0.2-0.1,0.3-0.2,0.4-0.4c0.1-0.2,0.1-0.4,0.3-0.6c0.2-0.6-0.3-0.9-0.4-1.3c0,0,0-0.1,0-0.1c0.5-0.5,0.7-0.3,0.8,0.1
		c0,0.4,0.2,1.2,0.7,1.3c0.3,0.2,0.8,0.3,1.1,0.3c0.6,0.5,1.1-0.1,1.7-0.4c0.5-0.1,1-0.5,1.4-0.3c0,0.8-0.9,0.6-1.3,1
		c0,0-0.2,0.3-0.2,0.4c0.6,0.3,0.8,1,1.2,1.4l0,0l0.7,0.7c0-0.2,0.1-0.5,0.2-0.7c0.3-0.6,0.9-1,0.8-1.6c0-0.2,0-0.3,0-0.5
		c0-0.5,0.2-1.1-0.5-1.1c-0.2-0.2,0.1-0.3,0.2-0.5c0.1,0,0.2,0,0.3,0c0.8-0.1,1.2-1,2.1-0.9c0.9,0.3,2.4,0.6,3.2,0.9
		c0.1,0.1,0.2,0.1,0.4,0.2c0,0.1,0,0.2,0,0.3c-0.7,0-1.6-0.1-2.3-0.4c-0.3,0-0.7-0.1-1-0.1h0c-0.2,0-0.4,0-0.7,0l0,0h0
		c-0.3,0-0.6,0.1-0.9,0.4c-0.1,0.2,0,0.2,0,0.4c0.3,0,0.5-0.7,0.9-0.3c0,0.1,0,0.2,0,0.3c0.6,0.3,1.2,0.2,1.7,0.2
		c0.5,0,0.3,0.4,0.2,0.7c0,0.1,0.1,0.2,0.2,0.3h0c0.1,0.1,0.2,0.1,0.3,0.1c0.3,0.2,0.4,0.5,0.3,0.7c0.2,0.3,0.3,0.7,0.4,1h0
		c0,0.4,0.1,0.8,0.2,1.1c-0.1,0.1-0.1,0.1-0.2,0.2h0c-0.4,0.4-0.9,0.8-1.4,1.1l0,0.5c0.2,0.4,0.7,0.5,1.1,0.6c0.5,0.1,1,0,1.5-0.3h0
		c0.4-0.2,0.8-0.5,1.1-0.8c0.7-0.6,0.1-1.5,0.7-2.2c0.3,0.1,0.4,0.5,0.3,0.8c0.3,1.1,0.8-0.7,1.4-0.2c0.2-0.2,0.3-0.4,0.5-0.6l0,0h0
		c0.1-0.2,0.2-0.3,0.2-0.5c-0.1-0.3-0.2-0.6-0.2-1c0-0.4,0-0.9,0-1.3c-0.1-0.3-0.2-0.6-0.5-0.9c-0.5-0.5-1.2-0.9-1.9-1.2h0
		c-0.1-0.1-0.3-0.1-0.4-0.2c-0.1-0.2,0-0.3,0.1-0.4c0.5,0,1,0.3,1.4,0.6h0c0.4,0.3,0.9,0.8,1.3,1.2c0.2,0.2,0.5,0.4,0.8,0.6
		c0.1,0.4,0.1,1,0.6,1.2c0-0.4,0.2-0.8,0.1-1.3c-0.3-0.3-0.5-0.4-0.9-0.7c-0.5-0.3-0.9-0.6-1.3-1h0c-0.4-0.4-0.8-0.8-1.2-1.3
		l-1.8-0.4l0-0.1l0-0.1c0.3-0.2,0.6-0.1,0.9-0.2c0-0.3-0.3-0.5-0.4-0.6c-0.8-0.3-1.6-0.4-2.5-0.4c-1.3-0.2-1.8,1.2-2.4,2.1
		c-0.5,0.4-0.8-0.3-1.2-0.1c-0.4-0.1-0.6-0.5-0.7-0.9C21.8,39.1,21.7,39.2,21.5,39.2L21.5,39.2z M17.5,34.3
		c-0.1-0.3-0.2-0.6-0.2-0.8c-0.3-0.5-0.7,0.1-1,0.2c-0.3-0.2-0.2-0.6-0.3-0.9c-0.5,0-0.8-0.4-1.1,0.3c-0.3,0-0.3-0.3-0.4-0.6h0
		c0-0.1,0-0.2-0.1-0.3L13.5,32c-1,0.6-2.3,0-3.3-0.3c-0.2,0.2-0.4,0.4-0.6,0.7C9.2,33,9,33.6,8.8,34.3c-0.1,0.6-0.2,1.2-0.3,1.9
		c0,0.4-0.1,0.8-0.2,1.2h0c-0.1,0.6-0.2,1.3-0.5,1.9h0c-0.2,0.4-0.5,0.9-0.8,1.2c-0.2,0.3-0.6,0.3-0.7,0.6c0,0,0,0,0,0h0
		c0,0,0,0,0,0c0.1,0.2,0.4,0.2,0.5,0.3c0.6,0,0.3,0.6,0.3,0.9c0,0,0,0.1,0,0.1c0.2,0.3,0.8,0.1,1.1,0.1c0.1-0.1,0.2-0.1,0.3-0.2l0,0
		h0c0.4-0.3,0.8-0.8,1-1.2c0.3-0.6,0.5-1.2,0.5-1.9l0,0h0c0-0.4,0.1-0.7,0.1-1.1c0.1-0.3,0-0.6,0.1-0.9c0.1-0.2,0.2-0.4,0.4-0.4
		c0.1,0.1,0.3,0.3,0.2,0.4c0,0,0,0.1,0,0.1l0,0h0c-0.1,0.5-0.2,1.1-0.2,1.6c0,0.4-0.1,0.7-0.2,1.1c-0.2,0.3-0.4,0.7-0.5,1.1
		c-0.2,0.6-0.3,1.3-0.7,1.9c0.1,0.4,0.7,0.3,1.1,0.4l0.7,0.8l0.1,0.1l0.2-0.1l0.3-0.2c0.6-0.9,1.1-1.9,1.6-2.9c0,0,0.1-0.1,0.1-0.1
		c0.3-0.5,0.4-1.2,0.4-1.8c0-0.6-0.1-1.2-0.1-1.8c0-0.3,0.1-0.7,0.2-1c0.1-0.1,0.1-0.2,0.2-0.3c0.3-0.6,0.3-1.2,0.2-1.9
		c0,0,0-0.1,0-0.1c0.1-0.1,0.1-0.2,0.3-0.2c0,0,0.1,0.2,0.1,0.3c0.2,0.4,0.1,0.9,0.1,1.4c-0.1,0.1-0.1,0.3-0.1,0.5h0
		c-0.1,0.4-0.1,0.8-0.1,1.2c0,0,0,0,0,0c0,0.4,0,0.9,0,1.2c0,0.2,0,0.4,0,0.6c-0.1,0.7-0.4,1.3-0.6,1.9c-0.2,0.4-0.3,0.8-0.4,1.2
		c0,0,0,0,0,0h0c0.2,0.2,0.6,0.2,0.9,0.2c0.1-0.1,0.1-0.1,0.2-0.2h0c0.3-0.4,0.4-0.8,0.5-1.2c0,0,0-0.1,0-0.1
		c0.7-1.1,2.1-0.7,3.2-0.5c0.5-0.2,0-0.5,0-0.9c-0.2-0.2-0.3-0.2-0.6-1c-0.3-0.7-0.3-1.2-0.5-1.7c0.2-0.1,0.2-0.3,0.4-0.3
		c0.1-0.1,0.2-0.3,0.2-0.4C17.9,35.5,17.6,34.9,17.5,34.3L17.5,34.3z M49.5,39.3c-0.9,0.5-1.2,1.9-2.1,2.5c0,0.2-0.1,0.4-0.2,0.5h0
		c-0.2,0.6-0.5,1.2-0.7,1.9h0c-0.1,0.5-0.2,0.9-0.2,1.4c0.4-0.3,1,0,1.4-0.4c0.8,0.1,1.5-0.5,2.1-0.1c0.6-0.8,0.5-1.8,0.4-2.8
		c0-0.4,0-0.8,0-1.2c0-0.1,0-0.1,0-0.2c-0.1-0.6,0.3-1.2,0.1-1.7h0c0,0,0,0,0,0C50.2,39.1,49.9,39.2,49.5,39.3L49.5,39.3z
		 M45.7,16.3c0.3,0.1,0.3,0.3,0.3,0.5c0.2,0.1,0.7,0.1,0.9-0.2c0.5-0.5,0.2-1.1,0.4-1.6c0-0.1,0.1-0.2,0.1-0.2
		c-0.9,0-2.1-0.7-2.9-0.1c0,0-0.4,0.3-0.4,0.3c-0.4,0.3-0.9,0.5-0.5,1.1c-0.5,0.3-0.5,0.9-0.5,1.4c0,0.1,0,0.1,0,0.2
		c0.4-0.1,0.4,0.5,0.7,0.2c0-0.1,0.1-0.3,0.1-0.4C43.9,16.9,45.2,16.4,45.7,16.3L45.7,16.3z M46.7,19.9l-0.1,0.2l0.3-0.1L46.7,19.9
		L46.7,19.9z M42.1,17.5c0.1-0.1,0.1-0.2,0.2-0.3c-0.2-0.6,0.5-1,0.3-1.6c-1.5-0.5-2.6,0.8-3.8,1.4c-0.4,0.2-0.9-0.2-1.2,0.3
		c0,0.1,0,0.2,0,0.2c0,0.5,0.3,0.9,0.6,1.2c0.8-0.5,0.5,0.8,1.1,1.1l0.3-0.6c0.3,0,0.5,0.4,0.6,0.7c0.1,0,0.2,0.1,0.3,0.2
		c0.2,0.2,0.2,0.6,0.4,0.8c0.3,0.1,0.6,0,0.8-0.2c0.1-0.2,0.1-0.4,0.1-0.6C41.8,19.2,41.7,18.2,42.1,17.5L42.1,17.5z M36.8,21.8
		v-0.2c-0.1-0.2-0.4-0.4-0.6-0.4c-0.1,0.1-0.3,0-0.2,0.3c0.3,0,0.4,0.1,0.5,0.3c0.1,0.1,0.2,0.2,0.3,0.3V21.8L36.8,21.8z M37.9,21.8
		c-0.1-0.1-0.2-0.1-0.3-0.1c0,0,0,0.1,0,0.1c-0.1,0.2,0,0.4,0.1,0.6c0.5,0.6-0.7,0.6-0.3,1.1c0.2,0,0.3-0.1,0.4-0.1
		c0.2-0.2,0.7-0.5,0.4-0.9C38.1,22.4,38.1,22,37.9,21.8L37.9,21.8z M39.6,21.8c-0.1-0.3-0.2-0.6-0.2-0.9c-0.2-0.3-0.5-0.7-0.8-0.9
		c-0.4-0.4-0.8-0.7-1.3-0.9c-0.3,0.2-0.6,0.5-0.7,0.9h0c-0.1,0.3-0.2,0.6-0.1,0.8c0.4,0.3,0.9,0.5,1.4,0.2c0.3,0.1,0.5,0.5,0.6,0.8
		c0,0.1,0.1,0.2,0.1,0.3c0.3,0.5,0.6,0.5,1,0.3C39.5,22.4,39.8,21.8,39.6,21.8L39.6,21.8z M42.5,19.4c-0.1,0.2-0.2,0.4-0.2,0.6
		c0,0,0,0,0,0c0,0.6,0.2,1.3-0.1,1.9h0c0,0,0,0,0,0c0.6,0,0.3,0.8,0.5,1.2c0.4,0,0.3-0.7,0.6-1.1c0,0,0-0.1,0-0.1
		c0.1-0.5,0.2-1.4-0.4-1.7c0,0,0-0.1,0-0.2C42.8,19.8,42.7,19.4,42.5,19.4L42.5,19.4z M46,20c0.1-0.2,0.2-0.4,0.3-0.6
		c0.4-0.4,0.8,0.1,1.2-0.2c0.2-0.4-0.1-0.8-0.2-1.1c-0.1-0.2-0.1-0.4-0.1-0.6c0-0.2,0-0.4-0.1-0.5c-0.6,1.1-1.7-0.1-2.5,0.5
		c0,0,0,0,0,0h0c-0.2,0.9,1.2,0.7,1.2,1.6c-0.3,0.6-0.6-0.3-1-0.1c0,0.2,0.3,0.4,0.3,0.7c-0.4,0.3-0.7-0.4-1.1-0.5
		c-0.2,0.3-0.3,0.6-0.3,0.9c0,0.4,0.1,0.9,0.3,1.3c0.1,0.2,0.2,0.5,0.5,0.4c0.1-0.3,0.2-0.7,0.5-0.7c0-0.2,0.2-0.6,0.5-0.4
		C45.7,20.5,45.8,20.3,46,20C46,20,46,20,46,20L46,20z M26.3,25.6c0.1-0.2,0.3-0.4,0.4-0.6c0.2-0.2,1-0.2,0.6,0.3
		c-0.1,0.1-0.2,0.2-0.3,0.3c-0.3,0.3-0.5,0.7-0.9,0.8C26,26.1,26.1,25.8,26.3,25.6L26.3,25.6z M27.9,29.3c-0.1-0.3,0.1-0.6,0.3-1
		c0.3-0.4,0.8-0.3,1.3-0.2c-0.1,0.3-0.7-0.2-0.8,0.3c-0.1,0.4,0.5,0.3,0.4,0.7c0,0,0,0.1,0,0.1c0.1,0.1,0.2,0.1,0.3,0.1
		c0,0,0.1-0.1,0.1-0.1h0c0.2-0.3,0.6-0.5,0.8-0.9c0.3-0.3,0.9-0.2,1.3-0.2c0.2,0.1,0.3,0.2,0.4,0.4c-0.5,0.3-0.8-0.5-1.4,0
		c-0.2,0.1-0.1,0.3-0.1,0.4c0.1,0.3,0.7,0,0.7,0.3h0c0,0,0,0.1,0,0.1c-0.4,0.3-0.7,0.6-1.1,0.5L30,29.4c-0.3-0.2-0.6,0.1-0.6,0.4
		c-0.1,0.2,0,0.6-0.3,0.7c-0.5-0.1-0.8-0.5-1-0.9C28,29.5,27.9,29.4,27.9,29.3L27.9,29.3z M49,17.5c-0.1-0.9-0.3-2.1-1.2-2.5
		c-0.1,0-0.1,0-0.2-0.1c0,0,0,0,0,0.1c0,0.7-0.1,1.7,0.1,2.5h0c0.1,0.3,0.1,0.6,0.3,0.8c0.2,0.3,0,0.9,0.4,1.1
		c0.3-0.6,0.5-1.1,0.6-1.8C49,17.6,49,17.5,49,17.5L49,17.5z M27.4,23.7c-0.2,0.3-0.4,0.5-0.7,0.4c0-0.1,0-0.3,0.1-0.4
		c0.2-0.7,0.6-1.3,1.2-1.8c0.2-0.1,0.4-0.2,0.6-0.3c0.7,0.1,1.4-0.5,2-0.2c0.8-0.7,1.8-1.7,3-1l0.3,0.4c-0.3,0.8-0.1,1.2-0.9,1.7
		c0-0.4,0.2-0.6,0.3-0.9c0.1-0.2,0.1-0.4-0.1-0.7c-0.4-0.2-0.8-0.6-1.2-0.3c-0.1,0.1-0.1,0.3-0.1,0.5c0.3,0.2,0.4,0.4,0.4,0.7h0
		c0,0,0,0,0,0c0,0.1-0.1,0.2-0.2,0.4c-0.6,0.3-0.6,1.4-1.5,1.2c-0.3-0.2-0.4-0.8-0.8-0.9c-0.6,0.3-1,0.8-1.7,0.8
		C27.8,23.3,27.6,23.5,27.4,23.7L27.4,23.7z M32.6,51c-0.1-0.3-0.2-0.6,0-0.9c0.4-0.6,1.2,0.1,1.3-0.8c0,0,0-0.1,0-0.1h0
		c0.1-0.5,0.1-1.1,0.6-1.3c0.3,0,0.5,0,0.7-0.2c0-0.1,0-0.2,0-0.4h0c-0.2-0.6-0.9-0.9-1.4-1.2h0c-0.1,0-0.1-0.1-0.2-0.1
		c-0.2-0.4-0.1-0.7,0.2-1c0.5-0.5,1-0.5,1.6-0.4c0.6,0.2,0,0.8,0.1,1.3c0.3,0,0.1,0,0,0.2c-0.1,0.2-0.1,0.5-0.1,0.6
		c0.1,0.2,0.1,0.4,0.2,0.6h0c0.2,0.6,0.3,1.2,0.3,1.9c0,0,0,0,0,0c0,0.2,0,0.4,0,0.6c0,0.4-0.3,0.8-0.7,0.9c-0.3,0.1-0.6,0-0.8,0.3
		c0,0,0,0,0,0.1c0,0,0,0,0,0h0c0,0.2,0.1,0.3,0.3,0.4c0.4,0.2,0.8-0.4,1.1,0.2c0,0.4-0.5,0.6-0.3,0.9c0.4,0.2,0.4,0.7,0.4,1.1
		c0,0.3,0,0.5,0.1,0.8c0.1,0.7,0.5,1.4,0.7,2c0.1,0.3,0.2,0.6,0.2,0.9c0,0,0,0,0,0c0,0.5-0.2,0.9-0.8,1.2c-0.2,0-0.4-0.1-0.5-0.1
		c0-0.4,0.6-0.3,0.4-0.8c-0.2-0.3-0.6-0.2-0.9-0.2c-0.4,0.2,0,1-0.6,1c-0.1-0.2-0.1-0.4-0.2-0.4L33.9,58l-0.2-0.3
		c0-0.1,0.1-0.3,0.2-0.4c0.3-0.4,0.7-0.8,0.8-1.2c0-0.1,0-0.2,0-0.4c0-0.5-0.1-1-0.3-1.5c-0.3-0.6-0.6-1.2-1-1.9c0,0,0,0,0-0.1
		C33.2,51.8,32.8,51.5,32.6,51L32.6,51z M31.6,51c0.1,0.1,0.1,0.3,0.1,0.5c0,0.3,0,0.7-0.1,1c0,0.5,0,1.1,0.5,1.4
		c0.6-0.3-0.2-1.3,0.1-1.8c0,0,0.1,0.1,0.1,0.1c0.5,0.6,0.8,1.2,1.1,1.9c0.1,0.2,0.2,0.5,0.3,0.7c-0.4,0.4-1.5-0.4-1.3,0.6
		c0.1,0.2,0.4,0.1,0.6,0.2c-0.1,0.1-0.4,0.2-0.5,0.4c-0.1,0.1-0.1,0.2,0,0.3c0.5,0.4,0.8-0.1,1.3-0.3c0.1-0.1,0.2-0.1,0.3-0.1
		c0,0,0,0.1,0,0.1c-0.1,0.6-0.6,1-1,1.2c-0.5,0.3-1,0.6-1.4,0.9c-0.5,0.1-0.8,0.5-1.3,0.4c-0.2-0.4-0.4-0.9-0.5-1.4
		c-0.3-1-0.6-1.9-0.7-2.9c0-0.1,0.1-0.1,0.1-0.2h0c0.4-0.6,1-1,1.2-1.7c0-0.1,0.1-0.2,0.1-0.3c0.1-0.3,0.3-0.9,0.5-1.1h0
		C31.4,50.9,31.5,50.9,31.6,51L31.6,51z M39.3,54.4c0.1,0.5,0.1,1.1,0.2,1.7c0,0,0,0,0,0c0,0.3,0,0.6,0.1,1c0,0.1,0,0.2-0.1,0.3
		c-0.1,0.2-0.1,0.4-0.3,0.5c-0.6,0.1-0.9-0.2-1.2-0.5h0c-0.3-0.4-0.5-0.9-0.9-1.2h0c0,0-0.1-0.1-0.1-0.1c-0.2-0.5-0.4-1.1-0.6-1.8h0
		c-0.2-1-0.4-2.1-0.3-3.1c0-0.1,0-0.3,0-0.4c0.1-0.5,0.2-1,0.4-1.5h0c0.1-0.1,0.2-0.3,0.3-0.4c-0.1-0.5-0.2-1-0.4-1.5h0
		c-0.2-0.4-0.4-0.9-0.7-1.2c0,0-0.1-0.1-0.1-0.1c0.1,0,0.1-0.1,0.2-0.2l0.2-1.1c0.5-0.1,0.8,0.4,1.3,0.3c0.1,0,0.1,0,0.2-0.1
		c0.3-0.1,0.5-0.4,0.6-0.7c0.1-0.3,0.2-0.6,0.5-0.8c-0.1-0.6,0.9-0.5,0.8-0.9c0-0.1-0.1-0.2-0.2-0.3c-0.2-0.2-0.6-0.5-0.3-0.8
		c0.1-0.1,0.2-0.2,0.2-0.3h0c0.1-0.2,0.1-0.4,0.1-0.7c-0.6-0.6,0.3-1.4-0.4-1.9c-0.1-0.4-0.2-0.8-0.5-1.1h0
		c-0.1-0.2-0.3-0.4-0.6-0.5c-0.6-0.1-1-0.8-1.6-0.7c-0.4,0.2-0.7,0-1-0.1h0c-0.5-0.3-0.9-0.7-1.6-0.4c-0.3,0.2-0.6,0.3-0.9,0.4h0
		l0,0c-0.3,0.1-0.7,0.3-0.9,0.6c-0.3,0.1-0.6,0.3-0.8,0.6h0c-0.3,0.5-0.5,1.1-0.8,1.6c-0.2,0.1-0.4-0.1-0.5-0.2l-0.3-0.5
		c0.2-0.7,0.4-1.5,0.6-2.2c0.2-0.6,0.4-1.3,0.6-1.9c0.1-0.3,0.2-0.5,0.3-0.8c0.6-0.3,1.1-1,1.8-0.7c0.5,0.4,0.4,0.9,0.5,1.5h0
		c0,0.2,0.1,0.4,0.2,0.6c0.2-0.2,0.2-0.3,0.2-0.6c0-0.3-0.1-0.7-0.1-1c-0.1-0.3-0.2-0.5-0.3-0.8h0c0-0.3-0.1-0.6,0-0.9
		c0.1-0.2,0.2-0.3,0.2-0.5c0.1-0.4,0.1-0.8,0-1.2c-0.5,0-0.1,0.8-0.4,1.1c0,0.1-0.1,0.1-0.1,0.2h0c-0.2,0.2-0.3,0.4-0.4,0.7
		c-0.3,0.3-0.6,0.3-0.9,0.5c-0.1-0.4,0.5-0.8,0.6-1.2c0-0.1,0-0.2,0-0.3c0.5-0.5,0.5-1,0.6-1.6h0c0.1-0.4,0.2-0.8,0.6-1.1l0.3-0.8
		l0.2-0.5c0.4-0.3,0.9-0.4,1.3-0.8c-0.1-0.2-0.2-0.4-0.3-0.5v0c0,0-0.1-0.1-0.1-0.1c-0.2,0-0.4,0-0.6,0.1c-0.2,0.1-0.5,0.2-0.7,0.5
		c-0.3,0.4-0.3,0.9-0.5,1.4c-0.1,0.4-0.3,0.7-0.6,0.9c-0.7-0.7-1.8-0.6-2.7-0.8c0,0-0.1-0.1-0.1-0.1c-0.3-0.4-0.4-0.8-0.8-1.1
		l0.1-0.7l0.2-1.6c0.1-0.3,0.4-0.2,0.6-0.1c0.3,0.2,0.6,0.5,1.1,0.4c0.4-0.1,0.7-0.3,1-0.6c0.2-0.2,0.5-0.4,0.8-0.5
		c0.4,0.1,0.6-0.2,0.8-0.4c0.1-0.2,0-0.5,0.3-0.5c0.1,0.2,0.2,0.6,0.5,0.6c0.7-0.2,0.9,0.4,1.3,0.9h0c0.1,0.2,0.3,0.3,0.5,0.3
		c0.9,0.2,1.9,0.5,2.6-0.3c0.1,0,0.3,0,0.4-0.1h0c0.7-0.3,1.1-1.4,1.9-0.8c0.3,0.2,0.5,0.5,0.7,0.8h0c0.2,0.4,0.3,0.8,0.2,1.2
		c-0.2,0.2-0.4,0.4-0.5,0.6c-0.4,0.5-0.8,1-1.3,1.5c-0.3-0.5-0.5-1-0.8-1.5c-0.1-0.1-0.1-0.2-0.2-0.3C38.9,25,38.4,25,38.1,25
		c-0.8-0.1-1.8-0.1-2.7,0.2c0,0.1-0.2,0.2-0.1,0.3v0c0,0,0,0,0,0c0.1,0.3,0.5,0.2,0.7,0.1c0,0,0-0.1,0.1-0.1h0l0,0
		c0.1-0.1,0.2-0.2,0.4-0.1c0,0,0,0.1,0,0.1c-0.1,0.2-0.2,0.4-0.1,0.6c0.5,0.2,1-0.3,1.6-0.1c0.3,0.4,1.2,0.5,0.8,1
		c-0.1,0.1-0.2,0.2-0.2,0.4c0,0,0,0.1,0.1,0.1c0.6,0.4-0.3,1,0.1,1.5c-0.1,0.1-0.1,0.3,0.1,0.4c0.3,0.4,0.9,0.6,0.1,0.9
		c-0.3,0.3-0.7-0.4-0.9,0.2c0.5,0.1,0.5,0.3,0.5,0.6c0,0.3-0.3,0.8-0.1,1.1c0,0,0,0.1-0.1,0.1h0c-0.1,0.1-0.1,0.2-0.1,0.3
		c0.2,0.2,0.5,0,0.6,0.1c0.2,0.6-0.5,1-0.9,1.3c-0.8,0-1.6,0.1-2.2-0.6c-0.1-0.5,0.1-0.8,0.2-1.1c0.1-0.4,0.4-0.6,0.2-1.2
		c0,0,0-0.1-0.1-0.1c-0.1-0.6-0.1-1,0.1-1.5c0-0.1,0-0.1,0-0.2c-0.1-0.6-0.4-1.1-0.3-1.7c-0.1-0.1-0.1-0.2-0.2-0.1
		c-0.5,0.6-0.1,1.2,0,1.8h0c0.1,0.3,0.1,0.6-0.1,0.9c0,0.3,0.1,0.6,0.1,0.9c0,0.5-0.1,0.9-0.4,1.3h0l0,0c0,0,0,0.1-0.1,0.1
		c0.1,0.6-0.1,1.2,0.1,1.7v0c0,0.1,0.1,0.2,0.2,0.3c0.8-0.1,1.5,0.4,2.4,0.2c0.1,0.2-0.1,0.9,0.4,0.7c0.2-0.4,0.5-0.8,0.8-1.2
		c0.6-0.7,1.3-1.2,1.9-1.8c0.9,0,1.7,0.6,2.4,1.1c0,0.2,0,0.4,0.1,0.6c0.1,0.6,0.1,1.3,0,1.9c-0.1,0.4-0.2,0.9-0.5,1.2
		c0,0,0,0.1-0.1,0.1c0,0.3-0.2,0.7,0.1,0.9c0.5,0,0.3-0.6,0.6-1h0c0,0,0,0,0.1-0.1c0.2-0.3,0.3-0.5,0.5-0.8c0.5,0.2,0.6,1,1.2,0.8
		c0,0,0,0,0.1,0h0c0.8,0.4,1,2,2.1,1.2c0.3,0,0.6,0.2,0.7,0.4c0,0.1,0,0.2,0,0.2c0,0.3-0.4,0.4-0.6,0.6c-0.5,0.2-1.3,0-1.7,0.3
		c0,0.2,0.2,0.3,0.3,0.4c0.3,0.1,0.5-0.1,0.9,0c-0.2,1.1-1,2-1.7,2.7c0,0.2,0,0.3,0.2,0.4c0.3,0,0.4-0.3,0.6-0.4
		c0,0.3,0,0.6-0.1,0.9h0l0,0c-0.2,0.7-0.6,1.3-1,1.9c-0.3,0.4-0.7,0.8-1,1.2h0l0,0c-0.4,0.6-0.8,1.2-0.9,1.8c0,0,0,0,0,0h0l0,0
		c-0.2,0.6-0.4,1.3-0.9,1.8c0,0,0,0,0,0.1h0l0,0c-0.1,0.4,0,0.8,0.1,1.3c0,0,0,0,0,0h0c0,0.2,0,0.4,0,0.6c-0.2,0.4-0.2,0.9-0.3,1.3
		h0c-0.1,0.2-0.2,0.3-0.4,0.5c-0.1-0.1,0-0.3,0.1-0.5h0l0,0c0.1-0.3,0.2-0.5-0.2-0.5c-1,0.3-1,1.4-1.1,2.3c-0.6,0-0.3-0.7-0.5-1.1
		c0-0.2,0.2-0.4,0.3-0.7c0.1-0.2,0.1-0.4-0.2-0.5c-0.3,0.2-0.5-0.2-0.6-0.4c0-0.3,0-0.6,0.1-0.9c0.3-1.1,1-2.1,1.4-3.1h0
		c0.2-0.4,0.4-0.9,0.4-1.3c0.1-0.6,0.1-1.2,0.3-1.8c0.1-0.6,0.3-1.3,0.5-1.9h0c0.3-0.7,0.6-1.3,1.1-1.9h0c0.2-0.2,0.4-0.5,0.6-0.7
		c-0.1-0.2,0-0.4,0-0.5h0c0.1-0.3,0.3-0.6,0.1-1c-0.2-0.4,0.6-0.6,0.4-0.9v0l0,0c0,0-0.1-0.1-0.1-0.1c-0.1,0.1-0.2,0.1-0.2,0.1
		c-0.1,0-0.1,0-0.2,0h0c-0.3-0.1-0.4-0.7-0.8-0.7c0,0.2,0.1,0.5,0.1,0.7h0c0.2,0.7,0.6,1.5,0.2,2.2c-0.3,0.3-0.5,0.6-0.7,0.9h0l0,0
		c-0.7,1.1-1,2.4-1.3,3.7c-0.1,0.4-0.2,0.8-0.2,1.2c0,0,0,0-0.1,0c-0.2,0.1-0.6,0.2-0.6,0.5c0,0.3-0.1,0.5-0.2,0.7
		c-0.2-0.8-0.2-1.6,0.1-2.4h0c0.1-0.3,0.3-0.6,0.6-0.9c0-0.1,0-0.3-0.1-0.3C40.1,45,40,45.8,39.6,46c-0.2-0.7,0.7-1.1,0.6-1.8
		c0,0,0-0.1,0-0.1c0-0.5,0-1.1,0.1-1.8h0c0-0.4,0.1-0.8,0.2-1.2c0.1-0.6,0.3-1.2,0.5-1.8c0,0,0-0.1,0-0.1h0c0.1-0.5-0.2-0.9-0.2-1.4
		c0.1-0.2,0.1-0.3,0.2-0.5c0.5-1.1,0.8-1.5,1-2.9c0,0-0.1-0.1-0.1-0.2h0c0-0.1-0.1-0.1-0.1-0.1c-0.1,0-0.1,0.1-0.2,0.1h0l0,0
		c-0.3,0.3-0.1,0.8-0.3,1.2c-0.4,0.6-0.5,1.4-1.1,1.8c-0.1,0.1-0.3,0.2-0.4,0.3c-0.2,0.1-0.3,0.3-0.1,0.5c0.5-0.1,0.7,0.5,0.8,0.9
		c0,0.7-0.5,1.4-0.6,2.1c0,0.1,0,0.2,0,0.3c0,0.3,0,0.6,0,0.9c-0.1,1.3-0.5,2.5-0.7,3.7c0,0.4-0.1,0.7,0,1.1c0,0.2,0,0.3-0.1,0.5
		c-0.2,0.3-0.6,0.5-0.9,0.6c-0.2-0.1-0.3,0.1-0.4,0.3c0,0.2,0,0.4,0.1,0.7h0c0.1,0.2,0.2,0.4,0.3,0.5l0.9,0.1c0.1,0.3-0.4,0.7-0.2,1
		c0.1,0.1,0.1,0.1,0.1,0.2c0.2,0.4,0.1,0.8,0,1.3h0c-0.1,0.3-0.2,0.7-0.2,1C39,53.6,39.2,54,39.3,54.4L39.3,54.4z M50,31.2
		c0,0.1,0,0.2,0,0.3c-0.1,0.3-0.3,0.5-0.7,0.5c-0.1-0.3,0.1-0.5,0.3-0.8h0c0-0.1,0.1-0.2,0.1-0.2C49.9,30.9,50,31,50,31.2L50,31.2
		L50,31.2L50,31.2z M50.2,34.3c0,0.1,0,0.1,0,0.2l-0.4,0.2C50,34.8,50,34.9,50,35c-0.2,0.3-0.5,0.2-0.7,0.1
		c-0.2-0.2-0.2-0.5-0.2-0.8c0.1,0,0.2-0.1,0.2-0.1C49.7,34.1,50,34,50.2,34.3L50.2,34.3z M25.9,27.4c-0.1,0-0.1,0.1-0.2,0.1
		c-0.4,0.5,0.3,0.9,0.2,1.4c0.3,0.3,0.7,0.5,0.9,0c0.2,0.1,0.3,0.2,0.3,0.4c0,0,0,0,0,0c0,0.3-0.1,0.7,0.2,0.9c0-0.3,0-0.6,0-0.9
		c0,0,0,0,0,0h0c0.1-0.7,0.4-1.3,1.1-1.8c0.3-0.2,0.6,0.2,0.8-0.1l0,0h0c0,0,0,0,0,0c-0.1-0.5-0.6-0.6-0.9-0.7
		c-0.5-0.2-0.1-0.6-0.1-0.9C27.4,26.3,26.8,27.1,25.9,27.4L25.9,27.4z M48,28c-0.6,0.5-0.8-1-1.3-0.2c-0.1,0.3,0.3,0.5,0.3,0.8
		c-0.2,0.2-0.6,0.3-0.9,0.1c-0.9-0.6-1.3-1.6-1.8-2.6c-0.2-0.2-0.5-0.6-0.8-0.2c0.2,0.5,0.6,0.9,0.7,1.5c0,0.1,0,0.2,0,0.3
		c0.2,0.6,0.9,1.1,1.3,1.5c0,0-0.1,0.1-0.1,0.1c-0.6,0.6-1.1,1.2-1.5,1.9c-0.2,0.3-0.3,0.7-0.4,1.1c0,0.1,0,0.1-0.1,0.2
		c-0.1,0.1-0.2,0-0.4-0.1c-0.1-0.1-0.2-0.2-0.3-0.2c-0.2-0.4-0.5-0.7-0.8-1c-0.2-0.3-0.4-0.6-0.4-1c-0.4-0.2-0.8-0.5-1.1-0.9h0
		c-0.1-0.2-0.2-0.4-0.2-0.6c0.1-0.4,0-1,0.4-1.3c0,0,0,0,0.1-0.1c0,0,0,0,0,0c0.4,0.3,0,1.2,0.2,1.7c0,0.1,0.3,0.1,0.3,0.1
		c0.3-0.4-0.1-0.8,0.1-1.2c0-0.2,0.1-0.4,0.1-0.6h0c0.2-0.6,0.6-1.2,0.9-1.9h0c0.2-0.4,0.4-0.9,0.4-1.4c0.2-0.1,0.3-0.3,0.4-0.5
		c0-0.2,0.5-0.7,0.7-0.8c0.7,0.2,1.8-0.5,2,0.6c0.1,0.1,0.1,0.2,0.1,0.3c0,0.2,0.1,0.4,0.2,0.5c0.2-0.1,0.3-0.3,0.2-0.6
		c0-0.2-0.1-0.4-0.1-0.6c0.5,0,0.4-0.7,0.9-0.4c0.2-0.3,0.2-0.6,0.2-0.9h0c0-0.2,0.1-0.3,0.2-0.4c0-0.4,0.2-0.7,0.3-1.1
		c0,0.4,0.2,1,0.3,1.5h0c0.1,0.5,0,1-0.3,1.4c-0.2,0.2-0.3,0.3-0.3,0.5c-0.1,0.5,0.3,1-0.1,1.4c-0.1,0.2,0,0.3,0.1,0.4h0
		c0,0,0.1,0.1,0.1,0.1c0.1,0,0.1,0,0.2-0.1c0.3-0.2,0.3-0.8,0.7-0.9c0.2,0.2-0.1,0.4,0.2,0.6c0.7-0.2,0.5-1.3,1.3-1.1
		c0.1-0.2,0.4,0,0.4-0.3c0-0.1,0-0.1,0-0.2c-0.1-0.1-0.2-0.1-0.3-0.2h-0.4c-0.1-0.4,0-0.7-0.3-0.9l-0.2,0.1c0-0.3-0.1-0.5-0.1-0.8
		c0-0.7-0.6-1.1-0.2-1.9h0c0.1-0.2,0.2-0.3,0.3-0.5c0.4,0.1,0.8,0.2,1.1,0.5c0.7,0.5,1.1,1.3,1.8,1.9h0c0.1,0.1,0.2,0.2,0.4,0.2
		c0.5,0.5,0.7,1,0.9,1.6c0,0,0,0,0,0h0c0.2,0.7,0.4,1.3,0.9,1.9c0.1,0.1,0.2,0.2,0.4,0.3c0,0.2,0.1,0.3,0.1,0.6
		c-0.4,0-1.1,0.2-1.6,0c-0.3-0.4-0.6-0.6-1-0.8h0c-0.5-0.2-1-0.4-1.6-0.5c-0.4,0.2-1,0.2-1.3,0.5c0,0-0.1,0.3-0.1,0.3
		c0,0.2,0.4,0.6,0,0.7c-0.3,0-0.7-0.4-1-0.1c-0.3,0.2-0.2,0.6,0,0.8C48.4,27.4,48.2,27.8,48,28L48,28z M51.6,27.4
		c-1.1,0.1-2.1,0.2-3.1,0.8c-0.1,0.4-0.7,0.3-0.7,0.8c0.3,0.3,0.5-0.1,0.8-0.1c0.2,0.1,0.3,0.2,0.5,0.3c1.2,0.5,2.6-0.2,3.7,0.8
		c-0.4,0.6-1.2-0.3-1.6,0.1l0.3,0.3c0,0.2,0.2,0.5,0.3,0.7h0c0.1,0.2,0.1,0.3-0.1,0.5c-0.3,0-0.5-0.2-0.6-0.5h0
		c-0.1-0.2-0.2-0.4-0.3-0.6c-0.8-0.6-1.9-0.4-2.7-0.8c-1.2-0.2-2.4,0.1-3,1.1c-0.1,0.1-0.2,0.2-0.3,0.2h0c-0.3,0.4-0.6,0.8-0.8,1.2
		h0c-0.2,0.5-0.3,1-0.3,1.5c0,0.1,0,0.2,0,0.3c0,0.7,0.3,1.3,0.7,1.9h0c0.2,0.2,0.4,0.4,0.6,0.6c0.5,0.1,0.8-0.3,1.2-0.6
		c0.1-0.1,0.3-0.2,0.5-0.2c0.1,0.1,0.1,0.1,0.2,0.2h0c0,0.2-0.3,0.4-0.3,0.6c0.4,0,0.7-0.3,1-0.5c0.1-0.1,0.3-0.1,0.4-0.2
		c0.1,0,0.1,0.1,0.2,0.1h0c0.2,0.1,0.3,0.4,0.1,0.6c-0.7,0.3-0.2,0.4,0,0.7c0,0.1,0.2,0.2,0.1,0.4c0.2,0,0.9-0.3,1.1-0.4
		c0.1-0.1,0.2-0.2,0.3-0.3c0.2-0.3,0.3-0.6,0.2-0.9c0-0.4-0.2-0.8-0.1-1.2c0.3-0.3,0.5,0.1,0.8,0.1c0.1-0.1,0-0.8-0.2-0.8
		c0,0,0,0,0-0.1c0.2-0.3,0.4,0.1,0.6-0.2c0-0.3,0-0.5-0.2-0.7c-0.5-0.3-1,0-1.5,0c-0.3,0.2-0.1,0.8-0.6,0.8c-0.2,0-0.3-0.2-0.3-0.4
		c0.1-0.3-0.3-0.7,0.1-0.9c0.5,0.2,0.9,0.2,1.4,0c0.4,0.1,1.3,0,1.5,0.6c0.3-0.8-0.6-0.6-1.1-0.8h0c-0.1,0-0.1-0.1-0.2-0.1
		c0-0.1,0.1-0.2,0.2-0.3c0.4-0.3,1.1,0.3,1.3-0.3c0.2-0.1,0.3,0.1,0.4,0.2c0.1,0.3,0.2,0.6,0.1,0.9c0.1,0.4,0.2,1.1,0.4,1.2
		c0.2-0.5,0.2-1.1,0.2-1.7c0,0,0,0,0,0c0-0.5,0-1.1,0.2-1.5c0.2,0,0.2,0.1,0.3,0.2c0,0,0,0.1,0,0.1c0,0,0,0,0,0l0,0
		c0,0-0.1,1.1-0.1,1.2c0,0.3,0,0.6,0,1c0.1,0.4,0,0.6-0.1,0.9h0c-0.3,0.5-0.8,0.9-1,1.4c0,0.1,0,0.3,0,0.4c0,0.2,0,0.4,0.3,0.6
		c1,0.1,2.3,0.3,3.2-0.2c0-0.4-0.1-0.7-0.3-1.1c-0.6-0.2-1-0.7-1.2-1.2c-0.2-0.5-0.3-1.1-0.4-1.6c0-0.3-0.1-0.6-0.1-0.9
		c0-0.2,0-0.4,0-0.6c0,0,0,0,0,0c0-0.5,0-1,0.1-1.5c0.1-0.4,0.2-0.8,0.5-1.2c0.2-0.4,0.6-0.8,0.9-1.1l0,0h0c0.2-0.2,0.3-0.4,0.3-0.6
		c-0.7,0.1-1.2,0.3-1.9,0.3C53,27.3,52.3,27.4,51.6,27.4L51.6,27.4z M54.4,39.2c-0.7,0.5-1.4,0.9-1.8,1.7c-0.4,0-0.4-0.5-0.6-0.8
		c0.1-0.3,0-0.6,0.1-0.9h0c0-0.3,0.1-0.6,0.5-0.7c0.5,0,1.1-0.5,1.6,0c0.3,0,0.6-0.4,1-0.3v0.3C54.9,38.8,54.7,39,54.4,39.2
		L54.4,39.2z M67.9,36.1c0.1,1,0.3,2.1,0.4,3.1h0c0.1,1,0.3,2.1,0.4,3.1c0,0.3,0.1,0.6,0.1,0.9c0.1,0.3,0,1,0.5,0.9v-0.9
		c0-0.3-0.1-0.6-0.1-0.9l0,0h0c-0.1-0.4-0.1-0.8-0.2-1.2c0,0-0.2-1.5-0.3-1.9l0,0h0c-0.1-1-0.3-2.1-0.3-3.1c0-0.6-0.1-1.2-0.1-1.9
		c0-0.4,0-0.7,0-1.1c0-0.2-0.3-1-0.7-0.5c0,0.5,0.1,1.1,0.2,1.6C67.7,34.9,67.8,35.5,67.9,36.1L67.9,36.1z M66.4,54.2
		c0.7,0.2,1.2,0.6,1.9,0.9c0.1,0.2,0,0.4-0.2,0.5c-1-0.2-1.8-0.7-2.7-1c-0.1-0.1-0.1-0.2-0.1-0.4h0c0-0.1,0.1-0.1,0.2-0.1
		C65.9,54,66.2,54.1,66.4,54.2L66.4,54.2L66.4,54.2L66.4,54.2z M63.5,54.2c0-0.6-0.1-1.2-0.1-1.9c0-0.4,0-0.8,0-1.3c0,0,0,0,0,0
		c0-0.6,0.1-1.2,0.2-1.9h0c0,0,0,0,0,0c0,0,0,0,0-0.1c0.5-0.4,0.4-1.1,0.7-1.6c-0.1-0.3,0.9-0.5,1.1-1.3c0-0.1-0.1-0.1-0.1-0.2
		c-0.2-0.6-0.4-1.2-0.5-1.9l0,0h0c-0.1-1-0.1-2.1-0.2-3.1c0-0.2,0-0.3,0-0.5c0.4-0.7,0.9,0.1,1.3,0.1c0.2,0,0.2-0.3,0.2-0.4
		c-0.9-0.5-1.8-1.3-2.5-2.1c-0.9,0-1.6-0.5-2.3-0.9l-0.1,0.3c0.6,0.7,1.5,1.1,2.2,1.6c0.2,0.1,0.4,1.6,0.4,1.9h0
		c0.2,1,0.4,2.1,0.5,3.1c0,0,0,0,0,0h0c0.1,0.6,0.2,1.2,0.3,1.9c0,0.1-1.7,2.8-1.9,3.1v0c-0.3,0.6-0.6,1.2-0.8,1.9h0
		c-0.3,1-0.6,2.1-0.6,3.1c0,0,0,0,0,0c0,0.6,0.1,1.2,0.2,1.9c0.1,0.3,0.2,0.6,0.3,0.8c0.1,0.1,0.1,0.3,0.2,0.4h0
		c0.1,0.2,0.2,0.4,0.5,0.4c0.1-0.1,0.1-0.3,0-0.4l0,0h0c-0.1-0.2-0.3-0.4-0.3-0.6c0-0.2,0-0.5,0-0.7c0-0.6-0.1-1.3,0-1.9h0
		c0,0,0,0,0,0c0.1-0.4,0.2-0.8,0.4-1.1c0.1,0.3,0.2,0.7,0.2,1.1c0.1,0.8,0.1,1.7,0.6,2.3C63.6,55.7,63.6,55.2,63.5,54.2L63.5,54.2z
		 M59,59.9c-0.1,0-0.1-0.1-0.2-0.1c-0.7-0.4-0.6-1.3-1-1.9c0-0.2,0-0.4,0-0.5c0,0,0,0,0,0c0.1-0.9,0.5-1.8,0.7-2.7
		c0.1-0.4,0.1-0.9,0.1-1.3c0.3-0.1,0.3,0.3,0.5,0.4c-0.1,0.4-0.1,0.6-0.2,0.9c-0.1,0.6,0,1.3-0.3,1.9c0.1,0.3-0.1,0.6-0.2,0.8
		c-0.1,0,0,0.5,0,0.5c0.3,0.6,0.6,1.2,0.7,1.8C59,59.7,59,59.8,59,59.9L59,59.9z M71.2,44.2c0.1,1,0.1,2.1,0.2,3.1c0,0,0,0,0,0
		c0,0.6,0,1.2,0,1.9c0,0.4,0,0.8,0,1.1c-0.4,0.9-1.7,0.5-2.5,0.7h0c0,0,0,0,0,0c-1.2,0.1-2.5,0.3-3.4,1.2c-0.1,0.1-0.2,0.2-0.2,0.3
		c-0.1,0.3,0,0.7,0.1,0.9c0.7-0.1,1.3-0.8,1.8-1.2c0.4-0.3,0.8-0.6,1.3-0.6c0.3-0.1,0.5-0.4,0.7,0v0.6v1.9v1.1l-0.2,0.5
		c-1,0.7-2.2,0.8-3.3,1c-0.4,0.2-1.3,0-1.5,0.5c0,0.1,0,0.2,0,0.4c0.1,0.2,0.3,0.2,0.5,0.2c0.4-0.4,1-0.4,1.5-0.6h0
		c0.1,0,0.2-0.1,0.2-0.1c0.3-0.1,0.8-0.3,1.1-0.1c0.2,0.1,0.2,0.3,0.2,0.5c0.1,0.7,0,1.5-0.5,2c-0.3,0.1-0.2-0.4-0.4-0.5
		c-0.8,0-1.9-1-2.9-0.6c0,0.2,0,0.4,0.2,0.5c0.6,0,1.1,0.5,1.7,0.7c0,0,0,0,0,0c0,0.4-0.4,0.3-0.7,0.5c-0.5-0.1-0.9,0.7-1.4,0.2
		c-0.5-0.1-1.2-0.3-1.7-0.5v0.3c0.8,0.4,1.6,1,2.5,0.9c0.3-0.1,0.3-0.4,0.6-0.4c0.1,0.1,0.3,0,0.2,0.2c-0.7,0.4-1.5,0.7-2.4,0.5
		c-0.7-0.2-1.3-0.5-2-0.8c-0.5,0-0.7-0.7-1.2-0.5c-0.5-0.2-1.1,0.1-1.6,0c0,0.8-0.8,0.5-1.3,0.7c-0.4-0.2-1-0.2-1.3-0.7
		c0-0.1,0-0.3-0.1-0.4l0,0h0c-0.2-0.3-0.6-0.6-0.4-1c0.2-0.5,0.2-1,0.3-1.5h0c0.1-0.4,0.2-0.8,0.4-1.2h0c0,0,0.1-0.1,0.1-0.1
		c0.2-0.6,0.5,0,0.8,0c0.2-0.2,0.2-0.4,0.3-0.5c0-0.3,0-0.6,0-0.8c0.1-1.2,0.4-2.3,0.6-3.5h0c0,0,0,0,0,0c0.1-0.5,0.1-1,0.1-1.6
		c0-0.1-0.1-0.3-0.2-0.3c0,0-0.1,0-0.1,0.1c-0.2,0.6-0.4,1.2-0.6,1.8h0c0,0,0,0,0,0c-0.3,0.9-0.6,1.7-0.9,2.6
		c-0.5,0.7-0.8,1.6-1,2.4h0c-0.1,0.4-0.1,0.8-0.1,1.2c0,0.2,0,0.4,0.1,0.6c-0.4,0.4-0.2,1-0.3,1.4c0,0.1,0.1,0.3,0.2,0.5h0
		c0.1,0.3,0.3,0.6,0,0.9c-0.1,0.2-0.2-0.1-0.3-0.2c-0.4,0-0.2,0.5-0.4,0.7c-0.3,0-0.1-0.3-0.3-0.5c-0.2,0.4-0.8,0.2-1,0.6
		c-0.2-0.2,0-0.6-0.2-0.9c-0.1-0.1-0.3,0-0.4,0.1c-0.1,0.1-0.2,0.3-0.1,0.4c0.1,0.3,0.1,0.8-0.3,0.7c-0.4-0.2-0.5-0.6-0.6-1
		c-0.3,0.3-0.3,0.5-0.3,0.9c0.8,1.4,2.4,0.4,3.7,0.7c0.8-1.5,2.1-0.1,3.3-0.3c0.5,0,1.3,0.1,1.8,0c1.3,0.3,2.8,0.3,4.1,0.5
		c1.6,0.5,2.5-1.2,3.6-1.9c0.2-0.1,0.4-0.3,0.5-0.5h0c0.5-0.7,0.2-1.7,0.4-2.5h0c0.1-0.2,0.1-0.4,0.3-0.5c0.3-0.2,0.6-0.4,0.7-0.7h0
		c0.3-0.5,0.4-1.2,0.4-1.9h0c0,0,0,0,0,0c0-0.6,0-1.3,0.2-1.7c0,0,0.1-0.1,0.1-0.1h0c0.6-0.5,1.4-0.6,1.8-1.3c0,0,0-0.1,0.1-0.1
		c0.1-0.6,0.1-1.2,0-1.7c0,0,0,0,0,0c0-0.6-0.1-1.2,0-1.9c0,0,0,0,0,0c0-0.2,0-0.3,0-0.5c0-0.9-0.1-1.8-0.2-2.6
		c-0.1-0.6-0.1-1.2-0.1-1.9c0-0.3,0-0.6,0.1-0.9c-0.2-0.7-0.2-1.5-0.1-2.2c0-0.1,0.1-1.9,0.1-1.9c0-0.4,0-0.8,0-1.2
		c0-0.7-0.1-1.3-0.3-1.9c-0.2-0.4-0.4-0.8-0.8-1.2c-0.4-0.8-1.2-1.2-1.6-1.9c-0.1-0.1-0.1-0.2-0.2-0.3c-0.5-0.5-0.9-1-1.2-1.6v0
		c-0.5-0.7-0.9-1.4-1.6-1.9c-0.1-0.1-0.3-0.2-0.4-0.2c-2-1.1-4.1-1.9-6.5-1.5c-0.8-0.1-1.8,0.4-2.5,0.6c-0.3-0.1-1.1,0.4-1.2-0.3
		c-0.1-0.1-0.2-0.2-0.3-0.4c-0.4-0.6-0.8-1.2-1.1-1.9h0c-0.3-0.6-0.6-1.3-1-1.9c0-0.1-0.3-0.4-0.3-0.4c-0.8-0.2-1.1-0.9-1.4-1.4h0
		c-0.2-0.4-0.5-0.7-1-0.7c-0.9-0.3-0.7-1.1-0.7-1.8c0-0.3,0-0.7-0.2-1C49.2,16,49,15.4,48.6,15c-0.3-0.5-0.8-0.8-1.3-1h-0.7
		c-0.7-0.7-1.4,0-2.2-0.1c-0.6,0.7-1.6,1.1-2.5,0.9C41.7,15,40.9,15,40.5,15c0,0-0.1,0-0.1,0c-0.7,0.9-1.8,1.1-2.7,1.3
		c-0.3,0.3-0.7,0.7-0.7,1.2h0c0,0,0,0,0,0c0,0,0,0,0,0c0,0,0,0.2,0,0.2c0.8,1-0.5,1.4-0.7,2.3c0,0.1,0,0.3,0,0.4c0,0.8-1,0.6-1.4,1
		c-0.2,0.2,0.1,0.3,0.2,0.5c0,0,0,0,0,0.1c-0.2,0.1-0.6,0-0.8,0.3c-0.2-0.2,0-0.3,0.1-0.4h0c0.1-0.1,0.1-0.2,0.1-0.3
		c-0.1,0-0.4,0.1-0.4-0.2c0.2-0.4,0.7-0.6,1.1-0.8c0.2-0.2,0.3-0.4,0.4-0.7h0c0.1-0.6-0.3-1.3,0-2.1c0-0.2-0.1-0.3-0.1-0.4
		c-0.4-0.7-1.6-0.1-1.9-1.2c-0.6-0.2-1.4,0.3-1.6-0.6c-0.5-0.2-1.2-0.2-1.6,0.3c-0.5-0.8-1.3-0.1-1.9-0.3c-0.4,0.2-0.5,0.7-0.7,1
		c-0.5-0.1-0.9-0.3-1.4-0.2c-0.4,0.2-0.7,0.6-0.9,1h0c0,0,0,0,0,0c0.1,1.4-1,0.2-1.6,0.6c-1.7-0.5-3,0.3-4.8-0.1
		c-0.6,0.6-1.4,0.4-2,0.9c-0.4,0.3-0.9,0.7-1.3,1v0c-0.6,0.5-1.2,1.1-1.5,1.9l0,0v0C14,22,14,22.2,13.9,22.4c-0.5,0.5-1,0.6-1.7,0.7
		l-2.5,2.5l-0.1,0.1c-0.2,0.6-0.5,1.1-0.6,1.7c0,0,0,0,0,0l0,0c0,0.9,0.6,1.1,0.7,1.9c0,0.3,0,0.5-0.3,0.8c0.4,0.9,0,1.6-0.5,2.3
		c-0.2,0.3-0.4,0.6-0.6,0.9c-0.1,0.3-0.1,0.6-0.2,0.9c0,0.6-0.1,1.2-0.2,1.8c0,0.4-0.1,0.9-0.1,1.3c-0.1,0.7-0.3,1.5-0.7,2.1
		c-0.2,0.7-1,0.9-1.4,1.3c-0.2,0.2-0.2,0.4-0.2,0.7c0.1,0.3,0.5,0.4,0.7,0.6c0,0.1,0,0.2-0.1,0.3C6.1,44,8.4,43,9.1,43.9
		c0.3,0,0.6,0.1,0.8,0.3c0.4,0.2,0.8,0.6,1.2,0.7c0.4,0.3,1.1-0.1,1.2,0.5c-0.6-0.1-1.3,0.2-1.7,0.7c0,0-0.1,0.1-0.1,0.1
		c-0.8,0.6-0.4,1.7-1,2.5c0.1,0.2,0.2,0.3,0.3,0.5c0.3,0.6,0.6,1.3,1.1,1.8c0.3,0,0.5,0,0.7-0.2c0.3,0,0.7,0,0.9,0.3
		c-0.1,0.4,0,0.9,0.1,1.2l0,0h0c0.2,0.7,0.5,1.3,0.7,1.9c0.1,0.2,0.3,0.7,0.4,0.8c0.3,0.8,0.3,1.2-0.1,1.4c-0.1,0.3-0.2,0.6-0.2,0.9
		c-0.2,0.8-0.4,1.7-0.7,2.5c-0.1,0.3-0.2,0.7-0.4,1c0.3,0.5,0.5,1.1,0.9,1.5c0.1,0.1,0.2,0.2,0.3,0.2c0.7,0.2,1.5-0.1,2.1-0.2l0,0
		l-0.2-1.1c0.1-0.3,0.5-0.7,0.8-0.8c1.5,0,2.7,0.8,4.2,1.1c0.8,0.2,1.7,0.6,2.6,0.8c0.6,0.2,1.2,0.3,1.7,0.4c1.3-0.5,3,0.6,4.4,0
		c0.1-0.1,0.2-0.3,0.3-0.4c0.6-0.8,1.2-1.6,1.2-2.5c0-0.1,0-0.2,0-0.4c0.7-0.6,1.5-0.7,2.2-1.3c0.6-0.1,0.5,0.6,0.9,0.8
		c0.8,0,1.7,0.3,2.5,0.2c0.6-0.2,1-0.6,1.1-1.2c0.5-0.2,1,0.3,1.5,0.4c0.3,0,0.6,0.3,0.5,0.7c0.1,0.7-0.7,0.3-0.9,0.8
		c0,0,0,0.1,0,0.1l-0.2-0.2c-0.4,0-1,0-1.5,0.1l-0.3,0c-0.5,0.1-1,0.2-1.5,0.3c-0.9,0.1-1.5,0.1-2.2,0.4c-0.1,0.4-0.3,1.1,0.3,1.3
		c0.5,0.1,1.1,0.3,1.6,0.5c1.4,0.5,2.7,1.1,4.1,1.5c3.1-0.5,6.1-1,9.1-1.4c0.7-0.1,1.5-0.2,2.2-0.3c0.3-0.2,0.3-0.6,0.3-0.9
		c-0.5-1-1.7-0.8-2.6-1.1c-0.1,0-0.2-0.1-0.2-0.1c-0.7-0.3-1.4-0.4-2-0.6c-1.2-0.6-2.4,0.2-3.7,0.1L41.5,59c-0.1-0.3,0-0.6,0.2-0.8
		c0.6-0.3,1.1-1,1.9-0.7c0.1-0.1,0.2-0.1,0.3-0.2h0c0.3-0.3,0.5-0.6,0.5-1.1c0.2-0.6,1.1-0.5,1.6-0.5c0.4-0.3,1,0,1.3-0.5
		c0.2-0.4,0.1-0.8-0.1-1.1h0c-0.2-0.3-0.4-0.6-0.4-0.9c0-0.3,0-0.7,0-1c0,0,0,0,0,0c0-0.4,0.1-0.9,0.3-1.3h0
		c0.1-0.2,0.3-0.4,0.5-0.5c0-0.8,0.5-1.5,1-2.1c0.4-0.3,0.4-0.7,0.4-1.1c0,0,0,0,0,0h0c-0.1-0.6-0.3-1.3,0.3-1.7
		c0.8,0.4,1.2-0.7,1.9-0.3l-0.2,0.8l-0.3,1.2l-0.3,1.1c0,0.3,0,0.5-0.1,0.8c-0.1,0.6-0.3,1.2-0.5,1.9h0c-0.1,0.4-0.3,0.8-0.4,1.3
		c-0.2,0.6-0.3,1.2-0.2,1.9h0c0,0.2,0,0.3,0.1,0.5c0.2,0.4,0.3,0.8,0.4,1.2c0,0.2,0.1,0.7,0.4,1.4c0.2,0.3,0.4,0.7,0.8,0.9
		c-0.1,0.6,0.5,1,0.7,1.6c0,0.1,0.1,0.3,0,0.5c0.2-0.2,0.4-0.3,0.5-0.6c0.5-0.7,0.4-1.6,0.5-2.4h0c0,0,0,0,0,0
		c0-0.4,0.1-0.7,0.3-1.1c0-0.1,0.1-0.1,0.1-0.2c0.3-0.5,0.4-1.2,0.4-1.9c0,0,0,0,0,0c0-0.6,0-1.3,0.2-1.9c0-0.3,0.4-0.8,0.6-1
		c0.1-0.2,0.2-0.4,0.3-0.5c0.5-0.5,1.3-0.5,1.8-1.1c0.2-0.2,0.5-0.3,0.8-0.5h0c0.4-0.3,0.8-0.5,0.8-1.1c-0.2-0.1-0.3,0-0.5,0.1
		c-0.3,0.5-0.7,0.8-1.1,1c-0.5,0.2-1,0.4-1.5,0.6c-0.5,0.3-0.9,0.7-1.2,1.2h0c-0.3,0.5-0.6,1-1,1.5c0-0.1,0-0.1,0-0.2
		c0-0.1,0.1-1.2,0.1-1.2c0.1-0.6,0.1-1.2,0.2-1.9l0,0v0c0.1-0.7,0.2-1.3,0.4-2c0-0.3,0.1-0.6-0.1-0.6c-0.1,0.3-0.1,0.5-0.2,0.8h0
		c0,0,0,0,0,0c-0.1,0.6-0.3,1.2-0.4,1.9h0c-0.1,0.6-0.2,1.2-0.2,1.9c0,0,0,0,0,0c0,0.4-0.1,0.8-0.1,1.3c0,0.5,0,0.9,0,1.3
		c0.3,0.3,0.4,0.7,0.4,1.1c0,0.4-0.1,0.9-0.3,1.3h0c-0.2,0.4-0.3,0.8-0.5,1.1c0,0.1,0,0.2-0.2,0.2c0,0-0.1,0-0.1-0.1
		c-0.1-0.1,0-0.4-0.1-0.6c-0.1-0.2,0-0.5,0-0.7c0.1-0.4,0.2-0.7,0-1.1c-0.3,0.3-0.3,0.7-0.4,1.1c0,0.3-0.1,0.6-0.2,0.8
		c-0.3-0.2-0.5-0.5-0.6-0.8l0,0h0c-0.2-0.4-0.3-0.8-0.6-1.2c0-0.2,0-0.4,0-0.7c0,0,0,0,0,0c0-0.7-0.1-1.3,0.1-1.9
		c0.1-0.4,0.3-0.7,0.6-1c0.1-0.7,0.2-1.4,0.3-2.1c0.1-0.5,0.2-1.1,0.3-1.6c0.1-0.5,0.2-1,0.4-1.5c0-0.1,0.1-0.2,0.1-0.3
		c0.3-0.6,0.8-1.1,1.3-1.5h0c0.8-0.7,1.6-1.3,2.5-1.9c0.2-0.2,0.4-0.3,0.6-0.5c0.2-0.2,0.3-0.6,0.6-0.8c0,0,0.1,0,0.1-0.1
		c0.3-0.5,0.5-1.4,0.9-1.8c0.2-0.2,0.5-0.3,0.9-0.2c0.1,0.1,0.2,0.1,0.2,0.2c0.2,0.2,0.4,0.5,0.5,0.7c0,0.4,0,0.7,0,1.1v0
		c0,0.4,0,0.8,0,1.2c0,0.6,0,1.2,0,1.9c0,0.6-0.1,1.2-0.1,1.9v0c0,0.4,0,0.8-0.1,1.2l0,0c0,0.6-0.1,1.3-0.1,1.9
		c0,0.5-0.1,0.9-0.1,1.4c-0.2,0.3-0.5,0.6-0.4,0.9c0.3,0,0.6,0.4,0.9,0.2c0-0.2,0-0.4-0.1-0.5c0.1-0.7,0-1.4,0.1-2.1
		c0.1-0.3,0.2-0.6,0.5-0.8c0-0.3,0-0.7-0.1-1c0,0,0,0,0,0h0c0-0.4,0-0.8,0-1.2c0,0,0,0,0,0c0-0.6,0-1.2,0-1.9c0-0.6,0-1.3,0-1.9
		c0,0,0,0,0,0c0-0.4,0-0.8,0-1.2c0,0,0,0,0,0h0c0-0.3,0-0.5,0-0.7c-0.1-0.3-0.1-0.7,0.2-0.9c0.5,0.2,0.2,0.9,0.5,1.3
		c0,0.1,0,0.2,0,0.3c0,0.4,0.1,0.8,0.1,1.2c0.1,0.6,0.1,1.3,0.2,1.9c0.1,0.6,0.2,1.2,0.2,1.9c0,0,0,0,0,0h0c0.1,0.4,0.1,0.8,0.2,1.2
		v0c0.1,0.5,0.1,1,0.2,1.5c0,0.1,0,0.3,0.1,0.4c0.1,0.1,0.1,0.2,0.3,0.2c0-0.1,0-0.1,0-0.2c0-0.6,0-1.2-0.1-1.9l0,0h0
		c0-0.4-0.1-0.8-0.2-1.2l0,0v0c-0.1-0.6-0.2-1.2-0.3-1.8l0,0c-0.1-0.5-0.2-0.9-0.2-1.4c0-0.2-0.1-0.3-0.1-0.5l0,0h0
		c-0.1-0.4,0-0.8,0-1.2c0-0.6,0.1-1.3-0.1-1.9c-0.1-0.4-0.3-0.8-0.6-1.1c0.3-0.3,0.8,0.3,0.7-0.3c-0.1-0.1-0.3-0.3-0.4-0.4h0
		c-0.1-0.1-0.1-0.1-0.2-0.1c-0.5-0.3-1-0.7-1.5-1.1h0c-0.6-0.6-1.1-1.2-1.4-1.9c-0.1-0.2-0.2-0.4-0.3-0.6c-0.1-0.4-0.1-0.9-0.1-1.3
		c0,0,0,0,0,0c0-0.4,0.1-0.8,0.2-1.2h0c0.1-0.4,0.3-0.7,0.5-1.1c0.3-0.3,0.8-0.5,1.2-0.8l0,0v0c0.1-0.1,0.2-0.2,0.3-0.3
		c0.1-0.3,0.2-0.5-0.1-0.7l-1.3,1l-0.5,0.4c-0.2,0.4-0.4,0.8-0.5,1.3c-0.1,0.4-0.3,0.8-0.3,1.2c0,0.4,0,0.7,0.1,1.1
		c0,0.3,0.1,0.6,0,0.9c0,0.1-0.1,0.2-0.1,0.3c-0.2-0.1-0.4-0.2-0.5-0.3c-0.5-0.5-0.7-1.2-0.7-1.9c0-0.8,0.1-1.5,0-2.3
		c0-0.3,0.1-0.5,0.2-0.8h0c0.4-0.7,1.2-1.3,1.8-1.8c0,0,0,0,0,0h0c0.9-0.6,1.8-1.2,2.9-1.3c1.5,0,3.3,0.4,4.6,1.3
		c0.3,0.2,0.6,0.5,0.9,0.7c-0.1,0.2-0.2,0-0.3,0c-1.3-0.4-2.5-0.5-3.9-0.2c-0.3,0.2-0.7-0.3-0.9,0.2l0.2,0.3
		c1.5,0.1,2.8-0.3,4.2,0.1c-0.4,0.9-1.5,0.6-2.3,0.8c-0.1,0-0.2,0-0.3,0.1c0,0.1,0,0.3,0.2,0.3c1-0.2,1.9,0,2.9,0.1c0,0,0-0.5,0-0.5
		c0-0.1-0.1-0.2-0.1-0.3c0.2-0.1,0.3-0.3,0.6-0.2c0.3,0.1,0.3,0.3,0.3,0.5c0,0.1-0.1,0.3,0,0.4c0.3,0.3,1.1,0,1.4,0.3
		c0.2,0.5,0.7,0.8,1.1,1.2c0.3,0.3,0.6,0.5,0.7,0.9c0.5,0.8,1.1,1.5,1.6,2.3c0.3,0.6,0.6,1.2,0.6,1.9v0c0,0,0,0,0,0.1
		c-0.2,1-0.3,2-0.3,3c0,0.6,0,1.2,0,1.9c0,0,0,0,0,0c0,0.4,0,0.8,0.1,1.2C71.2,43,71.2,43.6,71.2,44.2L71.2,44.2z"/>
	<path class="st0" d="M53.8,72.2L53.8,72.2L53.8,72.2L53.8,72.2L53.8,72.2z M25.4,73.6c-0.2-0.1-0.5-0.2-0.6-0.4
		c-0.1-0.3,0.1-0.5,0.3-0.7c0.4,0,0.8-0.2,1,0.4C26.1,73.3,25.7,73.6,25.4,73.6L25.4,73.6z M28.3,74c-0.2,0.3-0.6,0.5-1,0.3
		c-0.2-0.1-0.2-0.1-0.3-0.3c-0.1-0.3,0.1-0.5,0.2-0.7c0.2-0.2,0.8-0.3,1,0C28.3,73.6,28.5,73.8,28.3,74L28.3,74z M53.3,73.9
		c-0.5,0-1-0.4-0.7-1c0.3-0.3,0.5-0.4,0.7-0.4C54,72.6,54.3,73.9,53.3,73.9L53.3,73.9z M28.9,1.3c0.6-0.1,1.2,0.4,1.4,0.9
		c0.1,0.6-0.4,1.1-0.8,1.4c-0.3,0-0.8,0.2-1-0.1c-0.5-0.4-0.5-1-0.4-1.6C28.4,1.7,28.6,1.3,28.9,1.3L28.9,1.3z M31.8,0.7
		c0.6-0.2,1,0.2,1.3,0.6h0l0,0c0,0.1,0.1,0.1,0.1,0.2c0.1,0.4,0,0.9-0.2,1.2C32.6,3.1,32,3,31.6,3c-0.3-0.1-0.6-0.4-0.6-0.7
		C30.9,1.7,31.2,1,31.8,0.7L31.8,0.7z M33.7,1.3C33.7,1.3,33.7,1.2,33.7,1.3c0.1-0.3,0.1-0.5,0.2-0.7c0.4-0.5,1.2-0.2,1.6,0
		c0.2,0.2,0.3,0.4,0.3,0.6h0c0,0.2,0,0.5-0.1,0.7c-0.3,0.4-0.8,0.7-1.4,0.6C34,2.2,33.6,1.8,33.7,1.3L33.7,1.3z M34.6,0.9
		c-0.2,0.1-0.4,0.2-0.5,0.4h0c0,0.1,0,0.2,0,0.3c0.2,0.3,0.5,0.6,0.9,0.6C36,1.5,35.3,1.1,34.6,0.9L34.6,0.9z M36.3,1.3
		c0.1-0.5,0.4-1.2,1-1.3c0.3,0.1,0.9,0.3,1,0.7c0,0.2,0.1,0.4,0.1,0.6c0,0.3,0,0.5-0.2,0.7c-0.4,0.3-0.8,0.6-1.2,0.4
		C36.5,2.3,36.3,1.8,36.3,1.3C36.3,1.4,36.3,1.3,36.3,1.3L36.3,1.3z M38.1,1.3c0,0,0-0.1,0-0.1c-0.1-0.2-0.3-0.5-0.6-0.5
		c-0.4,0-0.9,0.1-0.9,0.7c0,0.1,0,0.1,0,0.2c0.2,0.3,0.5,0.5,0.9,0.5C37.8,1.9,38.1,1.7,38.1,1.3L38.1,1.3z M38.8,1.3
		c0-0.2,0-0.3,0-0.5C39.1,0.3,39.3,0,39.7,0c0.7,0,1.2,0.6,1.2,1.3c0,0.2-0.1,0.4-0.2,0.6c-0.3,0.4-0.9,0.8-1.4,0.4
		C39,2.1,38.8,1.7,38.8,1.3L38.8,1.3z M40.5,1.3c0-0.1,0-0.1,0-0.2c-0.1-0.6-0.8-0.4-1.1-0.4c-0.1,0.2-0.2,0.4-0.2,0.6
		c0,0.2,0,0.3,0.2,0.4c0.1,0.2,0.3,0.2,0.5,0.2C40.2,1.8,40.5,1.6,40.5,1.3L40.5,1.3z M41.4,1.3c0-0.2,0-0.4,0.2-0.6
		c0.2-0.4,0.5-0.5,0.9-0.5c0.6,0.1,1,0.4,1.1,1c0,0.1,0,0.3-0.1,0.5c-0.3,0.3-0.6,0.6-1,0.7c-0.4-0.1-0.9,0-1.1-0.5
		C41.4,1.8,41.4,1.5,41.4,1.3L41.4,1.3z M42.9,1.3c-0.2-0.3-0.5-0.7-1-0.4c-0.1,0.1-0.3,0.2-0.3,0.4c0,0,0,0,0,0.1
		C41.7,1.8,42,2,42.4,2C42.6,1.9,43,1.8,43,1.5C43,1.4,43,1.4,42.9,1.3L42.9,1.3z M43.9,1.2c0.1-0.3,0.5-0.6,0.8-0.6
		c0.7,0.2,1.1,0.3,1.2,0.8c0,0.2,0,0.5-0.1,1c-0.5,0.4-1.1,1-1.7,0.4C43.9,2.3,43.7,1.7,43.9,1.2L43.9,1.2z M45.1,1.3
		c-0.2-0.1-0.5-0.1-0.7,0h0c0,0-0.1,0-0.1,0.1c-0.1,0.3-0.2,0.7,0.1,0.8c0.3,0.3,0.5,0.2,0.8,0.1c0.2-0.1,0.3-0.4,0.3-0.7
		C45.4,1.5,45.2,1.4,45.1,1.3L45.1,1.3z M48.4,1.5c0.3,0.4,0.4,0.8,0.3,1.3c-0.2,0.4-0.5,0.5-0.8,0.8c-0.4,0.1-1.1,0-1.2-0.4
		c-0.1-0.5-0.3-1.1,0-1.5c0.3-0.3,0.6-0.4,1-0.4C47.9,1.2,48.2,1.3,48.4,1.5L48.4,1.5z M21.5,3.9c0.7-0.1,1.7,0.3,1.7,1.1
		c0,0.5-0.5,1.1-1,1.2c-0.1,0-0.3,0-0.5-0.1C21.3,6.1,21,5.5,21,4.9C21,4.5,21.1,4.1,21.5,3.9L21.5,3.9z M25.1,4.1
		c0-0.4-0.4-0.7-0.7-0.7c-0.3,0-0.6,0.3-0.6,0.7c0,0.4,0.4,0.5,0.7,0.4C24.8,4.6,25.1,4.4,25.1,4.1L25.1,4.1z M23.8,2.9
		c0.8-0.3,1.4,0.2,1.5,0.9c0.1,0.8-0.1,1.4-1.1,1.3c-0.4,0-0.7-0.4-0.9-0.9C23.3,3.8,23.4,3.2,23.8,2.9L23.8,2.9z M53.3,3.6
		c0-0.5-0.5-0.4-0.9-0.4C52,3.3,51.9,3.6,51.9,4c0.1,0.2,0.2,0.3,0.4,0.4C52.9,4.4,53.3,4.5,53.3,3.6L53.3,3.6z M51.5,3.4
		c0.2-0.6,0.7-0.9,1.3-1c0.9,0,1.2,0.8,1,1.5c-0.2,0.7-0.8,1.4-1.7,0.9C51.5,4.6,51.5,4,51.5,3.4L51.5,3.4z M54.6,3.6
		c1.2,0.1,2,1.1,1.1,2.2c-0.3,0.3-0.8,0.4-1.2,0.2c-0.3-0.2-0.6-0.5-0.6-0.8C53.7,4.5,54,3.9,54.6,3.6L54.6,3.6z M54.7,4.2
		c-0.1,0.1-0.2,0.1-0.3,0.2c-0.2,0.2-0.2,0.4-0.1,0.6c0.3,0.3,0.5,0.6,0.9,0.4c0.2-0.2,0.4-0.4,0.4-0.8C55.5,4.4,55.1,4.2,54.7,4.2
		L54.7,4.2z M26.1,3.5C26.2,3.9,26.6,4,27,3.9c0.4-0.1,0.3-0.5,0.3-0.8C26.9,2.5,25.9,2.5,26.1,3.5L26.1,3.5z M25.8,3.4
		c-0.1-0.6,0.1-1.1,0.8-1.3c0.5-0.1,1.2,0.2,1.3,1c0.1,0.7-0.4,1.1-0.9,1.2C26.4,4.5,25.8,4.2,25.8,3.4L25.8,3.4z M49.8,3.4
		c0.1,0.1,0.3,0.2,0.5,0.2c0.5-0.1,1-0.5,0.5-1c-0.1-0.1-0.3-0.2-0.5-0.2C49.5,2.3,49.4,2.9,49.8,3.4L49.8,3.4z M50.9,4
		C50.5,4.1,50,4.3,49.6,4c-0.4-0.3-0.5-0.9-0.4-1.4c0.3-0.3,0.3-0.9,0.8-0.9c0.5,0,1,0.3,1.3,0.8C51.3,3,51.3,3.6,50.9,4L50.9,4z
		 M28.5,2.4c0,0.6,0.6,0.8,1.1,0.6c0.2-0.3,0.6-0.5,0.3-0.8C29.6,1.7,28.7,1.8,28.5,2.4L28.5,2.4z M47,2.6c0.2,0.3,0.5,0.5,0.9,0.4
		c0.4-0.1,0.4-0.4,0.4-0.7C47.9,1.5,46.8,1.6,47,2.6L47,2.6z M31.4,2.1c0.1,0.4,0.5,0.5,0.8,0.5c0.2-0.1,0.6-0.3,0.6-0.6
		C32.7,1,31.1,1.3,31.4,2.1L31.4,2.1z M16.1,7.5c0-0.2,0.1-0.4,0.1-0.6c0.2-0.4,0.8-0.2,1-0.3c0.3,0.1,0.9,0.1,1,0.7
		c0,0.1,0,0.1,0,0.2c0,0,0,0,0,0c0,0.4,0,0.7-0.3,1.1c-0.3,0.2-0.7,0.5-1,0.4c-0.2-0.2-0.6-0.3-0.7-0.6C16.1,8.1,16,7.8,16.1,7.5
		C16.1,7.5,16.1,7.5,16.1,7.5L16.1,7.5L16.1,7.5z M17.7,7.5c-0.2-0.3-0.5-0.4-0.9-0.3c-0.1,0.1-0.2,0.2-0.2,0.3h0
		c0,0.1-0.1,0.3-0.1,0.4c0.1,0.5,0.4,0.5,0.9,0.4c0.3,0,0.5-0.3,0.5-0.6C17.8,7.7,17.7,7.5,17.7,7.5L17.7,7.5z M19.5,5.2
		c0.5,0.2,1.1,0.4,1.3,1c0,0.5-0.1,1.1-0.6,1.4h0c-0.1,0.1-0.2,0.1-0.3,0.1c-0.9,0.2-1.4-0.4-1.5-1.1C18.4,5.9,18.7,5.2,19.5,5.2
		L19.5,5.2z M58.6,7.3c0,0.1,0,0.2,0.1,0.3c0.1,0.2,0.3,0.3,0.5,0.4c0.2,0,0.7,0,0.9-0.4h0c0,0,0,0,0,0c0-0.4,0.1-0.7-0.3-0.8
		c-0.3-0.3-0.6-0.1-0.9,0c0,0.1-0.1,0.2-0.3,0.2c-0.2-0.4,0.3-0.7,0.5-0.8c0.6-0.1,1.2,0.1,1.5,0.7c0,0.3,0,0.6-0.1,0.8
		c-0.1,0.2-0.2,0.3-0.3,0.5c-0.3,0.2-0.7,0.6-1.1,0.3c-0.3,0-0.6-0.5-0.7-0.8C58.4,7.4,58.4,7.2,58.6,7.3L58.6,7.3z M18.9,6.7
		c0.2,0.4,0.6,0.5,1,0.5c0.4-0.1,0.5-0.5,0.4-0.9c-0.2-0.3-0.6-0.4-0.9-0.4C19,5.9,18.8,6.3,18.9,6.7L18.9,6.7z M56.5,6
		c0.3,0.3,0.4,0.7,0.8,0.6c0.3-0.1,0.5-0.3,0.6-0.6c0.1-0.4-0.3-0.7-0.6-0.7C56.9,5.3,56.4,5.5,56.5,6L56.5,6z M58.3,6.2
		c-0.2,0.6-0.6,0.9-1,0.8c-0.8-0.1-1.7-1.1-0.9-1.9c0.3-0.2,0.7-0.3,1-0.3C58.3,4.9,58.6,5.5,58.3,6.2L58.3,6.2z M21.4,5.2
		c0.1,0.3,0.5,0.7,0.9,0.5c0.3,0,0.6-0.3,0.5-0.7c0-0.4-0.4-0.6-0.8-0.6C21.7,4.5,21.4,4.8,21.4,5.2L21.4,5.2z M64.1,10
		c0-0.4-0.4-0.5-0.8-0.4c-0.2,0-0.4,0.2-0.5,0.5c0,0.1-0.1,0.2,0,0.4c0.1,0.3,0.5,0.5,0.8,0.4c0.3-0.1,0.4-0.3,0.4-0.6
		C64,10.1,64.1,10,64.1,10L64.1,10z M14.4,10.8c0.1,0.5,0,1.1-0.3,1.4c-0.4,0.1-0.8,0.3-1.1,0.1c-0.5-0.4-0.9-1.1-0.8-1.8
		c0.3-0.3,0.7-0.6,1.1-0.6C13.7,10,14.1,10.2,14.4,10.8L14.4,10.8z M14.8,8.3c0.4-0.1,0.8,0.1,1.1,0.3c0.3,0.4,0.6,0.9,0.4,1.4
		c0,0.1-0.1,0.1-0.1,0.2c-0.3,0.5-0.9,0.6-1.4,0.5c-0.4-0.2-0.6-0.6-0.7-1C14,9.1,14.2,8.5,14.8,8.3L14.8,8.3z M15.9,9.4
		c-0.2-0.3-0.5-0.5-0.7-0.5c-0.4,0-0.7,0.3-0.6,0.8c0.1,0.3,0.4,0.5,0.8,0.4C15.7,10.1,16,9.8,15.9,9.4L15.9,9.4z M61,8.7
		c0.1,0.4,0.6,0.5,0.9,0.5C62.1,9,62.5,9,62.4,8.6c-0.1-0.4-0.4-0.7-0.7-0.7C61.3,7.8,60.9,8.1,61,8.7L61,8.7z M10.6,15
		c0-0.1,0-0.2,0-0.2c0.1-0.7-1.1-0.8-1.3-0.2c0,0.1-0.1,0.3-0.1,0.4c0,0.1,0.1,0.2,0.2,0.3c0.3,0.1,0.5,0.3,0.8,0.2
		C10.4,15.4,10.5,15.2,10.6,15L10.6,15z M11,15c0,0.2,0,0.4-0.1,0.6c-0.3,0.3-0.7,0.6-1.2,0.4c-0.3-0.2-0.6-0.6-0.8-1
		c-0.1-0.3-0.1-0.6,0-0.8c0.1-0.4,0.5-0.5,0.8-0.5c0.2,0,0.4,0.1,0.7,0.1c0.1-0.3-0.2-0.7,0-1.1c0.3-0.4,0.6-0.8,1.1-0.7
		c0.4,0.1,0.8,0.1,1,0.5h0l0,0c0,0,0,0.1,0.1,0.2c0.1,0.4,0.3,1,0,1.3c-0.3,0.3-0.8,0.5-1.3,0.3c-0.1,0-0.3-0.2-0.4,0.1
		C10.9,14.6,11,14.8,11,15L11,15z M65.2,12.2c0.3-0.1,0.6-0.4,0.5-0.8C65.6,11,65.2,11,64.9,11c-0.4,0-0.6,0.3-0.5,0.6
		C64.5,12,64.8,12.4,65.2,12.2L65.2,12.2z M12.6,11.5c0.2,0.4,0.5,0.4,0.9,0.4c0.4-0.1,0.5-0.6,0.4-0.9c-0.2-0.3-0.5-0.4-0.8-0.3
		C12.7,10.7,12.4,11,12.6,11.5L12.6,11.5z M67.7,12.5L67.7,12.5L67.7,12.5c0,0.1,0.1,0.2,0.1,0.3c0.2,0.5-0.3,1.2-0.8,1.4
		c-0.4,0.2-0.8,0-1.1-0.3c-0.2-0.4-0.4-0.8-0.2-1.3c-0.3-0.2-0.6,0.1-1.1-0.1c-0.1,0-0.1-0.1-0.2-0.1c-0.4-0.3-0.5-0.8-0.5-1.3
		c-0.8,0.2-1.8-0.2-1.6-1.1c0,0,0-0.1,0-0.1h0c0.1-0.3,0.2-0.6-0.4-0.3c-0.5,0.1-1.2,0-1.4-0.7c-0.1-1,0.2-1.7,0.8-1.8
		c0.3,0,0.6,0,1,0.2h0l0,0c0.2,0.1,0.3,0.2,0.4,0.5c0.3,0.5,0,0.8,0,1.2c0.4,0,0.8-0.5,1.3-0.2c1,0.4,0.3,1.4,0.5,1.6
		c0.4-0.1,0.7-0.2,1.1-0.1c0.6,0.3,0.5,1.1,0.5,1.7c0.3,0.3,0.7-0.1,0.9,0C67.4,11.9,67.6,12.2,67.7,12.5L67.7,12.5z M67.6,14.2
		c0.7-0.5,1.5-0.3,1.9,0.4c0,0.1,0,0.2,0,0.3c0,0,0,0,0,0h0c0,0.5-0.4,1-0.9,1.1c-0.5,0.1-1.1,0-1.3-0.6
		C67.1,15,67.4,14.6,67.6,14.2L67.6,14.2z M69,15c0,0,0-0.1,0-0.1c-0.1-0.3-0.3-0.5-0.6-0.5c-0.4,0-0.9,0.3-0.8,0.8
		c0.2,0.3,0.6,0.6,0.9,0.5C68.8,15.6,69,15.3,69,15L69,15z M11.3,13.9c0.3,0.1,0.7,0,0.9-0.2c0.2-0.2,0.1-0.5,0.1-0.7
		c-0.2-0.3-0.7-0.5-1-0.4C10.5,12.7,10.8,13.6,11.3,13.9L11.3,13.9z M66,13.3c0.1,0.4,0.5,0.6,0.8,0.6c0.4,0,0.6-0.6,0.5-0.9
		c-0.2-0.4-0.5-0.4-0.9-0.4C66.1,12.7,66,13,66,13.3L66,13.3z M69.7,15.9c0.8-0.1,1.1,0.4,1.1,0.9c0,0.5-0.4,1.1-0.9,1.2
		c-0.7,0.1-1.1-0.4-1.2-0.9C68.6,16.6,68.9,16,69.7,15.9L69.7,15.9z M70.3,16.8c-0.1-0.4-0.5-0.5-0.9-0.4c-0.5,0-0.6,0.8-0.2,1.1
		c0,0,0,0,0.1,0c0.1,0.1,0.3,0.1,0.4,0.1C70.1,17.6,70.5,17.3,70.3,16.8L70.3,16.8z M7.7,17c0.2,0.4,0.6,0.3,0.9,0.3
		c0.3-0.1,0.6-0.4,0.5-0.8c-0.2-0.3-0.6-0.6-1-0.5C7.8,16.2,7.5,16.6,7.7,17L7.7,17z M70.9,19.5c-0.3,0-0.5-0.1-0.6-0.3
		c-0.2-0.5,0.3-0.8,0.6-0.8c0.4,0,0.6,0.2,0.6,0.5C71.5,19.1,71.3,19.4,70.9,19.5L70.9,19.5z M6.5,18.9c0.2,0.2,0.3,0.4,0.7,0.3
		c0.4,0,0.7-0.3,0.7-0.8c0-0.4-0.4-0.6-0.8-0.6C6.5,18,6.2,18.4,6.5,18.9L6.5,18.9z M71.4,20.8c0.1,0.4,0.3,0.7,0.8,0.6
		c0.3-0.1,0.7-0.4,0.5-0.8C72.5,20,71.4,20.1,71.4,20.8L71.4,20.8z M5.4,21.1c0.1,0,0.5,0.3,0.7,0.1c0.3-0.2,0.6-0.5,0.4-0.9
		c-0.3-0.4-0.9-0.5-1.3-0.1C5.1,20.5,5.1,20.9,5.4,21.1L5.4,21.1z M73.3,23.4c-0.3,0-0.6-0.2-0.8-0.4c-0.2-0.3,0-0.7,0.3-0.8
		c0.6-0.1,0.9,0.2,1,0.5C73.9,23,73.7,23.3,73.3,23.4L73.3,23.4z M4.1,22.9c0,0.3,0.5,0.6,0.8,0.5c0.4,0,0.5-0.5,0.6-0.8
		c0-0.5-0.6-0.5-0.9-0.5C4.2,22.2,4.1,22.6,4.1,22.9L4.1,22.9z M5.4,23.7L5.4,23.7L5.4,23.7c-0.1,0.1-0.2,0.1-0.3,0.1H4.7
		c0,0.5,0.4,0.9,0.1,1.5c-0.1,0.1-0.1,0.2-0.2,0.3c-0.2,0.2-0.4,0.2-0.6,0.3c0,0.5,0.6,1.1,0,1.6c0,0,0,0,0,0
		c-0.3,0.4-0.9,0.4-1.3,0.3c-0.1-0.1-0.2-0.2-0.2-0.3c-0.1-0.2-0.3-0.4-0.4-0.6c-0.3-0.7,0.6-0.9,0.8-1.3h0c0.1-0.2,0.1-0.4-0.3-0.7
		c0-0.4,0.2-0.9,0.5-1.1c0.1,0,0.1-0.1,0.2-0.1c0.2,0,0.4,0.1,0.5-0.1c0-0.3-0.3-0.6-0.3-0.9C3.7,22.3,3.8,22,4,21.8
		c0.1-0.1,0.2-0.2,0.4-0.3c0.3,0,0.5,0,0.8-0.2c-0.6-0.6-0.6-2.5,0.8-2c0.1-0.5-0.2-1,0-1.5c0.1-0.2,0.3-0.3,0.5-0.4
		c0.2-0.1,0.5,0,0.7,0v0l0,0c0.1,0,0.1,0,0.2,0c0,0,0,0,0,0c0.2-0.3-0.1-0.6-0.2-0.9c-0.1-0.5,0.1-0.9,0.5-1
		c0.7-0.3,1.4,0.1,1.7,0.8c0.1,0.3,0,0.7-0.2,1c-0.1,0.2-0.3,0.4-0.5,0.5L8,17.7c0,0.5,0.4,1.1,0.1,1.6c-0.3,0.4-0.8,0.6-1.3,0.4
		c0,0.1,0,0.1,0,0.2c0,0.3,0.3,0.6,0.1,1c-0.3,0.5-0.7,0.8-1.3,0.8c0,0,0,0.1,0,0.1c0,0.4,0.5,0.7,0.2,1.2
		C5.9,23.3,5.7,23.5,5.4,23.7L5.4,23.7z M73.3,25.6c-0.1-0.2-0.1-0.5,0-0.7c0.2-0.4,0.5-0.8,1-0.9c0.5,0.1,1,0.3,1.1,0.7
		c0,0.3,0,0.6-0.1,0.9c0,0.1-0.1,0.2-0.3,0.4c-0.5,0.3-0.9,0.5-1.4,0.2C73.5,25.9,73.3,25.8,73.3,25.6L73.3,25.6z M74.8,25.6
		c0.1-0.2,0.2-0.4,0.1-0.6c-0.1-0.4-0.5-0.4-0.9-0.4c-0.2,0.3-0.6,0.4-0.4,0.8c0,0.1,0.1,0.1,0.1,0.2c0.2,0.2,0.5,0.2,0.8,0.2
		C74.7,25.7,74.7,25.6,74.8,25.6L74.8,25.6z M3.5,25.4c0.3,0.1,0.8,0.1,0.9-0.3c0-0.3,0.2-0.3,0.1-0.7c-0.3-0.5-1.1-0.6-1.4,0
		C3,24.8,3.1,25.2,3.5,25.4L3.5,25.4z M74,27.4c0.1-0.3,0.3-0.6,0.4-0.8c0.5-0.4,1.1-0.2,1.5,0.2c0.8,1-0.4,1.8-1,1.8
		c-0.4,0-0.7-0.3-0.9-0.7C74,27.7,74,27.5,74,27.4L74,27.4z M75.7,27.4c0-0.1,0-0.1,0-0.2c-0.1-0.3-0.6-0.4-0.8-0.5
		c-0.3,0.1-0.5,0.4-0.5,0.7c0,0,0,0.1,0,0.1c0.2,0.3,0.5,0.5,0.9,0.5C75.5,27.9,75.6,27.7,75.7,27.4L75.7,27.4z M2.5,26.4
		c-0.1,0.2,0,0.6,0.2,0.7c0.2,0.2,0.6,0.3,0.9,0.2c0.2-0.1,0.5-0.4,0.4-0.7C3.8,26.2,3.4,26,3.1,26C2.9,26.1,2.5,26.1,2.5,26.4
		L2.5,26.4z M3.4,28.7c-0.2-0.2-0.4-0.5-0.8-0.4c-0.2,0-0.5,0.1-0.5,0.3C2,28.9,2,29.1,2,29.3c0,0,0,0.1,0.1,0.1
		c0.3,0.2,0.6,0.2,0.9,0.2c0.1-0.1,0.2-0.2,0.2-0.3C3.4,29.3,3.4,28.8,3.4,28.7L3.4,28.7z M76.9,29.6c0.2,0.9-0.5,1.3-1,1.4
		c-0.7,0.1-1.1-0.5-1.1-1c0-0.2,0-0.5,0.1-0.7c0-0.1,0.1-0.2,0.2-0.2c0.2-0.2,0.5-0.3,0.8-0.3C76.3,28.8,76.8,29.1,76.9,29.6
		L76.9,29.6z M2.8,31c-0.1-0.7-1.1-0.8-1.4-0.3c-0.1,0.2-0.1,0.3,0,0.5c0.1,0.1,0.2,0.3,0.3,0.4c0.2,0.1,0.4,0.3,0.7,0.1
		c0.2-0.1,0.4-0.3,0.4-0.5C2.8,31.2,2.8,31,2.8,31L2.8,31z M75.9,30.5c0.5,0,0.7-0.4,0.5-0.8c-0.1-0.3-0.4-0.4-0.6-0.4
		c-0.3,0-0.6,0.2-0.6,0.6C75.2,30.3,75.4,30.5,75.9,30.5L75.9,30.5z M76.2,31.5c-0.4,0-0.6,0.3-0.5,0.6c0,0.4,0.3,0.8,0.8,0.7
		c0.4-0.1,0.5-0.4,0.4-0.7C76.9,31.8,76.6,31.6,76.2,31.5L76.2,31.5z M77.6,33.9c0.1,0.1,0.1,0.2,0.2,0.3h0c0.1,0.8-0.3,1.1-1.1,1.2
		c-0.5,0-1.2-0.4-1.1-0.9c0.1-0.6,0.6-1,1.1-1C77,33.5,77.3,33.6,77.6,33.9L77.6,33.9z M76.6,34.1c-0.3,0.2-0.4,0.3-0.5,0.6
		c0.1,0.3,0.5,0.6,0.7,0.5c0.3-0.1,0.5-0.4,0.4-0.6C77.1,34.3,76.9,34,76.6,34.1L76.6,34.1z M1.4,33.9c0.3,0.1,0.8,0.2,1.1-0.1
		c0.3-0.3,0.2-0.7-0.1-1c-0.5-0.3-0.8,0-1.2,0.4C1.1,33.5,1.1,33.7,1.4,33.9L1.4,33.9z M0.6,35.3c0.4-0.5,1.1-0.8,1.7-0.3
		c0.2,0.3,0.5,0.7,0.4,1.1h0c0,0.1,0,0.2-0.1,0.3c0,0.3-0.3,0.4-0.5,0.6c-0.4,0.1-0.8,0-1.1-0.1C0.6,36.4,0.3,35.8,0.6,35.3
		L0.6,35.3z M2.3,35.6c-0.1-0.4-0.6-0.5-0.9-0.4c-0.4,0-0.6,0.5-0.5,0.9c0,0,0,0,0,0c0.2,0.3,0.6,0.5,1,0.4c0.2,0,0.3-0.2,0.4-0.4
		C2.4,36.1,2.3,35.6,2.3,35.6L2.3,35.6z M76,36.4c0.6-0.5,1.6-0.2,1.2,0.7C76.7,37.8,75.6,37.1,76,36.4L76,36.4z M76.2,35.8
		c0.4-0.2,0.8,0,1.2,0.3h0l0,0c0.1,0.1,0.2,0.3,0.3,0.4c0.1,0.2,0.1,0.3,0,0.5c-0.1,0.4-0.6,0.7-0.8,0.9c0.2,0.3,0.8,0.4,0.9,0.9
		c0.1,0.2,0.1,0.3,0,0.5c-0.1,0.4-0.6,0.6-0.9,0.7c-0.6,0-1-0.1-1.3-0.7c0,0,0-0.1,0-0.1c-0.1-0.3,0-0.7,0.2-0.8
		c0.1-0.3,0.5-0.3,0.4-0.6C75.3,37.7,75.3,36.1,76.2,35.8L76.2,35.8z M0.4,39.2c-0.3-0.4-0.5-0.8-0.3-1.3c0.3-0.4,0.6-0.6,1-0.5
		c0.5,0,1,0.3,1.2,0.8c0.2,0.4,0,0.7-0.3,1.1c-0.3,0.4-1,0.5-1.4,0.3C0.5,39.4,0.4,39.3,0.4,39.2L0.4,39.2z M77.3,39.2
		c0.1-0.3,0-0.9-0.5-0.9c-0.3,0-0.4,0.2-0.6,0.4c-0.1,0.1-0.1,0.4,0,0.5c0,0.1,0,0.1,0.1,0.1c0.2,0.1,0.4,0.3,0.7,0.2
		C77.1,39.6,77.2,39.4,77.3,39.2L77.3,39.2z M1.2,39.2c0.4,0,0.9-0.4,0.7-0.8c-0.1-0.3-0.4-0.5-0.8-0.5c-0.3,0-0.8,0.4-0.8,0.7
		C0.5,39,0.7,39.2,1.2,39.2L1.2,39.2z M2.4,41.1c-0.1-0.4-0.8-0.5-1.3-0.5c-0.2,0.1-0.3,0.3-0.4,0.5c0,0.1,0,0.2,0,0.3
		c0.2,0.3,0.6,0.5,1.1,0.4C2.2,41.8,2.4,41.5,2.4,41.1C2.4,41.2,2.4,41.1,2.4,41.1L2.4,41.1z M76.1,40.3c0.5-0.1,1.3-0.1,1.5,0.6
		c0,0.1,0,0.2,0,0.2h0c0,0.5-0.3,0.8-0.7,1c-0.1,0-0.2,0-0.3,0c-0.7,0-1.2-0.4-1.3-0.9C75.4,40.9,75.6,40.5,76.1,40.3L76.1,40.3z
		 M77.2,40.9c-0.3-0.3-0.5-0.3-0.9-0.3c-0.3,0.1-0.5,0.5-0.3,0.8c0.1,0.3,0.5,0.6,0.9,0.4C77.1,41.6,77.3,41.2,77.2,40.9L77.2,40.9z
		 M1,42.3c-0.4-0.1-0.4-0.7-0.6-1c0-0.1,0-0.2,0-0.3c0.1-0.4,0.3-0.9,0.7-1c0.5-0.2,1,0.2,1.3,0.6c0.1,0.4,0.3,0.8,0,1.2
		C2.1,42.3,1.6,42.5,1,42.3L1,42.3z M2.7,44.2c-0.1,0.1-0.1,0.2-0.2,0.3c-0.5,0.3-1.2,0.3-1.8,0c-0.1-0.1-0.2-0.2-0.2-0.3
		c-0.1-0.3,0.2-0.7,0.1-1c0.5-0.9,1.9-0.7,2.2,0.2C2.8,43.7,2.8,44,2.7,44.2L2.7,44.2z M2.2,44.2c0.1-0.1,0.1-0.1,0.2-0.2
		c0.1-0.3-0.1-0.6-0.3-0.8c-0.4-0.1-0.7,0-1,0.3C1,43.7,1,44,1.1,44.2h0l0,0c0,0,0,0,0,0.1C1.5,44.4,1.9,44.5,2.2,44.2L2.2,44.2z
		 M75.2,43.4c-0.1-0.8,0.6-0.9,1.2-0.9c0.4,0,0.8,0.4,1.1,0.6c0.1,0.3,0.1,0.8-0.2,1c-0.4,0.3-0.9,0.6-1.4,0.4
		C75.4,44.3,75.3,43.9,75.2,43.4L75.2,43.4z M76.6,44.2c-0.3,0.1-0.5-0.1-0.8-0.3c-0.1-0.2-0.2-0.5-0.1-0.7c0.4-0.5,1.2-0.3,1.3,0.2
		C77,43.7,76.9,44,76.6,44.2L76.6,44.2z M0.8,46.1c0-0.1,0-0.1,0-0.2c0.1-0.5,0.6-0.5,0.9-0.8c0.5,0,1.1,0.2,1.3,0.7
		c0.1,0.6,0,1.1-0.6,1.4c-0.3,0-0.7,0.3-1,0C1.1,47,0.8,46.5,0.8,46.1C0.8,46.1,0.8,46.1,0.8,46.1L0.8,46.1L0.8,46.1z M2.7,46
		c-0.1-0.3-0.4-0.7-0.8-0.6c-0.2,0-0.5,0.1-0.5,0.3c-0.1,0.1-0.1,0.2-0.1,0.3c0,0.2,0.1,0.4,0.2,0.6c0.3,0.2,0.8,0.2,1.1,0.1
		C2.6,46.6,2.7,46.3,2.7,46L2.7,46z M75.5,44.8c0.5-0.1,1.3,0.3,1.5,0.8c0.4,0.7-0.7,1.1-1.2,1.1c-0.6,0-1-0.5-1-1
		C74.8,45.4,75,45,75.5,44.8L75.5,44.8z M76.4,46.1c0.1-0.3,0.2-0.5,0-0.7c-0.3-0.4-0.8-0.2-1.1,0.1c-0.1,0.2-0.1,0.4,0,0.6
		c0.1,0.1,0.1,0.2,0.2,0.3c0.3,0,0.7,0.2,0.9-0.2C76.3,46.2,76.3,46.1,76.4,46.1L76.4,46.1z M76.2,47.7c0.1,0.3,0.1,0.9-0.2,1.2
		c-0.4,0.5-0.8,0.2-1.4,0.2c-0.5-0.3-0.7-0.9-0.5-1.4c0.3-0.6,0.8-0.7,1.2-0.6C75.7,47.1,76.1,47.4,76.2,47.7L76.2,47.7z M3.4,48.7
		C3.2,48,2.5,48,2.1,48.5c-0.1,0.2-0.1,0.5,0,0.7h0l0,0c0,0.1,0.1,0.1,0.1,0.1c0.3,0.2,0.7,0.2,1,0C3.4,49.1,3.5,48.9,3.4,48.7
		L3.4,48.7z M2.8,50c-0.5,0.1-0.9-0.3-1.1-0.7c0,0,0-0.1,0-0.1h0l0,0c-0.1-0.4,0-0.9,0.4-1.2c0.3-0.4,1.4-0.5,1.7,0
		C4.2,48.9,3.8,50,2.8,50L2.8,50z M75.1,48.8c-0.2,0-0.6-0.2-0.7-0.5c-0.2-0.4,0.2-0.8,0.5-0.9c0.3,0.1,0.7,0.1,0.9,0.4
		C75.9,48.3,75.5,48.7,75.1,48.8L75.1,48.8z M3.7,50.4c0.8,0,1.2,0.5,1,1.2c-0.1,0.6-0.4,1-1,1.1c-0.3,0-0.7,0-0.9-0.3h0
		c-0.2-0.3-0.3-0.6-0.3-0.8C2.6,50.9,3.1,50.4,3.7,50.4L3.7,50.4z M4.2,51L4.2,51c-0.2-0.1-0.4-0.2-0.7-0.2c-0.1,0-0.2,0.1-0.3,0.2
		c-0.1,0.1-0.2,0.3-0.3,0.6c0.2,0.3,0.4,0.8,0.9,0.6c0.3-0.2,0.7-0.5,0.5-0.9C4.4,51.2,4.3,51.1,4.2,51L4.2,51z M73.5,51
		c-0.2-0.3-0.2-0.7-0.1-1.1c0.1-0.4,0.5-0.5,0.8-0.7c0.5,0,1,0.3,1.3,0.8c0.1,0.4,0.1,0.7-0.1,1h0c-0.1,0.1-0.2,0.2-0.3,0.3
		c-0.3,0-1,0.1-1.3,0C73.7,51.3,73.6,51.2,73.5,51L73.5,51L73.5,51L73.5,51z M74.6,51c-0.4,0.1-0.7-0.1-0.8-0.5c0-0.2,0-0.5,0.2-0.6
		c0.4-0.2,0.9-0.2,1.1,0.3C75.1,50.5,74.9,50.9,74.6,51L74.6,51z M72.7,52.3c0-0.1,0.1-0.2,0.1-0.2c0.2-0.4,0.7-0.5,1.1-0.5
		c0.3,0.2,0.6,0.5,0.8,0.8c0,0.1,0.1,0.1,0.1,0.2c0,0.3,0,0.7-0.2,0.9c-0.3,0.3-0.8,0.2-1.2,0.2c-0.3,0-0.4-0.3-0.5-0.5
		C72.7,52.9,72.6,52.6,72.7,52.3L72.7,52.3z M74.2,52.3c-0.2-0.3-0.9-0.3-1.1,0C73,52.4,73,52.6,73,52.7c0.2,0.3,0.3,0.6,0.7,0.6
		c0.4-0.1,0.6-0.4,0.6-0.8C74.3,52.4,74.3,52.3,74.2,52.3L74.2,52.3z M4.9,52.7c0.9,0,1.2,0.6,1.1,1.1c0,0.3-0.2,0.6-0.4,0.9
		c0.5,0.1,1,0.1,1.3,0.6C7.1,55.5,7.1,55.8,7,56h0c0,0.2-0.1,0.4-0.2,0.5L6.4,57c0.4,0.2,1,0,1.4,0.3h0l0,0C7.9,57.4,8,57.5,8,57.7
		c0.1,0.5-0.1,0.8-0.3,1.2c0.4,0,0.7-0.2,1.1,0.1c0.2,0.3,0.5,0.5,0.5,0.8h0c0,0.1,0,0.3-0.1,0.5c-0.1,0.1,0,0.2,0,0.3
		c0.3,0.1,0.9-0.1,1.3,0.2c0.3,0.4,0.5,0.8,0.4,1.2c0,0.1-0.1,0.2-0.1,0.3h0c-0.2,0.3-0.4,0.5-0.6,0.6c-0.3,0.1-0.8,0.1-1-0.2
		c-0.1-0.1-0.2-0.2-0.3-0.4c-0.1-0.2-0.1-0.5-0.1-0.7c0.1-0.2,0.2-0.4,0.3-0.6c-0.1-0.2-0.4,0.1-0.6,0.1c-0.4,0-1-0.1-1.1-0.7
		c-0.1-0.2-0.1-0.5-0.1-0.7c0-0.2,0.1-0.4,0.3-0.6c-0.3-0.3-1.1,0.3-1.4-0.3c-0.3-0.4-0.3-1-0.1-1.4l0.2-0.2l0.1-0.1
		c-0.5-0.3-1.3-0.2-1.4-1c0,0,0-0.1,0-0.1c0,0,0,0,0,0h0c0-0.4,0.3-0.7,0.5-1.1c-0.4-0.1-1.2,0-1.4-0.6C3.5,53.6,4,52.6,4.9,52.7
		L4.9,52.7z M5.5,53.6c-0.2-0.3-0.5-0.3-0.9-0.3c-0.3,0.1-0.5,0.4-0.5,0.8c0,0.1,0.1,0.1,0.1,0.2c0.2,0.2,0.5,0.4,0.8,0.2
		c0.1-0.1,0.2-0.1,0.3-0.2C5.5,54.2,5.5,53.6,5.5,53.6L5.5,53.6z M71.9,54.2c0.2-0.3,0.6-0.5,0.9-0.5c0.3,0,0.7,0.2,1,0.5
		c0,0,0,0,0,0c0.1,0.4,0.1,1-0.2,1.3c-0.4,0.3-0.9,0.3-1.3,0C71.9,55.2,71.7,54.7,71.9,54.2C71.8,54.2,71.9,54.2,71.9,54.2
		L71.9,54.2z M73.1,54.2c-0.1-0.1-0.2-0.1-0.4-0.1c-0.1,0-0.1,0-0.2,0.1c-0.2,0.1-0.4,0.3-0.3,0.6c0.1,0.3,0.4,0.7,0.8,0.6
		c0.2-0.3,0.6-0.4,0.4-0.8C73.4,54.4,73.3,54.2,73.1,54.2L73.1,54.2z M6.6,55.6c-0.2-0.3-0.6-0.4-0.9-0.3c-0.2,0.2-0.5,0.4-0.4,0.8
		c0,0,0,0,0,0.1c0.2,0.3,0.5,0.5,0.9,0.4c0.2-0.1,0.4-0.2,0.5-0.5C6.7,56,6.6,55.6,6.6,55.6L6.6,55.6z M70.7,56
		c0.2-0.2,0.4-0.4,0.7-0.5c0.4-0.1,0.7,0.1,1,0.3c0.1,0.1,0.1,0.1,0.2,0.2c0.2,0.4,0.1,0.8-0.1,1.2c0,0.1-0.1,0.2-0.2,0.3
		c-0.4,0.2-0.9,0-1.3,0c-0.1-0.1-0.2-0.2-0.3-0.3c-0.2-0.3-0.2-0.7-0.1-1.1C70.7,56.1,70.7,56.1,70.7,56L70.7,56z M72,56
		c-0.2-0.1-0.4-0.1-0.5-0.1c-0.1,0-0.1,0.1-0.2,0.1c-0.2,0.1-0.4,0.3-0.4,0.6c0,0.5,0.6,0.5,0.9,0.6c0.3-0.2,0.7-0.4,0.5-0.9
		C72.3,56.2,72.1,56.1,72,56L72,56z M7.6,60.1c0.1,0.3,0.4,0.4,0.7,0.4c0.4,0,0.7-0.2,0.7-0.6c-0.1-0.4-0.4-0.6-0.7-0.6
		C7.9,59.4,7.6,59.6,7.6,60.1L7.6,60.1z M68.2,59.9c-0.6,0.3-0.5,1-0.5,1.4c0.3,0.5,0.9,0.7,1.3,0.7c0.4,0,0.6-0.5,0.8-0.7
		c0.1-0.4,0-0.9-0.3-1.3C69.1,59.6,68.7,59.8,68.2,59.9L68.2,59.9z M69.3,59.2c0-0.5-0.2-1.3,0.5-1.6c0.5,0,0.8,0,1.2,0.3
		c0.2,0.4,0.5,0.9,0.2,1.4c-0.2,0.4-0.7,0.6-1.2,0.5C69.8,59.8,69.4,59.5,69.3,59.2L69.3,59.2z M70.6,59.3c-0.3,0.2-0.6-0.1-0.9-0.2
		c-0.2-0.2-0.2-0.6,0-0.8c0.4-0.5,1.1-0.4,1.3,0.2C71,58.9,70.8,59.2,70.6,59.3L70.6,59.3z M6.3,58.4c0.1,0.4,0.6,0.3,0.9,0.3
		c0.3-0.1,0.5-0.5,0.4-0.8c-0.1-0.3-0.5-0.4-0.8-0.4C6.3,57.5,6.3,58,6.3,58.4L6.3,58.4z M10.5,61.6c0-0.3-0.4-0.5-0.7-0.5
		c-0.3,0-0.6,0.2-0.7,0.6c0,0.4,0.4,0.6,0.8,0.6C10.2,62.2,10.5,62,10.5,61.6L10.5,61.6z M66.2,62.2c0.1-0.3,0.3-0.5,0.6-0.5
		c0.4-0.1,1,0.1,1.3,0.5c0.1,0.1,0.2,0.2,0.2,0.4c0,0.5-0.1,1.3-0.8,1.3c-0.5,0-1.1-0.1-1.4-0.7C66.1,62.9,66.1,62.5,66.2,62.2
		L66.2,62.2z M67.4,62.2c-0.2-0.1-0.4-0.1-0.6,0c0,0,0,0-0.1,0c-0.2,0.2-0.4,0.3-0.4,0.6c0.1,0.3,0.4,0.6,0.8,0.5
		c0.4-0.1,0.7-0.5,0.6-0.9C67.7,62.4,67.6,62.3,67.4,62.2L67.4,62.2z M68.9,61.5c-0.4,0.1-0.9-0.2-0.9-0.7c0.1-0.3,0.3-0.5,0.6-0.6
		c0.4,0,0.6,0.2,0.8,0.5C69.4,61.1,69.3,61.5,68.9,61.5L68.9,61.5z M10.5,63.1c0.3-0.3,0.5-0.6,0.9-0.6c0.5-0.1,0.8,0.2,1.1,0.4
		c0.5,0.5-0.1,1.1-0.1,1.6c-0.1,0.1-0.2,0.2-0.3,0.2c-0.4,0.2-0.8,0.1-1.2,0c0,0,0,0,0,0h0C10.6,64.3,10.2,63.7,10.5,63.1L10.5,63.1
		z M13,64.5c0.6,0,1.3,0.2,1.3,0.9c0.2,1-0.7,1.4-1.6,1.3c-0.4-0.2-0.5-0.6-0.6-1C12.1,65.1,12.4,64.5,13,64.5L13,64.5z M64.4,64.7
		c0-0.5,0.2-0.9,0.4-1.1c0.3-0.3,0.8-0.3,1.4,0.1c0.2,0.3,0.4,0.6,0.4,1c0,0.2-0.1,0.3-0.2,0.5c-0.3,0.3-0.7,0.5-1.1,0.4
		C65,65.3,64.4,65.3,64.4,64.7C64.4,64.8,64.4,64.8,64.4,64.7L64.4,64.7z M66.1,64.7C66.1,64.7,66.1,64.7,66.1,64.7
		c0-0.2,0.1-0.5-0.1-0.5c-0.2-0.5-1.2-0.3-1.1,0.4c0,0.2,0.1,0.4,0.6,0.5C65.8,65.1,66,64.9,66.1,64.7L66.1,64.7z M11.9,64.3
		c-0.3,0.1-0.7,0-0.9-0.3c-0.2-0.4,0.1-0.7,0.3-0.9c0.4,0,0.7,0,0.9,0.3C12.4,63.7,12.3,64.2,11.9,64.3L11.9,64.3z M13.9,67.2
		c0.1-0.3,0.2-0.5,0.3-0.7c0.5-0.4,1.3-0.6,1.8,0c0.2,0.2,0.2,0.5,0.1,0.8c0,0.1-0.1,0.3-0.1,0.4c-0.3,0.3-0.5,0.7-0.9,0.8
		c-0.4,0-0.8-0.1-1.1-0.5C13.9,67.7,13.9,67.5,13.9,67.2L13.9,67.2z M15.6,67.2c-0.1-0.5-0.8-0.8-1.2-0.3c-0.1,0.1-0.1,0.2-0.1,0.3
		c0.1,0.2,0.3,0.3,0.4,0.5c0.3,0.1,0.7,0.1,0.8-0.2C15.6,67.4,15.7,67.3,15.6,67.2L15.6,67.2z M61,67.2c0.2-0.2,0.5-0.3,0.7-0.3
		c0.4,0,0.7,0.1,0.9,0.3h0l0,0c0.1,0.1,0.2,0.3,0.3,0.4c0.2,0.4,0,0.8-0.1,1.2c-0.3,0.3-0.9,0.3-1.4,0.3c-0.6-0.3-0.7-1.1-0.5-1.7
		C60.9,67.4,60.9,67.3,61,67.2L61,67.2z M63.2,67.2c-0.2-0.1-0.3-0.2-0.4-0.3c-0.1-0.4-0.3-0.8,0-1.2c0.2-0.2,0.4-0.6,0.7-0.6
		c0.5,0,1.2,0.2,1.3,0.9c0.1,0.6-0.3,1-0.7,1.3h0c-0.1,0.1-0.1,0.1-0.2,0.1C63.7,67.4,63.5,67.3,63.2,67.2L63.2,67.2L63.2,67.2
		L63.2,67.2z M13.8,66c-0.4,0.3-0.7,0.1-1,0c-0.2-0.2-0.2-0.5-0.1-0.8c0.4-0.4,0.7-0.3,1.1-0.1C14,65.4,14,65.7,13.8,66L13.8,66z
		 M63.9,66.8c-0.3,0-0.6-0.1-0.8-0.4c-0.1-0.4,0.2-0.7,0.6-0.8c0.3-0.1,0.6,0.1,0.7,0.3C64.3,65.9,64.4,66.7,63.9,66.8L63.9,66.8z
		 M15.8,69.2c-0.2-0.9,0.4-1.2,1-1.6c0.3-0.2,0.7,0.3,1.1,0.4c0.4,0.3,0.2,1,0.1,1.4c0,0.1-0.1,0.2-0.2,0.3h0
		c-0.2,0.2-0.6,0.3-0.9,0.4C16.4,70.1,15.9,69.6,15.8,69.2L15.8,69.2z M18.1,69.7c0.2-0.4,0.6-0.6,1-0.7c0.4,0.1,0.9,0.1,1,0.6
		c0,0,0,0.1,0,0.1c0,0.5,0.2,0.9-0.2,1.3c-0.3,0.3-0.8,0.5-1.3,0.3c-0.3-0.4-0.6-0.7-0.6-1.2C18,70,18,69.8,18.1,69.7L18.1,69.7z
		 M19.5,69.7c-0.2-0.1-0.4-0.1-0.7-0.1c0,0-0.1,0-0.1,0.1c-0.2,0.1-0.2,0.4-0.2,0.6c0.2,0.3,0.6,0.5,0.9,0.4
		c0.2-0.1,0.5-0.4,0.4-0.7C19.7,69.9,19.6,69.8,19.5,69.7L19.5,69.7z M58.6,69.7C58.6,69.7,58.6,69.7,58.6,69.7
		c-0.3-0.6,0.3-1.1,0.7-1.3c0.6-0.1,1.4,0.1,1.5,0.9c0,0.2,0,0.3,0,0.5c-0.1,0.3-0.2,0.5-0.4,0.7c-0.3,0.3-0.7,0.3-1,0.2
		C59,70.5,58.8,70.1,58.6,69.7L58.6,69.7z M60.3,69.7c0-0.1,0-0.1,0-0.2c0.1-0.6-0.6-0.8-1-0.5c-0.3,0.1-0.4,0.4-0.3,0.7
		c0,0,0,0.1,0,0.1c0.1,0.3,0.5,0.5,0.8,0.4C60,70.1,60.2,69.9,60.3,69.7L60.3,69.7z M17.4,69.4c-0.2,0.2-0.5,0.1-0.7-0.1
		c-0.3-0.1-0.4-0.5-0.3-0.8c0.3-0.4,0.9-0.2,1.2,0C17.7,68.9,17.5,69.1,17.4,69.4L17.4,69.4z M62,68.6c-0.4,0.1-0.6-0.3-0.9-0.4
		c-0.1-0.3,0.1-0.6,0.3-0.8c0.3-0.1,0.8-0.1,1,0.3C62.5,68.1,62.5,68.5,62,68.6L62,68.6z M22.7,72.2c0-0.1,0-0.3,0.1-0.4
		c0.3-0.3,1-0.2,1.1,0.2c0.1,0.1,0.1,0.2,0,0.3c-0.1,0.2-0.2,0.4-0.4,0.5c-0.3,0.1-0.5-0.2-0.7-0.3C22.7,72.5,22.7,72.2,22.7,72.2
		L22.7,72.2z M22.3,72.8c0.1,0.6,0.8,0.6,1.1,0.7c0.3-0.1,0.7-0.3,0.8-0.7c0.1,0.5,0.2,0.9,0.5,1.3c0.5,0,0.8,0.2,1.2-0.2
		c0.4-0.3,0.4-1,0.3-1.5c0-0.1-0.1-0.2-0.2-0.3c-0.2-0.2-0.5-0.3-0.9-0.3c-0.5,0-0.6,0.5-0.8,0.7c0-0.4,0.1-0.9-0.3-1.3
		c-0.4-0.2-1-0.6-1.3-0.1c-0.3,0.3-0.4,0.6-0.5,1C22.2,72.4,22.3,72.6,22.3,72.8L22.3,72.8z M55.6,70.9c-0.3,0.1-0.6,0-0.9,0.3
		c-0.2,0.3-0.3,0.6-0.2,1c0,0.2,0.1,0.4,0.2,0.6c0.4,0.3,0.7,0.8,1.3,0.5c0.5-0.2,0.7-0.7,0.7-1.1C56.6,71.6,56.3,71,55.6,70.9
		L55.6,70.9z M56.1,72.2c0-0.1,0-0.2,0-0.3c-0.2-0.2-0.4-0.5-0.8-0.4c-0.3,0.1-0.4,0.4-0.4,0.7c0,0,0,0,0,0.1
		c0.1,0.3,0.5,0.5,0.8,0.4C55.9,72.7,56.1,72.4,56.1,72.2L56.1,72.2z M21.1,72.1c-0.3,0-0.5-0.2-0.6-0.6c0-0.2,0.1-0.6,0.4-0.6
		c0.6-0.1,0.8,0.2,0.9,0.6C21.8,71.7,21.6,72.1,21.1,72.1L21.1,72.1z M57,71.1c0.1,0.3,0.4,0.4,0.7,0.4c0.3-0.1,0.6-0.4,0.6-0.8
		c-0.1-0.2-0.3-0.5-0.6-0.5C57.3,70.3,56.9,70.6,57,71.1L57,71.1z M31,74.7c0,0.2-0.1,0.4-0.2,0.6c-0.2,0.4-0.6,0.5-0.9,0.6
		c-0.4,0-0.9-0.3-0.9-0.8c0-0.1,0-0.3,0-0.4c0-0.3-0.1-0.6,0.2-1c0.5-0.6,1.4-0.4,1.7,0.3C31,74.2,31,74.4,31,74.7L31,74.7z
		 M30.6,74.7c-0.1,0.2-0.3,0.4-0.5,0.5c-0.3-0.1-0.8,0-0.8-0.4c0,0,0,0,0-0.1c-0.1-0.4,0.3-0.6,0.6-0.8c0.2,0.1,0.8,0,0.8,0.6
		C30.7,74.5,30.6,74.7,30.6,74.7L30.6,74.7z M32.8,74.7c0.3,0.2,0.2,0.4,0.1,0.7c-0.3,0.1-0.5,0.4-0.9,0.2c-0.3-0.1-0.4-0.6-0.2-0.9
		c0,0,0.1,0,0.1-0.1c0.2-0.1,0.4-0.2,0.7-0.1C32.6,74.6,32.7,74.7,32.8,74.7L32.8,74.7z M33.3,74.7c0.1,0.6,0.1,1.2-0.4,1.5
		c-0.4,0.1-0.9,0.3-1.3-0.1c-0.3-0.4-0.4-0.9-0.3-1.4c0-0.2,0.1-0.3,0.2-0.4c0.2-0.3,0.7-0.5,1.1-0.3c0.3,0.2,0.5,0.4,0.7,0.7
		C33.3,74.6,33.3,74.7,33.3,74.7L33.3,74.7z M47.2,75c0.1,0.2,0,0.7-0.3,0.8c-0.7,0.1-1.4-0.6-0.7-1.1c0,0,0,0,0.1-0.1
		C46.5,74.5,47,74.6,47.2,75L47.2,75z M47.6,75.1c-0.1,0.6-0.5,1.4-1,1.4c-0.6-0.1-0.9-0.5-1.1-1c-0.2-0.6,0.1-1.3,0.9-1.4
		C46.9,74.1,47.6,74.5,47.6,75.1L47.6,75.1z M49.5,74.7c0,0.2-0.1,0.5-0.3,0.6c-0.4,0.1-0.7,0-1.1-0.2c0-0.2,0-0.3,0-0.4
		c0-0.1,0.1-0.3,0.2-0.4C48.7,73.9,49.4,74.1,49.5,74.7C49.5,74.6,49.5,74.7,49.5,74.7L49.5,74.7z M49.9,74.7c0,0.3-0.2,0.6-0.3,0.9
		c-0.3,0.4-0.8,0.4-1.1,0.3c-0.6-0.2-0.6-0.7-0.6-1.2c0-0.1,0-0.1,0-0.2c0-0.5,0.3-0.8,0.8-1c0.7-0.1,0.9,0.4,1.2,0.8
		C49.8,74.5,49.9,74.6,49.9,74.7L49.9,74.7z M51.4,74.7c0,0-0.1,0-0.1,0.1c-0.2,0-0.3,0-0.4-0.1c-0.1-0.1-0.2-0.1-0.3-0.2
		c-0.3-0.2-0.2-0.5,0-0.8c0.3-0.3,1-0.3,1.2,0.3C51.7,74.2,51.6,74.5,51.4,74.7L51.4,74.7z M52,74.7c0,0.1-0.1,0.2-0.1,0.2
		c-0.2,0.6-0.8,0.3-1.2,0.3c-0.2-0.1-0.4-0.3-0.5-0.5C50.1,74.5,50,74.2,50,74c0.1-0.3,0.2-0.8,0.6-1c0.5,0,1.2,0,1.4,0.7
		C52.1,74,52.1,74.4,52,74.7L52,74.7z M34.9,76.2c-0.3,0.1-0.6-0.3-0.7-0.5c-0.1-0.3,0.3-0.5,0.5-0.6c0.4,0,0.8,0,0.9,0.4
		C35.7,75.9,35.3,76.1,34.9,76.2L34.9,76.2z M38,75.9c-0.2,0.3-0.6,0.4-0.9,0.3c-0.2-0.1-0.3-0.2-0.4-0.4c-0.2-0.4,0.3-0.7,0.5-0.8
		c0.3-0.1,0.5,0.2,0.8,0.3C38.1,75.5,38.1,75.7,38,75.9L38,75.9z M39.8,76.4c-0.4,0-0.7-0.3-0.8-0.6c-0.1-0.3,0.1-0.6,0.4-0.6
		c0.4,0,0.7,0.2,0.8,0.5C40.4,76,40.2,76.3,39.8,76.4L39.8,76.4z M42.3,76.1c-0.3,0.2-0.7,0-0.9-0.2c-0.2-0.2-0.1-0.5-0.1-0.7
		c0.4-0.3,1-0.2,1.2,0.2C42.6,75.6,42.6,75.9,42.3,76.1L42.3,76.1z M44.8,75.8c-0.3,0.3-0.6,0.2-0.9,0.1c-0.6-0.2-0.3-0.8,0.1-1.1
		C44.6,74.8,45.2,75.2,44.8,75.8L44.8,75.8z M1.9,32.1C2.2,32,2.5,32,2.8,31.9c0.3-0.2,0.3-0.5,0.4-0.7h0c0,0,0,0,0,0
		c0.1-0.4-0.4-0.7-0.4-1.1c0.2-0.2,0.5-0.1,0.7-0.3c0.2-0.4,0.6-0.7,0.3-1.2c-0.3-0.4-0.7-0.7-1.2-0.8c-0.2,0-0.5,0.1-0.6,0.3
		c-0.3,0.3-0.3,0.8-0.3,1.2l0,0h0c0,0.2,0.1,0.4,0.1,0.5C1,30,0.9,30.6,0.9,31.2c0,0,0,0,0,0c0,0.1,0,0.1,0,0.2
		c0.1,0.3,0.4,0.6,0.7,0.7c0,0.1-1,0.5-1,1.4c0,0.5,0.7,1,1.2,1c0.7,0,1.4-0.5,1.2-1.3C2.9,32.6,2.4,32.4,1.9,32.1L1.9,32.1z
		 M21,72.6c-0.7,0-1-0.5-1-1.1c0-0.8,0.6-1.2,1.2-1.3c0.6,0,1.2,0.4,1.1,1.2C22.1,72.1,21.5,72.7,21,72.6L21,72.6z M27.5,75.1
		c-0.5-0.1-0.8-0.5-0.9-1c-0.2-0.9,0.4-1.3,1.2-1.4c1-0.1,1.2,1.2,0.7,1.9C28.3,74.8,27.8,75,27.5,75.1L27.5,75.1z M38.5,75.6
		c0.3-0.4,0.7-1.1,1.3-0.9c0.4,0.3,1,0.5,0.9,1.1c-0.1,0.3,0,0.6-0.2,0.8c-0.3,0.4-0.7,0.3-1,0.5c-0.6-0.1-0.7-0.8-0.9-1.3
		c-0.3,0.3-0.3,0.8-0.8,1c-0.4,0-0.8,0-1.1-0.3c-0.3-0.3-0.4-0.8-0.3-1.3c0-0.4,0.6-0.8,0.9-0.8C38,74.4,38.3,75.1,38.5,75.6
		L38.5,75.6z M35,74.5c0.5,0,1.1,0.5,1.2,1c0.1,0.6-0.5,1.3-1.1,1.3c-0.7,0-1.1-0.5-1.2-1.1C33.8,75.1,34.1,74.5,35,74.5L35,74.5z
		 M45.2,75c0.4,0.9-0.2,1.7-0.9,1.7c-0.4,0-0.9-0.3-1.1-1.1c0-0.2,0-0.5,0.1-0.7c0.1-0.3,0.5-0.5,0.8-0.5
		C44.5,74.4,44.9,74.7,45.2,75L45.2,75z M41.9,74.5c0.4,0,0.8,0.3,1,0.6c0.2,0.9,0.1,1.6-0.9,1.7c-0.6,0-1.1-0.7-1-1.5
		C40.9,74.8,41.5,74.5,41.9,74.5L41.9,74.5z M54.1,72.5c0.8,1.2,0.1,1.8-0.7,1.8c-0.9,0-1.9-0.7-1.2-1.7
		C52.8,72.2,53.7,71.8,54.1,72.5L54.1,72.5z M58.6,70.3c0.1,0.7,0.1,1.8-0.9,1.8c-0.7,0-1.1-0.5-1.1-1.1c0-0.6,0.3-1.2,1-1.3
		C57.9,69.6,58.3,69.8,58.6,70.3L58.6,70.3z M77.5,32.1c0,0.1,0,0.2,0,0.3c-0.1,0.5-0.7,0.8-1.2,0.8c-0.5,0-1-0.2-1.1-0.6
		c0-0.1,0-0.1,0-0.2c-0.1-0.6,0.5-1.2,1.1-1.3C76.8,31,77.4,31.5,77.5,32.1L77.5,32.1z M71.1,20c-0.1-0.1-0.3-0.1-0.7-0.1
		c-0.3-0.1-0.5-0.5-0.5-0.8c0-0.4,0.2-0.8,0.4-1.1c0.5-0.4,1.3-0.3,1.7,0.3c0.2,0.5-0.1,0.9-0.2,1.3c0.5,0.1,1.1,0.1,1.4,0.7
		c0.1,0.5-0.1,0.8-0.3,1.2c0.5,0.6,1.2,0,1.4,0.9c0.1,0.3,0,0.6-0.2,0.9c-0.2,0.3-0.6,0.5-0.9,0.5c-0.5,0.1-1-0.1-1.1-0.7
		c-0.2-0.6,0.3-0.9,0.4-1.3h0c0,0,0,0,0,0c-0.4,0-1,0-1.4-0.2C70.5,21.1,71.1,20.3,71.1,20L71.1,20L71.1,20L71.1,20z"/>
	<path class="st0" d="M35.8,67.2L35.8,67.2L35.8,67.2z M51.9,67.2c0-0.1-0.1-0.2-0.1-0.3c-0.5-1.2-1.9-1.5-2.9-0.8
		c-0.2,0.3-0.4,0.7-0.6,1.1h0c-0.1,0.4-0.2,0.8,0,1.1c0.3,0.4,0.5,1,0.9,1.3h0l0,0c0.1,0.1,0.3,0.2,0.5,0.2c0.6,0.1,1.3-0.1,1.7-0.6
		C51.8,68.7,52.1,67.9,51.9,67.2L51.9,67.2z M47.6,67.2c0-0.2,0.1-0.3,0.1-0.5c0.5-1,1.5-1.7,2.5-1.7c1,0.1,2,0.6,2.3,1.5
		c0.1,0.2,0.2,0.4,0.3,0.6h0l0,0c0.2,0.8-0.2,1.7-0.6,2.3c0,0.1-0.1,0.1-0.1,0.2h0c-0.5,0.6-1.2,0.7-1.8,0.9
		c-0.9,0.1-1.6-0.2-2.1-0.9h0c0-0.1-0.1-0.1-0.1-0.2C47.5,68.9,47.4,68,47.6,67.2C47.6,67.2,47.6,67.2,47.6,67.2L47.6,67.2
		L47.6,67.2z M40.7,67.2c-0.1-0.2-0.2-0.5-0.3-0.7c-0.1,0.2-0.2,0.4-0.3,0.7c-0.1,0.4-0.3,0.7-0.3,1.1c0.3,0,0.8,0.1,1.1-0.1
		C41,67.8,40.9,67.5,40.7,67.2L40.7,67.2z M46,69.7c0.2,0.2,0.3,0.4,0.5,0.6c0.2,0.1,0.3-0.1,0.4-0.2l0-2.9l0-1.2
		c0.1-0.3,0.6-0.4,0.4-0.8l-1.1-0.1c-0.2,0-0.3,0.2-0.3,0.4c0.5,0.4,0.6,1,0.6,1.6c0,0.5-0.1,1-0.2,1.6c-0.4-0.4-0.8-0.9-1.1-1.4
		c-0.2-0.4-0.5-0.8-0.7-1.1c-0.4-0.4-0.5-1-1.1-1.1c-0.2,0.8-0.1,1.5-0.1,2.2c0,0.3,0,0.7,0,1.1c-0.3,0.5,0.1,1.5-0.7,1.4
		c-0.6-0.7-0.7-1.6-1.1-2.5c-0.1-0.2-0.2-0.5-0.4-0.7c-0.4-0.4-0.3-1.6-1.1-1.3c-0.3,0.6-0.5,1.3-0.7,1.9c-0.2,0.8-0.4,1.6-0.7,2.3
		c-0.1,0.1-0.2,0.1-0.3,0.2c-0.1,0.1-0.2,0.2-0.2,0.4c0.4,0.3,0.9,0.2,1.4,0.1c0.1-0.1,0.1-0.3-0.1-0.5c-0.1-0.1-0.2-0.2-0.2-0.3
		c0.1-0.9,1.2-0.3,1.8-0.4c0.4,0.2,0.3,0.5,0.2,0.7c-0.1,0.2-0.1,0.4,0,0.6c1-0.1,1.9,0,3-0.2c0.1-0.3-0.1-0.3-0.2-0.4
		c-0.2-0.1-0.3-0.1-0.4-0.3c-0.2-0.7-0.1-1.5,0-2.2c0-0.1,0-0.2,0.1-0.3c0.1,0.1,0.2,0.2,0.3,0.3C44.9,68,45.4,68.9,46,69.7L46,69.7
		z M34.6,65.2c0.4-0.3,0.9,0,1.4-0.3c0.3,0,0.4,0.2,0.3,0.4c-0.2,0.2-0.6,0.2-0.5,0.5l0,3.6c0.4,0.2,0.8,0.1,1.3,0.1
		c0.5,0,0.5-1.1,1-0.6c0,0.3-0.1,0.5-0.2,0.7h0c-0.1,0.2-0.2,0.3-0.3,0.5c-0.8,0.1-1.5,0.2-2.3,0c-0.2,0.2-0.5,0.1-0.8,0.1
		c0-0.1-0.2-0.3,0-0.4c0.3-0.2,0.7-0.4,0.6-0.8c-0.1-0.6-0.1-1.3,0-1.9C35.1,66.5,35.1,65.8,34.6,65.2L34.6,65.2z M32.1,69.7
		c0.1-0.1,0.2-0.1,0.2-0.2v-2.3v-1.4c0-0.3-0.5-0.6-0.1-0.9c0.4,0.2,1.4-0.3,1.4,0.4c-0.5,0.1-0.7,0.6-0.5,1.1v0.8v2.1
		c0.1,0.1,0.2,0.2,0.3,0.4c0.2,0.1,0.3,0.3,0.2,0.5l-1.6,0c0-0.1-0.2-0.3,0-0.4C32,69.8,32.1,69.8,32.1,69.7L32.1,69.7z M27.2,69.7
		L27.2,69.7c-0.1-0.1-0.2-0.2-0.3-0.3c0-0.7-0.1-1.5-0.1-2.2c0-0.2,0-0.5,0.1-0.7c0.2,0.2,0.4,0.4,0.6,0.7c0.4,0.5,0.6,1.1,1.1,1.5
		c0.4-0.4,0.7-1,0.9-1.5c0.1-0.2,0.2-0.4,0.4-0.6c0.1,0,0.2,0,0.3,0.1c0,0.9-0.1,1.8-0.1,2.7c-0.1,0.2-0.2,0.2-0.4,0.3
		c-0.1,0.1-0.2,0.2-0.1,0.4c0.4,0.3,0.9,0,1.5,0c0.1-0.2,0.1-0.3,0-0.4c-0.1-0.1-0.2-0.3-0.2-0.5l0-3.3c0.1-0.3,0.5-0.5,0.5-0.8
		c-0.4-0.2-0.9,0-1.3,0c-0.3,0.7-0.7,1.5-1.2,2.1h0c-0.1,0.1-0.1,0.1-0.2,0.1l-0.1-0.1l-1.4-2.1L25.9,65c-0.3,0.4,0.2,0.5,0.3,0.8
		l0.1,1.4l0.1,1.6c0.1,0.4-0.2,0.6-0.5,0.9c-0.1,0.1-0.2,0.2-0.3,0.4c0.5,0.4,1.3-0.1,2,0.2C27.8,69.9,27.5,69.9,27.2,69.7
		L27.2,69.7L27.2,69.7z"/>
	<path class="st0" d="M65.6,17c-0.9,0-1.9-0.1-2.6,0.4v0l0,0c-0.2,0.1-0.4,0.3-0.5,0.6c-0.4,0.5-0.7,1.2-0.7,1.9c0,0,0,0,0,0
		c0,0.3,0,0.5,0.1,0.8c0.3,0.5,0.7,0.9,1.2,1.1c0.3,0.2,0.7,0.2,1.1,0.2c0.2,0,0.5-0.1,0.7-0.2h0c0.8-0.4,1.5-1.1,2-1.9h0
		c0,0,0-0.1,0-0.1c0.4-0.6,0.1-1.3-0.2-1.8C66.6,17.6,66.1,17.2,65.6,17L65.6,17z M62.5,16.6c1.1-0.7,2.2-0.7,3.4-0.4
		c0.5,0.3,1,0.7,1.4,1.2h0l0,0c0.1,0.2,0.3,0.4,0.3,0.6c0.2,0.6,0.3,1.3,0.2,1.9h0c-0.1,0.7-0.4,1.4-0.8,2c-0.9,0.8-1.9,0.9-3.1,0.9
		c-0.6-0.2-1.4-0.5-1.9-1.1h0c-0.3-0.3-0.5-0.6-0.6-1c-0.1-0.3-0.1-0.6-0.1-0.8C61.1,18.8,61.4,17.3,62.5,16.6L62.5,16.6z
		 M58.2,15.3c-0.1,0.4-0.1,0.9,0,1.3c0.1,0.3,0.3,0.6,0.5,0.9h0l0,0c0.2,0.3,0.5,0.5,0.8,0.7c0.2,0.2,1-0.2,0.9,0.4
		c0,0.4-0.5,0.4-0.7,0.3c-1.1-0.3-2.1-1.2-2.5-2.4c-0.1-0.5-0.1-1-0.1-1.5c0.2-1,0.7-1.9,1.5-2.5c0,0,0,0,0.1-0.1
		c1.1-0.8,2.7-0.6,3.8,0.1h0l0,0c0.1,0,0.1,0.1,0.1,0.1c0.4,0.3,0.5,0.7,0.8,0.9c0.3-0.1,0.5,0.1,0.6,0.4C64,14.2,64,14.7,63.9,15
		c-0.1,0.2-0.2,0.4-0.5,0.4c-0.1-0.1-0.1-0.2-0.2-0.4c0-0.2,0-0.5,0-0.8c-0.3-0.6-0.8-1-1.3-1.4c-0.9-0.1-1.9-0.1-2.6,0.6
		C58.7,13.9,58.3,14.6,58.2,15.3L58.2,15.3z M56,7.6c0.5,0.3,0.9,0.7,1.4,0.9v0.3c-0.5,0.2-1-0.2-1.3,0.5c-0.8,1.4-0.5,0.9-1.7,3.2
		h0c-0.3,0.6-0.6,1.1-1,1.6C52.8,14,53.3,13,53,12.6c0,0,0,0,0-0.1v0c-0.3-2.5-0.2-1.9-0.7-3.9c-0.8,1-0.9,2.3-1.6,3.4
		c-0.1,0.2,0,0.4,0.2,0.5v0l0,0c0.2,0.1,0.3,0.3,0.1,0.5c-0.5,0-0.8-0.4-1.3-0.5c-0.1,0-0.1,0-0.2,0c-0.1-0.1,0-0.3,0-0.4
		c0.2-0.2,0.5-0.3,0.8-0.4c0.7-2,0.7-2.1,1.8-4.2c0.2-0.4,0.4-0.8,0.6-1.2c0.5,0,0.5,0.5,0.5,1.2l0,0c0,0,0,0,0,0
		c0,0.1,0,0.2,0.1,0.2c0,0.8,0.1,1.5,0.2,2.2h0l0,0c0.1,0.7,0.3,1.3,0.3,2c0.8-1,1.2-2.3,2-3.3c0.2-0.5-0.6-0.8-0.4-1.1
		c0.1-0.1,0.2-0.1,0.3-0.2C55.7,7.4,55.9,7.5,56,7.6L56,7.6z M38.6,10L38.6,10L38.6,10C38.6,10,38.6,10,38.6,10
		c-0.5,0.4-1.2-0.1-1.8,0.2c-0.1-0.1-0.1-0.1-0.1-0.2c0-0.1,0.1-0.2,0.1-0.3c0.3,0,0.3-0.3,0.4-0.5L37,7.5l-0.1-1.3
		c0.2-0.6-0.1-1.2-0.1-1.8c0-0.1,0-0.1,0-0.2c-0.4-0.3-0.8,0.1-1.3,0.1c0,0-0.1,0-0.1,0.1c-0.3,0.2-0.5,0.5-0.8,0.4
		c-0.1-0.1-0.1-0.3,0-0.4v0c0.1-0.2,0.2-0.5,0.3-0.7c1.6-0.1,3.2-0.3,4.7-0.3c0,0.1,0.3,0.7,0.3,1c0,0.1,0,0.2,0,0.3
		c-0.3,0-0.4-0.1-0.5-0.3h0c-0.1-0.1-0.1-0.2-0.2-0.2c-0.5,0-1.3-0.3-1.5,0.2h0c0,0,0,0,0,0.1c0.1,1.1,0.1,2,0.2,3.1c0,0,0,0,0,0
		c0,0.6,0.1,1.2,0.2,1.8C38.1,9.7,38.6,9.6,38.6,10L38.6,10z M58.1,10c0,0,0.1-0.1,0.1-0.1c0-0.3-0.3-0.6,0-0.8
		c0.4,0.1,0.8,0.5,1.2,0.5c0.1,0.1,0.2,0.2,0.3,0.3c0.1,0.1,0.2,0.3,0.1,0.4c-0.3,0.1-1-0.1-1.2,0.4c-0.4,0.6-0.8,1.1-1.1,1.7
		c-0.5,0.8-1.1,1.6-1.4,2.5h0c0,0,0,0.1-0.1,0.1c0,0.2,0.2,0.4,0,0.5c-0.6,0.1-0.9-0.7-1.6-0.6c0,0,0,0,0,0
		c-0.1-0.1-0.2-0.3-0.1-0.5c0.2-0.2,0.5-0.4,0.8-0.2c0.4-0.6,0.8-1.2,1.2-1.8h0C56.9,11.7,57.5,10.9,58.1,10L58.1,10z M21.1,12.5
		c0,0.1-0.1,0.3-0.2,0.4c-0.3,0.3-0.7,0.5-0.9,0.8c0.2,0.5,0.7,0.9,1.1,1.3c0.3,0.3,0.7,0.5,1,0.7c-0.1,0.7-1,0.8-1.3,1.4
		c-0.2-0.3,0.2-0.8-0.2-1.2L19.9,15l-2.4-2.5l-0.3-0.3c-0.4-0.4-0.9,0.4-1.2-0.2c0.6-0.7,1.4-1.2,1.9-1.8c0.2-0.1,0.4-0.2,0.6-0.3
		c0.9-0.3,1.7-0.2,2.2,0.5C21.1,11.1,21.3,11.8,21.1,12.5L21.1,12.5z M20.3,12.5C20.4,12.5,20.4,12.5,20.3,12.5c0.3-0.4,0-1-0.2-1.3
		c-0.6-0.5-1.8-0.8-2.2,0.2c0.1,0.1,1,1.2,0.9,1.2c0.3,0.3,0.6,0.6,1,0.6C20.1,12.9,20.2,12.7,20.3,12.5L20.3,12.5z M42.4,7.8
		c0-0.1,0-0.2-0.1-0.3c-0.1-0.3-0.3-0.7-0.8-0.4l-0.2,0.2c0,0.1,0,0.1,0,0.2v0c0,0.8-0.2,1.5,0.2,2.1c0.9-0.1,1.9,0.1,2.3-0.9
		c0.1,0,0.3,0.1,0.2,0.3c0,0.4-0.2,0.7-0.4,1h0c-0.1,0.1-0.1,0.2-0.2,0.2c-1.1,0.1-2.2-0.3-3.5-0.2c0,0-0.1-0.1-0.1-0.1
		c-0.1-0.1-0.1-0.2-0.1-0.3c0.3-0.2,0.8-0.3,0.9-0.7c0-0.5,0.1-1,0.1-1.5c0-1,0-2,0.1-3.1c0,0,0,0,0-0.1c-0.3-0.2-0.6-0.4-0.5-0.8
		c0.5-0.2,1.2,0.2,1.9,0c0.6,0.1,1.1,0.2,1.7,0.2c0,0.1,0.1,0.6,0.1,0.6c0.1,0.3,0.1,0.7,0.1,1c-0.5-0.1-0.4-0.9-0.9-1v0
		c0,0,0,0-0.1,0l-1.3-0.1c0,0,0,0.1,0,0.1v0l0,0c-0.2,0.6-0.1,1.3-0.2,1.8c0.2,0.4,0.5,0.2,0.8,0.3c0.3-0.2,0.2-0.6,0.6-0.7
		c0.4,0.4-0.3,0.8-0.2,1.1c0,0.2,0,0.3-0.1,0.5C42.7,7.6,42.6,7.7,42.4,7.8L42.4,7.8z M22.2,10L22.2,10L22.2,10
		c0.1,0.7,0.6,1.4,1.1,2c0.4,0.3,1.1,1,1.9,0.8c0.4,0,0.8-0.1,1.1-0.3h0c0.5-0.3,0.9-0.6,1.1-1.1c0.3-1.3-0.5-2.2-1.2-3.2
		c-0.8-0.7-2.3-0.9-3.2-0.3c-0.5,0.3-0.7,0.8-0.8,1.4C22.1,9.5,22.1,9.8,22.2,10L22.2,10z M44.8,7.1c0.4-1,1.2-1.8,2.2-2.3
		c1-0.1,2-0.2,2.8,0.5l0.6,0.1c0.4,0.5,0.6,1.3,0.4,1.9c-0.6,0.1-0.5-0.6-0.7-0.9c-0.7-0.7-2-1.1-2.8-0.9c-0.8,0.2-1.2,1.1-1.6,1.8
		c0,0.1,0,0.2-0.1,0.3c-0.1,0.6-0.2,1.3,0,1.9c0.1,0.5,0.4,0.8,0.8,1.1c0.8,0.8,1.9,0.4,2.9,0.3c0.1,0.2,0.2,0.4,0.1,0.5
		c-0.9,0.8-2.1,0.3-3.1,0c-0.5-0.4-0.9-0.8-1.2-1.4h0c-0.3-0.5-0.5-1-0.6-1.6C44.6,8,44.7,7.5,44.8,7.1L44.8,7.1z M28.4,7.5
		c-0.1-0.6-0.3-1.1-0.6-1.6c-0.3-0.1-0.7,0-0.8-0.4l1.9-0.7h0.3c0.2,0.4-0.4,0.6-0.5,0.9c0.6,1.3,0.9,2.6,1.4,3.9c0,0.1,0,0.3,0,0.4
		h0l0,0c0.1,0.4,0.2,0.7,0.5,0.9c0.6,0,1.2-0.3,1.5-0.9c0,0,0,0,0,0h0c0.1-0.3,0-0.8,0.4-0.7c0,0.2,0,0.5,0.1,0.7h0
		c0,0.5,0,0.9-0.3,1.2c-1,0.3-2,0.4-2.9,0.9c-0.2,0-0.4-0.2-0.2-0.4c0.5-0.4,0.5-0.8,0.3-1.2c-0.2-0.6-0.6-1.1-0.6-1.7
		C28.7,8.4,28.5,8,28.4,7.5L28.4,7.5L28.4,7.5L28.4,7.5z M22.5,7.5c0.6-0.5,1.4-0.8,2.2-0.9c0.8,0.1,1.5,0.5,2.2,0.9h0l0,0
		c0.1,0.1,0.3,0.2,0.4,0.3c0.5,0.6,0.7,1.4,0.8,2.2l0,0c0,0,0,0,0,0c0,0.5-0.1,1.1-0.2,1.5c-0.1,0.4-0.3,0.7-0.6,1h0
		c-0.6,0.7-1.4,1.1-2.2,1.2c-1,0.1-2.1-0.4-2.8-1.2c-0.1-0.1-0.1-0.1-0.2-0.2c-0.4-0.7-0.6-1.5-0.7-2.3c0-0.7,0.1-1.4,0.6-2
		C22.1,7.8,22.3,7.7,22.5,7.5L22.5,7.5L22.5,7.5z M34.1,7.5L34.1,7.5L34.1,7.5c0.1,0.7,0.3,1.5,0.5,2.2c0.1,0.1,0.4,0.2,0.5,0.3h0
		l0,0c0.1,0.1,0.2,0.2,0,0.4c-0.7,0-1.2,0.5-1.8,0.2c0.2-0.2,0.4-0.5,0.4-0.8c0-0.7-0.3-1.5-0.4-2.2l0-0.1l-0.6-2.8
		c-0.1-0.2-0.3-0.2-0.5-0.3v0C32,4.4,31.8,4.3,32,4c0.5-0.3,1.2,0.2,1.6-0.3c0.1,0,0.4,0,0.3,0.2c-0.2,0.1-0.3,0.3-0.3,0.5v0
		C33.4,5,33.9,5.6,34,6.2C34,6.7,34.1,7.1,34.1,7.5L34.1,7.5z"/>
</g>
</svg>
